<svg width="32" height="32" viewBox="0 0 32 32" fill="none" xmlns="http://www.w3.org/2000/svg">
<rect width="32" height="32" rx="8" fill="#F5F5F5"/>
<path d="M13.6667 18.9167L16.0001 21.2501L18.3334 18.9167" stroke="#F96021" stroke-linecap="round" stroke-linejoin="round"/>
<path d="M16 16V21.25" stroke="#F96021" stroke-linecap="round" stroke-linejoin="round"/>
<path d="M21.18 19.5525C21.6872 19.1958 22.0675 18.6869 22.2658 18.0995C22.4641 17.512 22.47 16.8767 22.2828 16.2857C22.0955 15.6947 21.7248 15.1787 21.2244 14.8126C20.724 14.4466 20.12 14.2495 19.5 14.25H18.765C18.5896 13.5662 18.2613 12.9312 17.8049 12.3927C17.3485 11.8542 16.7759 11.4262 16.1302 11.141C15.4845 10.8558 14.7825 10.7208 14.0771 10.7462C13.3716 10.7715 12.6812 10.9566 12.0576 11.2875C11.434 11.6183 10.8937 12.0863 10.4771 12.6562C10.0606 13.2261 9.7788 13.8831 9.65292 14.5776C9.52705 15.2722 9.56038 15.9863 9.75041 16.6661C9.94044 17.346 10.2822 17.9738 10.75 18.5025" stroke="#F96021" stroke-linecap="round" stroke-linejoin="round"/>
</svg>
