<svg width="14" height="14" viewBox="0 0 14 14" fill="none" xmlns="http://www.w3.org/2000/svg">
<g id="file-text">
<path id="Vector" d="M8.16671 1.16663H3.50004C3.19062 1.16663 2.89388 1.28954 2.67508 1.50833C2.45629 1.72713 2.33337 2.02387 2.33337 2.33329V11.6666C2.33337 11.976 2.45629 12.2728 2.67508 12.4916C2.89388 12.7104 3.19062 12.8333 3.50004 12.8333H10.5C10.8095 12.8333 11.1062 12.7104 11.325 12.4916C11.5438 12.2728 11.6667 11.976 11.6667 11.6666V4.66663L8.16671 1.16663Z" stroke="#F96021" stroke-linecap="round" stroke-linejoin="round"/>
<path id="Vector_2" d="M8.16663 1.16663V4.66663H11.6666" stroke="#F96021" stroke-linecap="round" stroke-linejoin="round"/>
<path id="Vector_3" d="M9.33329 7.58337H4.66663" stroke="#F96021" stroke-linecap="round" stroke-linejoin="round"/>
<path id="Vector_4" d="M9.33329 9.91663H4.66663" stroke="#F96021" stroke-linecap="round" stroke-linejoin="round"/>
<path id="Vector_5" d="M5.83329 5.25H5.24996H4.66663" stroke="#F96021" stroke-linecap="round" stroke-linejoin="round"/>
</g>
</svg>
