<svg width="12" height="13" viewBox="0 0 12 13" fill="none" xmlns="http://www.w3.org/2000/svg">
<g id="file-text">
<path id="Vector" d="M7 1.5H3C2.73478 1.5 2.48043 1.60536 2.29289 1.79289C2.10536 1.98043 2 2.23478 2 2.5V10.5C2 10.7652 2.10536 11.0196 2.29289 11.2071C2.48043 11.3946 2.73478 11.5 3 11.5H9C9.26522 11.5 9.51957 11.3946 9.70711 11.2071C9.89464 11.0196 10 10.7652 10 10.5V4.5L7 1.5Z" stroke="#646464" stroke-linecap="round" stroke-linejoin="round"/>
<path id="Vector_2" d="M7 1.5V4.5H10" stroke="#646464" stroke-linecap="round" stroke-linejoin="round"/>
<path id="Vector_3" d="M8 7H4" stroke="#646464" stroke-linecap="round" stroke-linejoin="round"/>
<path id="Vector_4" d="M8 9H4" stroke="#646464" stroke-linecap="round" stroke-linejoin="round"/>
<path id="Vector_5" d="M5 5H4.5H4" stroke="#646464" stroke-linecap="round" stroke-linejoin="round"/>
</g>
</svg>
