<svg width="59" height="34" viewBox="0 0 59 34" fill="none" xmlns="http://www.w3.org/2000/svg">
<g id="Frame 56" opacity="0.2">
<g id="Group 8656">
<circle id="Ellipse 1954" cx="2.28842" cy="2.28842" r="2.28842" transform="matrix(0.707106 0.707107 0.707106 -0.707107 0.236328 4.36316)" stroke="#0B223D" stroke-width="0.523067"/>
<circle id="Ellipse 1959" cx="2.28842" cy="2.28842" r="2.28842" transform="matrix(0.707106 0.707107 0.707106 -0.707107 6.70898 -2.10938)" stroke="#0B223D" stroke-width="0.523067"/>
<circle id="Ellipse 1955" cx="2.28842" cy="2.28842" r="2.28842" transform="matrix(0.707106 0.707107 0.707106 -0.707107 6.70898 10.8357)" stroke="white" stroke-width="0.523067"/>
<circle id="Ellipse 1960" cx="2.28842" cy="2.28842" r="2.28842" transform="matrix(0.707106 0.707107 0.707106 -0.707107 13.1816 4.36316)" stroke="white" stroke-width="0.523067"/>
<circle id="Ellipse 1965" cx="2.28842" cy="2.28842" r="2.28842" transform="matrix(0.707106 0.707107 0.707106 -0.707107 19.6541 -2.10938)" stroke="#0B223D" stroke-width="0.523067"/>
<circle id="Ellipse 1956" cx="2.28842" cy="2.28842" r="2.28842" transform="matrix(0.707106 0.707107 0.707106 -0.707107 13.1816 17.3085)" stroke="white" stroke-width="0.523067"/>
<circle id="Ellipse 1961" cx="2.28842" cy="2.28842" r="2.28842" transform="matrix(0.707106 0.707107 0.707106 -0.707107 19.6541 10.8357)" stroke="white" stroke-width="0.523067"/>
<circle id="Ellipse 1966" cx="2.28842" cy="2.28842" r="2.28842" transform="matrix(0.707106 0.707107 0.707106 -0.707107 26.127 4.36316)" stroke="#0B223D" stroke-width="0.523067"/>
<circle id="Ellipse 1971" cx="2.28842" cy="2.28842" r="2.28842" transform="matrix(0.707106 0.707107 0.707106 -0.707107 32.5994 -2.10938)" stroke="#0B223D" stroke-width="0.523067"/>
<circle id="Ellipse 1957" cx="2.28842" cy="2.28842" r="2.28842" transform="matrix(0.707106 0.707107 0.707106 -0.707107 19.6541 23.781)" stroke="#0B223D" stroke-width="0.523067"/>
<circle id="Ellipse 1962" cx="2.28842" cy="2.28842" r="2.28842" transform="matrix(0.707106 0.707107 0.707106 -0.707107 26.127 17.3085)" stroke="#0B223D" stroke-width="0.523067"/>
<circle id="Ellipse 1967" cx="2.28842" cy="2.28842" r="2.28842" transform="matrix(0.707106 0.707107 0.707106 -0.707107 32.5994 10.8357)" stroke="#0B223D" stroke-width="0.523067"/>
<circle id="Ellipse 1972" cx="2.28842" cy="2.28842" r="2.28842" transform="matrix(0.707106 0.707107 0.707106 -0.707107 39.072 4.36316)" stroke="#0B223D" stroke-width="0.523067"/>
<circle id="Ellipse 1977" cx="2.28842" cy="2.28842" r="2.28842" transform="matrix(0.707106 0.707107 0.707106 -0.707107 45.5447 -2.10938)" stroke="#0B223D" stroke-width="0.523067"/>
<circle id="Ellipse 1958" cx="2.28842" cy="2.28842" r="2.28842" transform="matrix(0.707106 0.707107 0.707106 -0.707107 26.127 30.2537)" stroke="#0B223D" stroke-width="0.523067"/>
<circle id="Ellipse 1963" cx="2.28842" cy="2.28842" r="2.28842" transform="matrix(0.707106 0.707107 0.707106 -0.707107 32.5994 23.781)" stroke="#0B223D" stroke-width="0.523067"/>
<circle id="Ellipse 1968" cx="2.28842" cy="2.28842" r="2.28842" transform="matrix(0.707106 0.707107 0.707106 -0.707107 39.072 17.3085)" stroke="#0B223D" stroke-width="0.523067"/>
<circle id="Ellipse 1973" cx="2.28842" cy="2.28842" r="2.28842" transform="matrix(0.707106 0.707107 0.707106 -0.707107 45.5447 10.8357)" stroke="#0B223D" stroke-width="0.523067"/>
<circle id="Ellipse 1978" cx="2.28842" cy="2.28842" r="2.28842" transform="matrix(0.707106 0.707107 0.707106 -0.707107 52.0173 4.36316)" stroke="#0B223D" stroke-width="0.523067"/>
</g>
</g>
</svg>
