<svg width="12" height="13" viewBox="0 0 12 13" fill="none" xmlns="http://www.w3.org/2000/svg">
<g id="help-circle">
<path id="Vector" d="M6 11.5C8.76142 11.5 11 9.26142 11 6.5C11 3.73858 8.76142 1.5 6 1.5C3.23858 1.5 1 3.73858 1 6.5C1 9.26142 3.23858 11.5 6 11.5Z" stroke="#646464" stroke-linecap="round" stroke-linejoin="round"/>
<path id="Vector_2" d="M4.54492 5.00004C4.66247 4.66587 4.8945 4.38409 5.1999 4.20461C5.5053 4.02512 5.86437 3.95951 6.21351 4.0194C6.56265 4.07928 6.87933 4.2608 7.10746 4.5318C7.33559 4.80281 7.46045 5.1458 7.45992 5.50004C7.45992 6.50004 5.95992 7.00004 5.95992 7.00004" stroke="#646464" stroke-linecap="round" stroke-linejoin="round"/>
<path id="Vector_3" d="M6 9H6.00583" stroke="#646464" stroke-linecap="round" stroke-linejoin="round"/>
</g>
</svg>
