<svg width="56" height="56" viewBox="0 0 56 56" fill="none" xmlns="http://www.w3.org/2000/svg">
<rect opacity="0.15" width="56" height="56" rx="8" fill="#F96021"/>
<path d="M21.6994 26.3188L27.0328 14.3188C28.0936 14.3188 29.1111 14.7403 29.8612 15.4904C30.6113 16.2406 31.0328 17.258 31.0328 18.3188V23.6522H38.5794C38.966 23.6478 39.3489 23.7275 39.7015 23.8858C40.0542 24.0441 40.3683 24.2772 40.6219 24.5689C40.8756 24.8606 41.0628 25.2039 41.1706 25.5752C41.2783 25.9464 41.3041 26.3367 41.2461 26.7188L39.4061 38.7188C39.3097 39.3547 38.9867 39.9343 38.4967 40.3509C38.0066 40.7674 37.3825 40.9928 36.7394 40.9855H21.6994M21.6994 26.3188V40.9855M21.6994 26.3188H17.6994C16.9922 26.3188 16.3139 26.5998 15.8138 27.0999C15.3137 27.6 15.0328 28.2783 15.0328 28.9855V38.3188C15.0328 39.0261 15.3137 39.7044 15.8138 40.2045C16.3139 40.7046 16.9922 40.9855 17.6994 40.9855H21.6994" stroke="#F96021" stroke-linecap="round" stroke-linejoin="round"/>
</svg>
