<svg width="15" height="16" viewBox="0 0 15 16" fill="none" xmlns="http://www.w3.org/2000/svg">
<g id="money">
<path id="Vector" d="M0.9375 10.8125H14.0625V11.75H0.9375V10.8125Z" fill="#F96021"/>
<path id="Vector_2" d="M0.9375 12.6875H14.0625V13.625H0.9375V12.6875Z" fill="#F96021"/>
<path id="Vector_3" d="M11.25 5.1875C11.0646 5.1875 10.8833 5.24248 10.7292 5.3455C10.575 5.44851 10.4548 5.59493 10.3839 5.76623C10.3129 5.93754 10.2943 6.12604 10.3305 6.3079C10.3667 6.48975 10.456 6.6568 10.5871 6.78791C10.7182 6.91902 10.8852 7.00831 11.0671 7.04449C11.249 7.08066 11.4375 7.06209 11.6088 6.99114C11.7801 6.92018 11.9265 6.80002 12.0295 6.64585C12.1325 6.49168 12.1875 6.31042 12.1875 6.125C12.1875 5.87636 12.0887 5.6379 11.9129 5.46209C11.7371 5.28627 11.4986 5.1875 11.25 5.1875Z" fill="#F96021"/>
<path id="Vector_4" d="M7.5 8C7.12916 8 6.76665 7.89003 6.45831 7.68401C6.14996 7.47798 5.90964 7.18514 5.76773 6.84253C5.62581 6.49992 5.58868 6.12292 5.66103 5.75921C5.73338 5.39549 5.91195 5.0614 6.17418 4.79918C6.4364 4.53695 6.77049 4.35838 7.13421 4.28603C7.49792 4.21368 7.87492 4.25081 8.21753 4.39273C8.56014 4.53464 8.85298 4.77496 9.05901 5.08331C9.26503 5.39165 9.375 5.75416 9.375 6.125C9.37438 6.62209 9.17664 7.09864 8.82514 7.45014C8.47364 7.80164 7.99709 7.99938 7.5 8ZM7.5 5.1875C7.31458 5.1875 7.13333 5.24248 6.97915 5.3455C6.82498 5.44851 6.70482 5.59493 6.63386 5.76624C6.56291 5.93754 6.54434 6.12604 6.58051 6.3079C6.61669 6.48976 6.70598 6.6568 6.83709 6.78791C6.9682 6.91903 7.13525 7.00831 7.3171 7.04449C7.49896 7.08066 7.68746 7.0621 7.85877 6.99114C8.03007 6.92018 8.17649 6.80002 8.2795 6.64585C8.38252 6.49168 8.4375 6.31042 8.4375 6.125C8.43725 5.87644 8.3384 5.63812 8.16264 5.46236C7.98688 5.2866 7.74857 5.18775 7.5 5.1875Z" fill="#F96021"/>
<path id="Vector_5" d="M3.75 5.1875C3.56458 5.1875 3.38332 5.24248 3.22915 5.3455C3.07498 5.44851 2.95482 5.59493 2.88386 5.76623C2.81291 5.93754 2.79434 6.12604 2.83051 6.3079C2.86669 6.48975 2.95598 6.6568 3.08709 6.78791C3.2182 6.91902 3.38525 7.00831 3.5671 7.04449C3.74896 7.08066 3.93746 7.06209 4.10877 6.99114C4.28007 6.92018 4.42649 6.80002 4.5295 6.64585C4.63252 6.49168 4.6875 6.31042 4.6875 6.125C4.6875 5.87636 4.58873 5.6379 4.41291 5.46209C4.2371 5.28627 3.99864 5.1875 3.75 5.1875Z" fill="#F96021"/>
<path id="Vector_6" d="M13.125 9.875H1.875C1.62655 9.87438 1.38845 9.77541 1.21277 9.59973C1.03709 9.42405 0.938119 9.18595 0.9375 8.9375V3.3125C0.938119 3.06405 1.03709 2.82595 1.21277 2.65027C1.38845 2.47459 1.62655 2.37562 1.875 2.375H13.125C13.3735 2.37562 13.6115 2.47459 13.7872 2.65027C13.9629 2.82595 14.0619 3.06405 14.0625 3.3125V8.9375C14.0621 9.18603 13.9632 9.42427 13.7875 9.6C13.6118 9.77574 13.3735 9.87463 13.125 9.875ZM13.125 3.3125H1.875V8.9375H13.125V3.3125Z" fill="#F96021"/>
</g>
</svg>
