<svg width="20" height="20" viewBox="0 0 20 20" fill="none" xmlns="http://www.w3.org/2000/svg">
<g id="more-vertical" opacity="0.5">
<path id="Vector" d="M10.8334 9.99992C10.8334 9.53968 10.4603 9.16659 10.0001 9.16659C9.53984 9.16659 9.16675 9.53968 9.16675 9.99992C9.16675 10.4602 9.53984 10.8333 10.0001 10.8333C10.4603 10.8333 10.8334 10.4602 10.8334 9.99992Z" stroke="black" stroke-linecap="round" stroke-linejoin="round"/>
<path id="Vector_2" d="M4.99992 9.99992C4.99992 9.53968 4.62682 9.16659 4.16659 9.16659C3.70635 9.16659 3.33325 9.53968 3.33325 9.99992C3.33325 10.4602 3.70635 10.8333 4.16659 10.8333C4.62682 10.8333 4.99992 10.4602 4.99992 9.99992Z" stroke="black" stroke-linecap="round" stroke-linejoin="round"/>
<path id="Vector_3" d="M16.6667 9.99992C16.6667 9.53968 16.2936 9.16659 15.8333 9.16659C15.3731 9.16659 15 9.53968 15 9.99992C15 10.4602 15.3731 10.8333 15.8333 10.8333C16.2936 10.8333 16.6667 10.4602 16.6667 9.99992Z" stroke="black" stroke-linecap="round" stroke-linejoin="round"/>
</g>
</svg>
