<svg width="14" height="15" viewBox="0 0 14 15" fill="none" xmlns="http://www.w3.org/2000/svg">
<g clip-path="url(#clip0_350_2714)">
<path d="M8.77917 3.13924C9.34893 3.2504 9.87256 3.52906 10.283 3.93954C10.6935 4.35002 10.9722 4.87365 11.0833 5.44341M8.77917 0.805908C9.96291 0.937413 11.0668 1.46751 11.9095 2.30916C12.7522 3.15081 13.2837 4.254 13.4167 5.43757M12.8333 10.0926V11.8426C12.834 12.005 12.8007 12.1658 12.7356 12.3147C12.6705 12.4635 12.5751 12.5972 12.4554 12.707C12.3357 12.8168 12.1943 12.9004 12.0404 12.9525C11.8865 13.0045 11.7235 13.0239 11.5617 13.0092C9.76665 12.8142 8.04242 12.2008 6.5275 11.2184C5.11807 10.3228 3.92311 9.12784 3.0275 7.71841C2.04166 6.19661 1.42814 4.46399 1.23667 2.66091C1.22209 2.4996 1.24126 2.33702 1.29296 2.18352C1.34466 2.03003 1.42775 1.88898 1.53695 1.76935C1.64615 1.64973 1.77905 1.55416 1.92721 1.48871C2.07537 1.42327 2.23553 1.38939 2.3975 1.38924H4.1475C4.4306 1.38646 4.70505 1.4867 4.9197 1.6713C5.13434 1.8559 5.27455 2.11225 5.31417 2.39257C5.38803 2.95261 5.52501 3.5025 5.7225 4.03174C5.80099 4.24053 5.81797 4.46744 5.77145 4.68559C5.72492 4.90373 5.61684 5.10397 5.46 5.26257L4.71917 6.00341C5.54958 7.46381 6.75877 8.673 8.21917 9.50341L8.96 8.76257C9.1186 8.60574 9.31884 8.49765 9.53699 8.45113C9.75513 8.4046 9.98205 8.42159 10.1908 8.50007C10.7201 8.69756 11.27 8.83454 11.83 8.90841C12.1134 8.94838 12.3722 9.09111 12.5571 9.30945C12.7421 9.52778 12.8404 9.80649 12.8333 10.0926Z" stroke="#BCBBBB" stroke-linecap="round" stroke-linejoin="round"/>
</g>
<defs>
<clipPath id="clip0_350_2714">
<rect width="14" height="14" fill="white" transform="translate(0 0.222534)"/>
</clipPath>
</defs>
</svg>
