<svg width="32" height="32" viewBox="0 0 32 32" fill="none" xmlns="http://www.w3.org/2000/svg">
<rect width="32" height="32" rx="8" fill="#F5F5F5"/>
<path d="M9.58325 11.3333V14.8333H13.0833" stroke="#F96021" stroke-linecap="round" stroke-linejoin="round"/>
<path d="M11.0474 17.7499C11.4256 18.8235 12.1425 19.745 13.0901 20.3757C14.0376 21.0064 15.1644 21.3121 16.3008 21.2467C17.4371 21.1813 18.5214 20.7484 19.3903 20.0131C20.2592 19.2779 20.8657 18.2802 21.1182 17.1703C21.3708 16.0604 21.2558 14.8986 20.7906 13.8597C20.3254 12.8209 19.5352 11.9614 18.5391 11.4107C17.5429 10.86 16.3948 10.648 15.2676 10.8066C14.1405 10.9652 13.0955 11.4858 12.2899 12.2899L9.58325 14.8333" stroke="#F96021" stroke-linecap="round" stroke-linejoin="round"/>
</svg>
