<svg width="19" height="19" viewBox="0 0 19 19" fill="none" xmlns="http://www.w3.org/2000/svg">
<g id="share-2">
<path id="Vector" d="M13.8093 6.15137C15.052 6.15137 16.0593 5.14401 16.0593 3.90137C16.0593 2.65873 15.052 1.65137 13.8093 1.65137C12.5667 1.65137 11.5593 2.65873 11.5593 3.90137C11.5593 5.14401 12.5667 6.15137 13.8093 6.15137Z" stroke="#F96021" stroke-linecap="round" stroke-linejoin="round"/>
<path id="Vector_2" d="M4.80933 11.4014C6.05197 11.4014 7.05933 10.394 7.05933 9.15137C7.05933 7.90873 6.05197 6.90137 4.80933 6.90137C3.56669 6.90137 2.55933 7.90873 2.55933 9.15137C2.55933 10.394 3.56669 11.4014 4.80933 11.4014Z" stroke="#F96021" stroke-linecap="round" stroke-linejoin="round"/>
<path id="Vector_3" d="M13.8093 16.6514C15.052 16.6514 16.0593 15.644 16.0593 14.4014C16.0593 13.1587 15.052 12.1514 13.8093 12.1514C12.5667 12.1514 11.5593 13.1587 11.5593 14.4014C11.5593 15.644 12.5667 16.6514 13.8093 16.6514Z" stroke="#F96021" stroke-linecap="round" stroke-linejoin="round"/>
<path id="Vector_4" d="M6.75171 10.2839L11.8742 13.2689" stroke="#F96021" stroke-linecap="round" stroke-linejoin="round"/>
<path id="Vector_5" d="M11.8667 5.03394L6.75171 8.01894" stroke="#F96021" stroke-linecap="round" stroke-linejoin="round"/>
</g>
</svg>
