<svg width="14" height="15" viewBox="0 0 14 15" fill="none" xmlns="http://www.w3.org/2000/svg">
<g id="asterisk-line" clip-path="url(#clip0_350_3422)">
<path id="Vector" d="M12.0541 8.90617L9.73368 7.55566L11.9938 6.22835C12.2101 6.10929 12.3923 5.93671 12.5229 5.72713C12.6861 5.46189 12.7558 5.14955 12.7206 4.84008C12.6854 4.5306 12.5475 4.24186 12.3288 4.02002C12.1102 3.79818 11.8235 3.65606 11.5146 3.61638C11.2056 3.5767 10.8923 3.64176 10.6247 3.80114L8.39245 5.12381V2.45063C8.39245 2.08137 8.24576 1.72724 7.98466 1.46614C7.72355 1.20504 7.36942 1.05835 7.00017 1.05835C6.63091 1.05835 6.27678 1.20504 6.01567 1.46614C5.75457 1.72724 5.60788 2.08137 5.60788 2.45063V5.12381L3.35703 3.80114C3.1988 3.69446 3.02032 3.62144 2.83268 3.58662C2.64505 3.55181 2.45225 3.55594 2.26628 3.59876C2.08031 3.64158 1.90512 3.72217 1.7516 3.83554C1.59809 3.94891 1.46952 4.09263 1.37387 4.25777C1.27823 4.42291 1.21756 4.60596 1.19563 4.79553C1.17369 4.98511 1.19097 5.17717 1.24638 5.35979C1.30179 5.5424 1.39415 5.71168 1.51773 5.85711C1.64131 6.00253 1.79346 6.121 1.96475 6.20515L4.28522 7.55566L1.98795 8.88297C1.77163 9.00204 1.58946 9.17461 1.45889 9.38419C1.29786 9.64943 1.23005 9.96086 1.26622 10.269C1.30239 10.5772 1.44048 10.8645 1.65855 11.0852C1.87663 11.306 2.16219 11.4475 2.46991 11.4874C2.77762 11.5274 3.08985 11.4633 3.35703 11.3055L5.60788 9.98751V12.6143C5.59691 12.911 5.68106 13.2034 5.84805 13.4488C6.01503 13.6943 6.2561 13.88 6.53607 13.9787C6.7465 14.0531 6.97173 14.0758 7.19278 14.045C7.41383 14.0141 7.62421 13.9305 7.8062 13.8013C7.98819 13.6721 8.13644 13.501 8.23847 13.3025C8.3405 13.104 8.39331 12.8839 8.39245 12.6607V9.98751L10.6433 11.3102C10.8015 11.4169 10.98 11.4899 11.1676 11.5247C11.3553 11.5595 11.5481 11.5554 11.734 11.5126C11.92 11.4697 12.0952 11.3892 12.2487 11.2758C12.4022 11.1624 12.5308 11.0187 12.6265 10.8536C12.7221 10.6884 12.7828 10.5054 12.8047 10.3158C12.8266 10.1262 12.8094 9.93416 12.754 9.75154C12.6985 9.56892 12.6062 9.39964 12.4826 9.25422C12.359 9.10879 12.2069 8.99033 12.0356 8.90617H12.0541ZM11.7525 10.3402C11.7218 10.393 11.681 10.4392 11.6324 10.4762C11.5838 10.5132 11.5283 10.5402 11.4693 10.5557C11.4102 10.5713 11.3486 10.575 11.2881 10.5667C11.2276 10.5583 11.1694 10.5382 11.1167 10.5073L7.46426 8.36783V12.6607C7.46426 12.7838 7.41536 12.9018 7.32833 12.9889C7.2413 13.0759 7.12325 13.1248 7.00017 13.1248C6.87708 13.1248 6.75904 13.0759 6.672 12.9889C6.58497 12.9018 6.53607 12.7838 6.53607 12.6607V8.36783L2.88365 10.5073C2.77896 10.5546 2.66043 10.5614 2.55101 10.5264C2.44159 10.4914 2.34906 10.417 2.29131 10.3177C2.23356 10.2183 2.21471 10.1011 2.2384 9.98869C2.26209 9.87627 2.32664 9.77663 2.41956 9.70906L6.07198 7.55566L2.40564 5.40227C2.34646 5.37552 2.29356 5.33666 2.25035 5.28819C2.20713 5.23971 2.17458 5.18271 2.15478 5.12087C2.13497 5.05902 2.12837 4.99371 2.1354 4.92915C2.14242 4.8646 2.16292 4.80223 2.19556 4.7461C2.22819 4.68996 2.27225 4.64129 2.32488 4.60325C2.3775 4.5652 2.43753 4.53863 2.50107 4.52524C2.56461 4.51185 2.63026 4.51194 2.69376 4.52551C2.75726 4.53908 2.81721 4.56583 2.86973 4.60403L6.53607 6.7435V2.45063C6.53607 2.32755 6.58497 2.2095 6.672 2.12247C6.75904 2.03543 6.87708 1.98654 7.00017 1.98654C7.12325 1.98654 7.2413 2.03543 7.32833 2.12247C7.41536 2.2095 7.46426 2.32755 7.46426 2.45063V6.7435L11.1167 4.59939C11.2214 4.55207 11.3399 4.54527 11.4493 4.5803C11.5587 4.61533 11.6513 4.68971 11.709 4.78903C11.7668 4.88836 11.7856 5.00557 11.7619 5.11799C11.7382 5.23041 11.6737 5.33005 11.5808 5.39763L7.92835 7.55566L11.5947 9.70906C11.6985 9.77257 11.7732 9.87431 11.8027 9.99236C11.8322 10.1104 11.8142 10.2353 11.7525 10.3402Z" fill="#F96021"/>
</g>
<defs>
<clipPath id="clip0_350_3422">
<rect width="14" height="14" fill="white" transform="translate(0 0.558594)"/>
</clipPath>
</defs>
</svg>
