<svg width="53" height="53" viewBox="0 0 53 53" fill="none" xmlns="http://www.w3.org/2000/svg">
<g id="Academics">
<path id="Vector" d="M13.9754 33.0242C13.9754 32.9938 13.9822 32.9827 13.9853 32.9776C13.9911 32.9685 14.0031 32.9553 14.0232 32.9445C14.0433 32.9338 14.0611 32.9312 14.0719 32.9315C14.0778 32.9317 14.0908 32.9323 14.116 32.9493L25.2879 40.4562C26.2345 41.0922 27.4723 41.0903 28.4168 40.4513L39.4918 32.9596C39.5171 32.9425 39.5301 32.9419 39.536 32.9417C39.5468 32.9413 39.5645 32.9439 39.5847 32.9546C39.6049 32.9653 39.617 32.9786 39.6228 32.9877C39.6259 32.9927 39.6327 33.0038 39.6327 33.0344V39.5697C39.6327 39.5998 39.6176 39.628 39.5925 39.6448L26.899 48.1267C26.8687 48.1469 26.8292 48.147 26.7989 48.1268L26.05 49.2551L26.7989 48.1268L14.0158 39.642C13.9906 39.6253 13.9754 39.5971 13.9754 39.5668V33.0242ZM26.7995 6.67369C26.83 6.65331 26.8697 6.65335 26.9001 6.67379L47.6566 20.6297C47.6815 20.6464 47.6965 20.6745 47.6965 20.7046V38.4309C47.6965 38.4807 47.6561 38.5211 47.6062 38.5211H46.5106C46.4608 38.5211 46.4203 38.4807 46.4203 38.4309V25.3286C46.4203 23.0885 43.9195 21.7563 42.0604 23.006L26.9002 33.1967C26.8698 33.2171 26.8301 33.2172 26.7996 33.1968L7.10361 20.0102C7.08396 19.9971 7.07706 19.9864 7.07323 19.979C7.06802 19.9689 7.06355 19.9538 7.06355 19.9352C7.06355 19.9166 7.06802 19.9015 7.07323 19.8914C7.07706 19.884 7.08396 19.8733 7.10361 19.8602L26.7995 6.67369Z" stroke="#F96021" stroke-width="2.70833"/>
</g>
</svg>
