<svg width="171" height="80" viewBox="0 0 171 80" fill="none" xmlns="http://www.w3.org/2000/svg">
<g id="logo12.svg" clip-path="url(#clip0_420_7679)">
<path id="Vector" d="M158.14 0H12.1401C5.51272 0 0.140137 5.37258 0.140137 12V68C0.140137 74.6274 5.51272 80 12.1401 80H158.14C164.768 80 170.14 74.6274 170.14 68V12C170.14 5.37258 164.768 0 158.14 0Z" fill="white"/>
<path id="Vector_2" d="M54.3704 32.272C53.0459 31.3239 51.4413 30.8485 49.8142 30.922C47.1497 30.922 44.281 31.9433 41.2169 33.9594L41.137 34.0216L40.8261 34.217L40.5863 34.3769C39.9682 34.8011 39.3751 35.2608 38.81 35.7535C37.5133 37.0147 36.039 39.1018 36.1456 40.887C36.1523 41.2381 36.2352 41.5835 36.3885 41.8994C36.5419 42.2153 36.762 42.4942 37.0337 42.7166C37.5971 43.1357 38.2858 43.3517 38.9876 43.3294C40.5787 43.1907 42.1076 42.6464 43.4284 41.7485L43.6504 41.6064L44.2633 41.1979L44.4675 41.0558C46.109 39.8445 47.9001 38.8504 49.7964 38.0982C50.2278 37.9327 50.6845 37.8426 51.1464 37.8318C51.341 37.8324 51.5348 37.8562 51.7237 37.9028C52.0046 37.9536 52.2691 38.0714 52.4948 38.2461C52.7205 38.4208 52.9008 38.6473 53.0204 38.9064C53.2361 39.5087 53.323 40.1495 53.2756 40.7874C53.2281 41.4254 53.0474 42.0463 52.7451 42.61C51.7166 44.6727 50.2567 46.4901 48.4642 47.9389C47.5988 48.7009 46.6585 49.3734 45.6577 49.9462H45.5777C45.1628 50.1927 44.7292 50.4065 44.281 50.5856H44.2188C44.0973 50.6376 43.9728 50.6821 43.8458 50.7188C41.8919 51.2517 43.082 49.5198 43.082 49.5198C43.529 49.045 44.0067 48.6 44.5119 48.1876C44.7784 47.9478 45.0537 47.6903 45.329 47.406L45.3912 47.3439C45.6207 47.1676 45.8094 46.9438 45.9443 46.6878C46.0792 46.4318 46.1571 46.1496 46.1728 45.8607C46.1009 45.4436 45.8824 45.0659 45.5568 44.7956C45.2311 44.5253 44.8196 44.3802 44.3965 44.3863H44.3077C43.5316 44.4489 42.7964 44.7604 42.2116 45.2745C41.6621 45.7288 41.1858 46.265 40.7995 46.8643C40.2488 47.6903 39.183 49.8041 40.2488 51.4827C40.4783 51.8257 40.7953 52.1012 41.1669 52.2807C41.5385 52.4603 41.9513 52.5374 42.3626 52.504C43.1946 52.4677 44.0145 52.2906 44.7873 51.98C46 51.5151 47.1584 50.9195 48.2422 50.2037L48.5264 50.0261C49.7015 49.2878 50.8153 48.4562 51.8569 47.5393C54.0679 45.7589 55.728 43.3873 56.6441 40.7005C57.2119 39.096 57.2923 37.3592 56.875 35.7091C56.4548 34.3122 55.5715 33.0999 54.3704 32.272Z" fill="#E40200"/>
<path id="Vector_3" d="M132.529 49.7509C130.7 49.6088 130.327 48.8094 130.327 47.4683V30.1494L125.886 30.8954V47.1841C125.886 51.0387 127.982 52.6995 131.49 52.6995C132.057 52.6846 132.621 52.6252 133.178 52.5219V49.7598C132.962 49.7685 132.745 49.7655 132.529 49.7509Z" fill="#E40200"/>
<path id="Vector_4" d="M116.379 38.0981C118.333 38.0981 118.617 40.2208 118.617 41.5352H113.866C113.963 39.8389 114.638 38.0981 116.379 38.0981ZM117.33 49.7418C116.86 49.7711 116.39 49.6999 115.951 49.5329C115.511 49.366 115.112 49.1071 114.781 48.7737C113.99 47.8855 113.635 46.1536 113.733 44.2885H123.209V43.8533C123.129 37.6363 121.015 34.8208 116.379 34.8208C111.21 34.8208 109.194 39.5813 109.159 44.0487C109.107 45.4108 109.35 46.7679 109.873 48.0267C110.396 49.2855 111.185 50.416 112.187 51.3404C113.527 52.3762 115.184 52.916 116.877 52.868C117.936 52.8703 118.99 52.7147 120.003 52.4062C121.176 52.0372 122.289 51.4986 123.307 50.8075L122.063 48.2497C120.669 49.2074 119.021 49.727 117.33 49.7418Z" fill="#E40200"/>
<path id="Vector_5" d="M80.5776 52.5039H84.9739V34.9985L80.5776 35.7179V52.5039Z" fill="#E40200"/>
<path id="Vector_6" d="M104.709 30.167L100.206 30.8953V47.2639C100.206 50.932 102.347 52.6639 105.935 52.6639C106.498 52.6582 107.06 52.6047 107.614 52.504V49.7774C107.56 49.7774 107.223 49.7774 106.974 49.7774C105.082 49.7152 104.709 48.6672 104.709 47.4682V38.2403H107.614V35.0074H104.709V30.167Z" fill="#E40200"/>
<path id="Vector_7" d="M72.8187 49.1999C72.1268 49.6019 71.336 49.8019 70.5362 49.7772C68.7599 49.7772 67.9694 48.4184 68.0049 46.8286C68.0002 46.4383 68.0783 46.0515 68.2339 45.6936C68.3896 45.3357 68.6193 45.0148 68.908 44.7522C69.1967 44.4895 69.5377 44.291 69.9087 44.1697C70.2797 44.0485 70.6721 44.0072 71.0602 44.0487H72.8365L72.8187 49.1999ZM71.0424 34.6875C68.9728 34.7313 66.9429 35.2639 65.1185 36.2418L64.63 36.4994L65.8023 39.1638L66.4684 38.8441C67.7632 38.2119 69.1842 37.8809 70.625 37.876C72.2148 37.9382 72.872 38.6753 72.872 40.1941V41.0822H70.2164C66.0244 41.0822 63.4221 43.3026 63.351 46.7486C63.3631 47.5844 63.5435 48.4092 63.8816 49.1737C64.2197 49.9381 64.7084 50.6266 65.3186 51.1978C65.9289 51.7691 66.648 52.2114 67.4331 52.4984C68.2182 52.7854 69.0531 52.9111 69.8878 52.868C71.2411 52.9211 72.5914 52.7059 73.8612 52.2349C75.1309 51.7639 76.2949 51.0464 77.2861 50.1236V40.7358C77.2861 36.1796 74 34.6875 71.0069 34.6875H71.0424Z" fill="#E40200"/>
<path id="Vector_8" d="M82.8293 28.0001C82.4596 27.9977 82.093 28.0682 81.7505 28.2076C81.408 28.3469 81.0964 28.5523 80.8333 28.8121C80.5702 29.0719 80.3608 29.381 80.2172 29.7217C80.0736 30.0623 79.9984 30.428 79.9961 30.7977C79.9747 31.1778 80.031 31.5582 80.1617 31.9158C80.2924 32.2733 80.4947 32.6004 80.7561 32.877C81.0176 33.1537 81.3328 33.3741 81.6824 33.5247C82.032 33.6753 82.4087 33.753 82.7893 33.753C83.17 33.753 83.5467 33.6753 83.8963 33.5247C84.2459 33.3741 84.5611 33.1537 84.8225 32.877C85.084 32.6004 85.2863 32.2733 85.417 31.9158C85.5477 31.5582 85.604 31.1778 85.5826 30.7977C85.5881 30.4447 85.5235 30.0941 85.3923 29.7663C85.2612 29.4385 85.0662 29.14 84.8188 28.8882C84.5657 28.6118 84.2585 28.3903 83.9163 28.2375C83.574 28.0847 83.2041 28.0039 82.8293 28.0001Z" fill="#E40200"/>
<path id="Vector_9" d="M88.4917 38.1339V52.5219H92.9324V38.9777C93.7892 38.2899 94.8453 37.8974 95.9432 37.8586C96.5415 37.826 97.1411 37.889 97.7195 38.0451L98.9541 35.2652C98.0139 34.8911 97.0081 34.7099 95.9965 34.7323C94.5781 34.7481 93.1785 35.0586 91.8865 35.6442C90.5946 36.2298 89.4385 37.0777 88.4917 38.1339Z" fill="#E40200"/>
</g>
<defs>
<clipPath id="clip0_420_7679">
<rect width="170" height="80" fill="white" transform="translate(0.140137)"/>
</clipPath>
</defs>
</svg>
