<svg width="18" height="22" viewBox="0 0 18 22" fill="none" xmlns="http://www.w3.org/2000/svg">
<g id="SVG" clip-path="url(#clip0_484_425)">
<path id="Vector" d="M14.3388 11.1905C14.3596 9.64662 15.2259 8.18575 16.6001 7.37709C15.7331 6.192 14.2811 5.44062 12.7703 5.39538C11.159 5.23349 9.59692 6.31826 8.77582 6.31826C7.93883 6.31826 6.67462 5.41145 5.31327 5.43826C3.53882 5.49313 1.88457 6.45877 1.02126 7.94366C-0.834516 11.019 0.549728 15.5387 2.3274 18.0246C3.21681 19.2418 4.25628 20.6016 5.6164 20.5533C6.94736 20.5005 7.44446 19.741 9.05103 19.741C10.6427 19.741 11.1091 20.5533 12.4968 20.5227C13.925 20.5005 14.8248 19.3 15.683 18.0712C16.322 17.2039 16.8138 16.2453 17.14 15.2309C15.4616 14.5515 14.3408 12.9348 14.3388 11.1905Z" fill="#F96021"/>
<path id="Vector_2" d="M11.7176 3.76063C12.4964 2.86588 12.88 1.71582 12.7871 0.554688C11.5974 0.674288 10.4985 1.21852 9.70922 2.07895C8.93747 2.91963 8.53584 4.04946 8.61177 5.1662C9.80189 5.17793 10.9719 4.64845 11.7176 3.76063Z" fill="#F96021"/>
</g>
<defs>
<clipPath id="clip0_484_425">
<rect width="17" height="21" fill="white" transform="translate(0.140015 0.5)"/>
</clipPath>
</defs>
</svg>
