<svg width="52" height="53" viewBox="0 0 52 53" fill="none" xmlns="http://www.w3.org/2000/svg">
<g id="Banks &#38; Finance">
<path id="Vector" d="M21.125 20.1758C21.125 19.2783 21.8525 18.5508 22.75 18.5508H30.875C31.7725 18.5508 32.5 19.2783 32.5 20.1758C32.5 21.0732 31.7725 21.8008 30.875 21.8008H22.75C21.8525 21.8008 21.125 21.0732 21.125 20.1758Z" fill="#F96021"/>
<path id="Vector_2" d="M47.125 21.8008H43.8425C43.7957 20.5169 43.486 19.2563 42.9326 18.097C42.3792 16.9376 41.5938 15.904 40.625 15.0603V8.80078C40.625 8.499 40.541 8.20318 40.3823 7.94647C40.2237 7.68976 39.9966 7.4823 39.7267 7.34734C39.4568 7.21238 39.1546 7.15525 38.8541 7.18235C38.5535 7.20945 38.2664 7.31971 38.025 7.50078L31.9589 12.0508H24.375C15.4212 12.0508 8.99762 17.3174 8.2095 25.0508H8.125C7.69402 25.0508 7.2807 24.8796 6.97595 24.5748C6.67121 24.2701 6.5 23.8568 6.5 23.4258V20.1758H3.25V23.4258C3.25129 24.7183 3.76532 25.9575 4.67928 26.8715C5.59324 27.7855 6.83247 28.2995 8.125 28.3008H8.23875C8.47441 30.4316 9.16692 32.4865 10.269 34.3253C11.3711 36.1641 12.8569 37.7436 14.625 38.9559V44.5508C14.625 44.9818 14.7962 45.3951 15.101 45.6998C15.4057 46.0046 15.819 46.1758 16.25 46.1758H22.75C23.181 46.1758 23.5943 46.0046 23.899 45.6998C24.2038 45.3951 24.375 44.9818 24.375 44.5508V41.3008H29.25V44.5508C29.25 44.9818 29.4212 45.3951 29.726 45.6998C30.0307 46.0046 30.444 46.1758 30.875 46.1758H37.375C37.806 46.1758 38.2193 46.0046 38.524 45.6998C38.8288 45.3951 39 44.9818 39 44.5508V39.0859C40.1738 38.5294 41.2002 37.7044 41.996 36.6777C42.7918 35.651 43.3347 34.4513 43.5809 33.1758H47.125C47.556 33.1758 47.9693 33.0046 48.274 32.6998C48.5788 32.3951 48.75 31.9818 48.75 31.5508V23.4258C48.75 22.9948 48.5788 22.5815 48.274 22.2767C47.9693 21.972 47.556 21.8008 47.125 21.8008ZM45.5 29.9258H40.8265C40.3309 34.3994 39.4875 35.5889 35.75 36.9377V42.9258H32.5V38.0508H21.125V42.9258H17.875V37.04C15.9183 36.1091 14.2676 34.6397 13.1164 32.8041C11.9651 30.9684 11.361 28.8425 11.375 26.6758C11.375 18.8189 17.9042 15.3008 24.375 15.3008H33.0411L37.375 12.0508V16.5618C41.3042 19.5843 40.4836 21.739 40.6543 25.0508H45.5V29.9258Z" fill="#F96021"/>
</g>
</svg>
