<svg width="129" height="129" viewBox="0 0 129 129" fill="none" xmlns="http://www.w3.org/2000/svg">
<rect width="129" height="129" fill="#3C3C3C"/>
<g id="Frame 1159">
<g clip-path="url(#clip0_420_4776)">
<rect x="-225" y="-12255" width="1440" height="13495" rx="25" fill="white"/>
<g id="Frame 427319074">
<g id="Group 427319039">
<g id="Section">
<rect width="1024" height="637.91" transform="translate(-17 -39.9824)" fill="#052659"/>
<g id="div.jsx-2759891967">
<rect x="-17" y="-39.9824" width="1024" height="637.91" rx="25" fill="white"/>
<g id="span">
<rect width="1022" height="635.91" transform="translate(-16 -38.9824)" fill="#04265B"/>
</g>
<rect x="-16.5" y="-39.4824" width="1023" height="636.91" rx="24.5" stroke="black" stroke-opacity="0.1"/>
</g>
<g id="div.appdownload-container-data">
<g id="div.appdownload-container-data-ccicon">
<g id="Group120455.svg">
<g id="Group120455.svg_2" clip-path="url(#clip1_420_4776)">
<g id="Group" filter="url(#filter0_d_420_4776)">
<path id="Vector" d="M90.7885 15.1621H38.8911C28.9217 15.1621 20.8398 23.244 20.8398 33.2134V85.1108C20.8398 95.0803 28.9217 103.162 38.8911 103.162H90.7885C100.758 103.162 108.84 95.0803 108.84 85.1108V33.2134C108.84 23.244 100.758 15.1621 90.7885 15.1621Z" fill="white"/>
</g>
<g id="logo-vector">
<g id="Frame 59">
<g id="Group 8663">
<path id="Vector_2" d="M55.2048 44.0164C51.9887 43.9449 49.0041 45.6051 47.465 48.3583C47.2633 48.7184 45.3527 52.2795 47.1432 56.0921C48.9466 59.9319 52.9113 60.6355 53.3872 60.7113C56.6608 61.2328 59.3705 59.6326 60.8209 58.1652C61.3969 57.583 61.7527 57.043 61.8863 56.8315C63.1761 54.7956 63.0838 52.8667 63.1839 50.0528C63.2393 48.4841 63.3686 46.2517 63.7003 43.4956L55.2048 44.0164ZM56.8632 53.7097C56.8377 53.8583 56.7979 54.0026 56.7446 54.1426C56.6906 54.2833 56.6239 54.4169 56.5436 54.5441C56.4641 54.6712 56.3724 54.7891 56.2695 54.8977C56.1672 55.007 56.0542 55.1049 55.9328 55.1913C55.8106 55.2778 55.6814 55.3513 55.545 55.4121C55.4086 55.4735 55.268 55.5199 55.1224 55.5528C54.9768 55.5856 54.8297 55.6042 54.6806 55.6078C54.5314 55.6114 54.3837 55.5999 54.2367 55.5742C54.0897 55.5485 53.9469 55.5078 53.8077 55.4535C53.6685 55.3992 53.5364 55.332 53.4099 55.2513C53.2842 55.1706 53.167 55.0784 53.0591 54.9749C52.9518 54.8706 52.8545 54.757 52.7686 54.6341C52.6833 54.5112 52.6102 54.3805 52.5498 54.2426C52.4894 54.1055 52.4433 53.9633 52.4106 53.8161C52.3779 53.669 52.3594 53.5204 52.3566 53.3704C52.353 53.2196 52.3637 53.0703 52.3893 52.9218C52.4148 52.7739 52.4546 52.6296 52.5086 52.4888C52.5619 52.3488 52.6286 52.2145 52.7089 52.0881C52.7884 51.9609 52.8801 51.8423 52.9831 51.7338C53.086 51.6252 53.1983 51.5273 53.3204 51.4409C53.4419 51.3537 53.5712 51.2801 53.7075 51.2194C53.8439 51.1587 53.9852 51.1115 54.1301 51.0787C54.2757 51.0458 54.4235 51.028 54.5719 51.0244C54.7211 51.0208 54.8695 51.0315 55.0158 51.058C55.1629 51.0837 55.3063 51.1237 55.4448 51.178C55.5841 51.2323 55.7169 51.2994 55.8426 51.3801C55.9683 51.4609 56.0855 51.553 56.1935 51.6573C56.3014 51.7609 56.398 51.8745 56.484 51.9974C56.5692 52.1209 56.6424 52.251 56.7027 52.3888C56.7631 52.5267 56.81 52.6689 56.8419 52.8153C56.8746 52.9625 56.8931 53.1111 56.8966 53.2618C56.9002 53.4118 56.8888 53.5618 56.8632 53.7097Z" fill="#0B223D"/>
<path id="Vector_3" d="M83.2769 33.541C83.2446 33.0548 82.9007 28.9984 79.2144 26.8344C75.5539 24.6856 71.8072 26.2872 71.4288 26.4567C68.5259 27.7573 66.5878 30.6122 66.3662 33.8578L65.0676 42.3656C67.8626 42.2816 70.1129 42.3541 71.6914 42.441C74.523 42.5954 76.4496 42.8626 78.6093 41.7487C78.8338 41.633 79.4072 41.3242 80.0438 40.7971C81.6482 39.4691 83.5014 36.885 83.2769 33.541ZM77.5395 33.763C77.5273 33.9131 77.5007 34.061 77.459 34.2061C77.418 34.3512 77.3626 34.4905 77.2935 34.6248C77.2244 34.7591 77.1431 34.8848 77.0489 35.0033C76.9554 35.1218 76.8503 35.2295 76.7352 35.3272C76.6194 35.4249 76.4957 35.5104 76.3633 35.5836C76.2309 35.6569 76.0928 35.7172 75.9482 35.7632C75.8043 35.8091 75.6568 35.8414 75.5065 35.8587C75.3554 35.8759 75.205 35.8788 75.0539 35.8666C74.9029 35.8544 74.7539 35.8278 74.6086 35.7861C74.4626 35.7452 74.3223 35.6899 74.187 35.6217C74.0525 35.5527 73.9252 35.4716 73.8065 35.3782C73.6878 35.2841 73.5791 35.18 73.4806 35.0651C73.3827 34.9502 73.2964 34.8273 73.2223 34.6952C73.1489 34.5638 73.0885 34.4259 73.0417 34.2822C72.9957 34.1393 72.9633 33.9928 72.9453 33.8427C72.928 33.6926 72.9252 33.5432 72.9374 33.3924C72.9496 33.2423 72.9762 33.095 73.018 32.95C73.059 32.8049 73.1144 32.6648 73.1834 32.5312C73.2525 32.3969 73.3338 32.2705 73.428 32.152C73.5223 32.0342 73.6266 31.9265 73.7424 31.8288C73.8575 31.7312 73.9813 31.6457 74.1136 31.5717C74.246 31.4985 74.3842 31.4388 74.5288 31.3922C74.6726 31.3462 74.8201 31.3146 74.9712 31.2966C75.1216 31.2794 75.2719 31.2773 75.423 31.2895C75.5741 31.301 75.723 31.3282 75.869 31.3692C76.0144 31.4101 76.1546 31.4654 76.2899 31.5344C76.4244 31.6026 76.5518 31.6845 76.6705 31.7778C76.7892 31.8712 76.8978 31.9753 76.9964 32.0903C77.0942 32.2052 77.1805 32.3287 77.2546 32.4601C77.328 32.5923 77.3885 32.7295 77.4352 32.8731C77.482 33.0167 77.5136 33.1633 77.5316 33.3126C77.5489 33.4627 77.5518 33.6129 77.5395 33.763Z" fill="#0B223D"/>
<path id="Vector_4" d="M80.9867 48.9204C79.5483 46.0915 76.645 44.321 73.4596 44.2914L65.0674 43.4956C65.3114 46.2885 65.3698 48.5467 65.3769 50.1311C65.3888 52.9751 65.239 54.9195 66.4522 57.0162C66.5781 57.2333 66.9136 57.7896 67.4658 58.3956C68.8562 59.923 71.4888 61.625 74.7453 61.2022C75.2186 61.1409 79.1643 60.5557 81.0668 56.7369C82.9567 52.9448 81.1752 49.2898 80.9867 48.9204ZM76.2708 53.7046C76.2384 53.8525 76.1927 53.9968 76.1336 54.136C76.0746 54.2745 76.0021 54.4066 75.9177 54.5314C75.8326 54.6562 75.737 54.7709 75.6308 54.8762C75.5239 54.9809 75.4085 55.0747 75.284 55.1562C75.1595 55.2377 75.0287 55.3063 74.8909 55.3618C74.753 55.4166 74.6116 55.4578 74.4668 55.4845C74.3212 55.5104 74.1749 55.522 74.0272 55.5191C73.8795 55.5155 73.7332 55.4974 73.589 55.465C73.4455 55.4318 73.3055 55.3849 73.1705 55.3243C73.0355 55.263 72.9075 55.1886 72.7865 55.1013C72.6655 55.014 72.5537 54.9159 72.4517 54.8063C72.349 54.6966 72.2583 54.5776 72.1795 54.4491C72.1 54.3214 72.0332 54.1865 71.9798 54.0444C71.9263 53.903 71.8869 53.7572 71.8609 53.6079C71.8356 53.4578 71.8243 53.307 71.8271 53.1548C71.8306 53.0033 71.8475 52.8532 71.8799 52.7046C71.9115 52.556 71.9573 52.4124 72.017 52.2731C72.0761 52.1339 72.1479 52.0019 72.233 51.8778C72.3174 51.753 72.413 51.6382 72.5199 51.5329C72.6261 51.4276 72.7422 51.3345 72.8667 51.2522C72.9912 51.1707 73.122 51.1022 73.2598 51.0473C73.397 50.9918 73.5383 50.9514 73.6839 50.9247C73.8295 50.898 73.9758 50.8865 74.1235 50.8901C74.2712 50.893 74.4168 50.911 74.561 50.9442C74.7052 50.9766 74.8451 51.0235 74.9802 51.0849C75.1152 51.1462 75.2432 51.2205 75.3642 51.3071C75.4852 51.3944 75.597 51.4932 75.699 51.6029C75.801 51.7126 75.8917 51.8316 75.9712 51.9593C76.0507 52.0877 76.1168 52.2226 76.1709 52.364C76.2244 52.5062 76.2638 52.6512 76.2898 52.8013C76.3151 52.9506 76.3264 53.1014 76.3236 53.2536C76.32 53.4059 76.3025 53.5559 76.2708 53.7046Z" fill="#F96021"/>
<path id="Vector_5" d="M63.3919 36.1189C63.3792 33.3477 63.5297 31.4531 62.3165 29.4108C62.1906 29.1985 61.8551 28.6572 61.3029 28.066C59.9117 26.5784 57.2791 24.92 54.0227 25.332C53.5493 25.3917 49.6036 25.9619 47.701 29.6822C45.8111 33.3772 47.5934 36.9394 47.7812 37.2986C49.2202 40.0551 52.1229 41.781 55.3084 41.8091L63.7006 42.5845C63.4573 39.8632 63.3982 37.6635 63.3919 36.1189ZM56.8888 33.5515C56.8564 33.6957 56.8107 33.8363 56.7516 33.9712C56.6925 34.1069 56.6201 34.2356 56.5357 34.3572C56.4506 34.4781 56.3549 34.5906 56.2487 34.6925C56.1418 34.7952 56.0265 34.8866 55.902 34.966C55.7775 35.0454 55.6467 35.1122 55.5088 35.1664C55.371 35.2198 55.2296 35.2599 55.0847 35.2852C54.9391 35.3112 54.7928 35.3224 54.6451 35.3196C54.4974 35.3161 54.3511 35.2985 54.2069 35.2669C54.0627 35.2346 53.9235 35.1889 53.7884 35.1291C53.6534 35.07 53.5247 34.9976 53.4037 34.9126C53.2827 34.8275 53.1716 34.7319 53.0696 34.625C52.9669 34.5182 52.8762 34.4022 52.7974 34.2771C52.718 34.1526 52.6511 34.0212 52.5977 33.8827C52.5442 33.7449 52.5048 33.6029 52.4788 33.4573C52.4535 33.3111 52.4415 33.1642 52.4451 33.0159C52.4479 32.8682 52.4655 32.722 52.4978 32.5772C52.5295 32.4324 52.5752 32.2925 52.635 32.1568C52.694 32.0211 52.7658 31.8924 52.8509 31.7715C52.9353 31.6499 53.0309 31.5381 53.1378 31.4355C53.2441 31.3328 53.3601 31.2422 53.4846 31.162C53.6091 31.0826 53.7399 31.0158 53.8771 30.9624C54.0149 30.9082 54.1563 30.8689 54.3019 30.8428C54.4475 30.8168 54.5938 30.8056 54.7415 30.8091C54.8892 30.8119 55.0348 30.8295 55.1789 30.8618C55.3231 30.8935 55.4631 30.9392 55.5981 30.9989C55.7332 31.0587 55.8612 31.1304 55.9822 31.2154C56.1031 31.3005 56.215 31.3961 56.317 31.5037C56.4189 31.6105 56.5097 31.7265 56.5891 31.851C56.6686 31.9761 56.7347 32.1076 56.7882 32.2454C56.8423 32.3831 56.8817 32.5252 56.9071 32.6714C56.9331 32.8169 56.9443 32.9638 56.9415 33.1122C56.938 33.2605 56.9204 33.4067 56.8888 33.5515Z" fill="#F96021"/>
</g>
</g>
<g id="Group 1212405">
<path id="BookSpot" d="M36.3581 72.0602C36.9025 72.1575 37.3643 72.4442 37.7434 72.9206C38.1226 73.3969 38.3122 73.9365 38.3122 74.5392C38.3122 75.0545 38.1761 75.5211 37.9039 75.9391C37.6414 76.3474 37.2574 76.6731 36.7519 76.9161C36.2463 77.1495 35.6582 77.2661 34.9874 77.2661H30.9335V67.1314H34.7978C35.4881 67.1314 36.0811 67.2481 36.5769 67.4814C37.0727 67.7147 37.4469 68.0307 37.6997 68.4292C37.9525 68.8181 38.0788 69.2556 38.0788 69.7417C38.0788 70.3249 37.9233 70.811 37.6122 71.1999C37.3011 71.5887 36.8831 71.8755 36.3581 72.0602ZM32.5959 71.3894H34.652C35.1964 71.3894 35.6193 71.2679 35.9207 71.0249C36.2317 70.7721 36.3873 70.4124 36.3873 69.9458C36.3873 69.4889 36.2317 69.1341 35.9207 68.8813C35.6193 68.6188 35.1964 68.4876 34.652 68.4876H32.5959V71.3894ZM34.8416 75.91C35.4054 75.91 35.8477 75.7739 36.1686 75.5017C36.4894 75.2295 36.6498 74.8503 36.6498 74.3642C36.6498 73.8684 36.4796 73.4747 36.1394 73.1831C35.7991 72.8914 35.3471 72.7456 34.7832 72.7456H32.5959V75.91H34.8416ZM43.6038 77.3974C42.8455 77.3974 42.1602 77.2272 41.5477 76.887C40.9353 76.537 40.454 76.0509 40.1041 75.4287C39.7541 74.7968 39.5791 74.0677 39.5791 73.2414C39.5791 72.4248 39.759 71.7005 40.1186 71.0686C40.4783 70.4367 40.9693 69.9507 41.5915 69.6104C42.2136 69.2702 42.9087 69.1 43.6767 69.1C44.4447 69.1 45.1398 69.2702 45.762 69.6104C46.3842 69.9507 46.8751 70.4367 47.2348 71.0686C47.5945 71.7005 47.7744 72.4248 47.7744 73.2414C47.7744 74.058 47.5896 74.7823 47.2202 75.4142C46.8508 76.0461 46.3453 76.537 45.7037 76.887C45.0718 77.2272 44.3718 77.3974 43.6038 77.3974ZM43.6038 75.9537C44.0316 75.9537 44.4301 75.8516 44.7996 75.6475C45.1787 75.4433 45.4849 75.1371 45.7182 74.7288C45.9516 74.3205 46.0682 73.8247 46.0682 73.2414C46.0682 72.6581 45.9564 72.1672 45.7328 71.7686C45.5092 71.3603 45.2127 71.0541 44.8433 70.8499C44.4739 70.6458 44.0753 70.5437 43.6476 70.5437C43.2198 70.5437 42.8212 70.6458 42.4518 70.8499C42.0921 71.0541 41.8053 71.3603 41.5915 71.7686C41.3776 72.1672 41.2707 72.6581 41.2707 73.2414C41.2707 74.1066 41.4894 74.7774 41.9269 75.2538C42.374 75.7204 42.933 75.9537 43.6038 75.9537ZM52.9029 77.3974C52.1446 77.3974 51.4592 77.2272 50.8468 76.887C50.2343 76.537 49.7531 76.0509 49.4031 75.4287C49.0532 74.7968 48.8782 74.0677 48.8782 73.2414C48.8782 72.4248 49.058 71.7005 49.4177 71.0686C49.7774 70.4367 50.2683 69.9507 50.8905 69.6104C51.5127 69.2702 52.2078 69.1 52.9758 69.1C53.7438 69.1 54.4389 69.2702 55.0611 69.6104C55.6832 69.9507 56.1742 70.4367 56.5339 71.0686C56.8936 71.7005 57.0734 72.4248 57.0734 73.2414C57.0734 74.058 56.8887 74.7823 56.5193 75.4142C56.1499 76.0461 55.6443 76.537 55.0027 76.887C54.3708 77.2272 53.6709 77.3974 52.9029 77.3974ZM52.9029 75.9537C53.3306 75.9537 53.7292 75.8516 54.0986 75.6475C54.4778 75.4433 54.784 75.1371 55.0173 74.7288C55.2506 74.3205 55.3673 73.8247 55.3673 73.2414C55.3673 72.6581 55.2555 72.1672 55.0319 71.7686C54.8083 71.3603 54.5118 71.0541 54.1424 70.8499C53.773 70.6458 53.3744 70.5437 52.9466 70.5437C52.5189 70.5437 52.1203 70.6458 51.7509 70.8499C51.3912 71.0541 51.1044 71.3603 50.8905 71.7686C50.6766 72.1672 50.5697 72.6581 50.5697 73.2414C50.5697 74.1066 50.7884 74.7774 51.2259 75.2538C51.6731 75.7204 52.2321 75.9537 52.9029 75.9537ZM61.8957 73.256L65.5996 77.2661H63.3539L60.3791 73.8101V77.2661H58.7168V66.4752H60.3791V72.7456L63.2956 69.2313H65.5996L61.8957 73.256ZM70.1305 77.3682C69.45 77.3682 68.8375 77.2515 68.2931 77.0182C67.7487 76.7752 67.321 76.4349 67.0099 75.9975C66.6988 75.56 66.5432 75.0496 66.5432 74.4663H68.3223C68.3612 74.9038 68.5313 75.2635 68.8327 75.5454C69.1437 75.8273 69.5764 75.9683 70.1305 75.9683C70.7041 75.9683 71.1512 75.8322 71.4721 75.56C71.7929 75.2781 71.9533 74.9184 71.9533 74.4809C71.9533 74.1406 71.8512 73.8636 71.647 73.6497C71.4526 73.4358 71.2047 73.2706 70.9033 73.1539C70.6117 73.0372 70.2034 72.9109 69.6784 72.7748C69.0174 72.5998 68.4778 72.4248 68.0598 72.2498C67.6515 72.0651 67.3015 71.7832 67.0099 71.404C66.7182 71.0249 66.5724 70.5194 66.5724 69.8875C66.5724 69.3042 66.7182 68.7938 67.0099 68.3563C67.3015 67.9189 67.7098 67.5835 68.2348 67.3502C68.7597 67.1168 69.3673 67.0002 70.0576 67.0002C71.0394 67.0002 71.8415 67.2481 72.4637 67.7439C73.0956 68.23 73.4455 68.9007 73.5136 69.7562H71.6762C71.647 69.3868 71.4721 69.0709 71.1512 68.8084C70.8304 68.5459 70.4075 68.4147 69.8826 68.4147C69.4062 68.4147 69.0174 68.5362 68.716 68.7792C68.4146 69.0223 68.264 69.3722 68.264 69.8291C68.264 70.1402 68.3563 70.3979 68.541 70.602C68.7354 70.7964 68.9785 70.952 69.2701 71.0686C69.5618 71.1853 69.9604 71.3117 70.4659 71.4478C71.1367 71.6325 71.6811 71.8172 72.0991 72.0019C72.5268 72.1866 72.8865 72.4734 73.1782 72.8623C73.4796 73.2414 73.6302 73.7518 73.6302 74.3934C73.6302 74.9086 73.4893 75.3947 73.2073 75.8516C72.9351 76.3085 72.5317 76.678 71.997 76.9599C71.4721 77.2321 70.8499 77.3682 70.1305 77.3682ZM77.2542 70.4124C77.5361 70.043 77.9201 69.7319 78.4062 69.4792C78.8922 69.2264 79.4415 69.1 80.054 69.1C80.7539 69.1 81.3907 69.275 81.9642 69.625C82.5475 69.9652 83.0044 70.4465 83.335 71.0686C83.6655 71.6908 83.8308 72.4053 83.8308 73.2122C83.8308 74.0191 83.6655 74.7434 83.335 75.385C83.0044 76.0169 82.5475 76.5127 81.9642 76.8724C81.3907 77.2224 80.7539 77.3974 80.054 77.3974C79.4415 77.3974 78.8971 77.2758 78.4207 77.0328C77.9444 76.78 77.5555 76.4689 77.2542 76.0995V81.0867H75.5918V69.2313H77.2542V70.4124ZM82.1392 73.2122C82.1392 72.6581 82.0226 72.1818 81.7893 71.7832C81.5657 71.3749 81.2643 71.0686 80.8852 70.8645C80.5157 70.6506 80.1172 70.5437 79.6894 70.5437C79.2714 70.5437 78.8728 70.6506 78.4937 70.8645C78.1242 71.0784 77.8229 71.3894 77.5896 71.7978C77.366 72.2061 77.2542 72.6873 77.2542 73.2414C77.2542 73.7955 77.366 74.2816 77.5896 74.6996C77.8229 75.1079 78.1242 75.419 78.4937 75.6329C78.8728 75.8468 79.2714 75.9537 79.6894 75.9537C80.1172 75.9537 80.5157 75.8468 80.8852 75.6329C81.2643 75.4093 81.5657 75.0885 81.7893 74.6705C82.0226 74.2524 82.1392 73.7664 82.1392 73.2122ZM88.9599 77.3974C88.2016 77.3974 87.5162 77.2272 86.9038 76.887C86.2913 76.537 85.8101 76.0509 85.4601 75.4287C85.1101 74.7968 84.9352 74.0677 84.9352 73.2414C84.9352 72.4248 85.115 71.7005 85.4747 71.0686C85.8344 70.4367 86.3253 69.9507 86.9475 69.6104C87.5697 69.2702 88.2648 69.1 89.0328 69.1C89.8008 69.1 90.4959 69.2702 91.118 69.6104C91.7402 69.9507 92.2312 70.4367 92.5909 71.0686C92.9506 71.7005 93.1304 72.4248 93.1304 73.2414C93.1304 74.058 92.9457 74.7823 92.5763 75.4142C92.2069 76.0461 91.7013 76.537 91.0597 76.887C90.4278 77.2272 89.7279 77.3974 88.9599 77.3974ZM88.9599 75.9537C89.3876 75.9537 89.7862 75.8516 90.1556 75.6475C90.5348 75.4433 90.841 75.1371 91.0743 74.7288C91.3076 74.3205 91.4243 73.8247 91.4243 73.2414C91.4243 72.6581 91.3125 72.1672 91.0889 71.7686C90.8653 71.3603 90.5688 71.0541 90.1994 70.8499C89.8299 70.6458 89.4314 70.5437 89.0036 70.5437C88.5759 70.5437 88.1773 70.6458 87.8079 70.8499C87.4482 71.0541 87.1614 71.3603 86.9475 71.7686C86.7336 72.1672 86.6267 72.6581 86.6267 73.2414C86.6267 74.1066 86.8454 74.7774 87.2829 75.2538C87.7301 75.7204 88.2891 75.9537 88.9599 75.9537ZM96.7132 70.5874V75.035C96.7132 75.3364 96.7813 75.5551 96.9174 75.6912C97.0632 75.8176 97.3062 75.8808 97.6465 75.8808H98.6672V77.2661H97.3548C96.6063 77.2661 96.0327 77.0911 95.6341 76.7412C95.2355 76.3912 95.0362 75.8225 95.0362 75.035V70.5874H94.0884V69.2313H95.0362V67.2335H96.7132V69.2313H98.6672V70.5874H96.7132Z" fill="#F96021"/>
<path id="Business" d="M33.9294 85.6117C34.1726 85.6501 34.3934 85.7493 34.5918 85.9093C34.7966 86.0693 34.9566 86.2677 35.0718 86.5045C35.1934 86.7413 35.2542 86.9941 35.2542 87.2629C35.2542 87.6021 35.1678 87.9093 34.995 88.1845C34.8222 88.4533 34.5694 88.6677 34.2366 88.8277C33.9102 88.9813 33.523 89.0581 33.075 89.0581H30.579V82.3669H32.979C33.4334 82.3669 33.8206 82.4437 34.1406 82.5973C34.4606 82.7445 34.7006 82.9461 34.8606 83.2021C35.0206 83.4581 35.1006 83.7461 35.1006 84.0661C35.1006 84.4629 34.9918 84.7925 34.7742 85.0549C34.563 85.3109 34.2814 85.4965 33.9294 85.6117ZM31.4526 85.2565H32.9214C33.331 85.2565 33.6478 85.1605 33.8718 84.9685C34.0958 84.7765 34.2078 84.5109 34.2078 84.1717C34.2078 83.8325 34.0958 83.5669 33.8718 83.3749C33.6478 83.1829 33.3246 83.0869 32.9022 83.0869H31.4526V85.2565ZM32.9982 88.3381C33.4334 88.3381 33.7726 88.2357 34.0158 88.0309C34.259 87.8261 34.3806 87.5413 34.3806 87.1765C34.3806 86.8053 34.2526 86.5141 33.9966 86.3029C33.7406 86.0853 33.3982 85.9765 32.9694 85.9765H31.4526V88.3381H32.9982ZM41.1321 83.7973V89.0581H40.2585V88.2805C40.0921 88.5493 39.8585 88.7605 39.5577 88.9141C39.2633 89.0613 38.9369 89.1349 38.5785 89.1349C38.1689 89.1349 37.8009 89.0517 37.4745 88.8853C37.1481 88.7125 36.8889 88.4565 36.6969 88.1173C36.5113 87.7781 36.4185 87.3653 36.4185 86.8789V83.7973H37.2825V86.7637C37.2825 87.2821 37.4137 87.6821 37.6761 87.9637C37.9385 88.2389 38.2969 88.3765 38.7513 88.3765C39.2185 88.3765 39.5865 88.2325 39.8553 87.9445C40.1241 87.6565 40.2585 87.2373 40.2585 86.6869V83.7973H41.1321ZM44.4696 89.1445C44.0664 89.1445 43.7048 89.0773 43.3848 88.9429C43.0648 88.8021 42.812 88.6101 42.6264 88.3669C42.4408 88.1173 42.3384 87.8325 42.3192 87.5125H43.2216C43.2472 87.7749 43.3688 87.9893 43.5864 88.1557C43.8104 88.3221 44.1016 88.4053 44.46 88.4053C44.7928 88.4053 45.0552 88.3317 45.2472 88.1845C45.4392 88.0373 45.5352 87.8517 45.5352 87.6277C45.5352 87.3973 45.4328 87.2277 45.228 87.1189C45.0232 87.0037 44.7064 86.8917 44.2776 86.7829C43.8872 86.6805 43.5672 86.5781 43.3176 86.4757C43.0744 86.3669 42.8632 86.2101 42.684 86.0053C42.5112 85.7941 42.4248 85.5189 42.4248 85.1797C42.4248 84.9109 42.5048 84.6645 42.6648 84.4405C42.8248 84.2165 43.052 84.0405 43.3464 83.9125C43.6408 83.7781 43.9768 83.7109 44.3544 83.7109C44.9368 83.7109 45.4072 83.8581 45.7656 84.1525C46.124 84.4469 46.316 84.8501 46.3416 85.3621H45.468C45.4488 85.0869 45.3368 84.8661 45.132 84.6997C44.9336 84.5333 44.6648 84.4501 44.3256 84.4501C44.012 84.4501 43.7624 84.5173 43.5768 84.6517C43.3912 84.7861 43.2984 84.9621 43.2984 85.1797C43.2984 85.3525 43.3528 85.4965 43.4616 85.6117C43.5768 85.7205 43.7176 85.8101 43.884 85.8805C44.0568 85.9445 44.2936 86.0181 44.5944 86.1013C44.972 86.2037 45.2792 86.3061 45.516 86.4085C45.7528 86.5045 45.9544 86.6517 46.1208 86.8501C46.2936 87.0485 46.3832 87.3077 46.3896 87.6277C46.3896 87.9157 46.3096 88.1749 46.1496 88.4053C45.9896 88.6357 45.7624 88.8181 45.468 88.9525C45.18 89.0805 44.8472 89.1445 44.4696 89.1445ZM48.074 82.9429C47.9076 82.9429 47.7668 82.8853 47.6516 82.7701C47.5364 82.6549 47.4788 82.5141 47.4788 82.3477C47.4788 82.1813 47.5364 82.0405 47.6516 81.9253C47.7668 81.8101 47.9076 81.7525 48.074 81.7525C48.234 81.7525 48.3684 81.8101 48.4772 81.9253C48.5924 82.0405 48.65 82.1813 48.65 82.3477C48.65 82.5141 48.5924 82.6549 48.4772 82.7701C48.3684 82.8853 48.234 82.9429 48.074 82.9429ZM48.4964 83.7973V89.0581H47.6228V83.7973H48.4964ZM52.5485 83.7013C53.1885 83.7013 53.7069 83.8965 54.1037 84.2869C54.5005 84.6709 54.6989 85.2277 54.6989 85.9573V89.0581H53.8349V86.0821C53.8349 85.5573 53.7037 85.1573 53.4413 84.8821C53.1789 84.6005 52.8205 84.4597 52.3661 84.4597C51.9053 84.4597 51.5373 84.6037 51.2621 84.8917C50.9933 85.1797 50.8589 85.5989 50.8589 86.1493V89.0581H49.9853V83.7973H50.8589V84.5461C51.0317 84.2773 51.2653 84.0693 51.5597 83.9221C51.8605 83.7749 52.1901 83.7013 52.5485 83.7013ZM60.9259 86.2261C60.9259 86.3925 60.9163 86.5685 60.8971 86.7541H56.6923C56.7243 87.2725 56.9003 87.6789 57.2203 87.9733C57.5467 88.2613 57.9403 88.4053 58.4011 88.4053C58.7787 88.4053 59.0923 88.3189 59.3419 88.1461C59.5979 87.9669 59.7771 87.7301 59.8795 87.4357H60.8203C60.6795 87.9413 60.3979 88.3541 59.9755 88.6741C59.5531 88.9877 59.0283 89.1445 58.4011 89.1445C57.9019 89.1445 57.4539 89.0325 57.0571 88.8085C56.6667 88.5845 56.3595 88.2677 56.1355 87.8581C55.9115 87.4421 55.7995 86.9621 55.7995 86.4181C55.7995 85.8741 55.9083 85.3973 56.1259 84.9877C56.3435 84.5781 56.6475 84.2645 57.0379 84.0469C57.4347 83.8229 57.8891 83.7109 58.4011 83.7109C58.9003 83.7109 59.3419 83.8197 59.7259 84.0373C60.1099 84.2549 60.4043 84.5557 60.6091 84.9397C60.8203 85.3173 60.9259 85.7461 60.9259 86.2261ZM60.0235 86.0437C60.0235 85.7109 59.9499 85.4261 59.8027 85.1893C59.6555 84.9461 59.4539 84.7637 59.1979 84.6421C58.9483 84.5141 58.6699 84.4501 58.3627 84.4501C57.9211 84.4501 57.5435 84.5909 57.2299 84.8725C56.9227 85.1541 56.7467 85.5445 56.7019 86.0437H60.0235ZM63.9414 89.1445C63.5382 89.1445 63.1766 89.0773 62.8566 88.9429C62.5366 88.8021 62.2838 88.6101 62.0982 88.3669C61.9126 88.1173 61.8102 87.8325 61.791 87.5125H62.6934C62.719 87.7749 62.8406 87.9893 63.0582 88.1557C63.2822 88.3221 63.5734 88.4053 63.9318 88.4053C64.2646 88.4053 64.527 88.3317 64.719 88.1845C64.911 88.0373 65.007 87.8517 65.007 87.6277C65.007 87.3973 64.9046 87.2277 64.6998 87.1189C64.495 87.0037 64.1782 86.8917 63.7494 86.7829C63.359 86.6805 63.039 86.5781 62.7894 86.4757C62.5462 86.3669 62.335 86.2101 62.1558 86.0053C61.983 85.7941 61.8966 85.5189 61.8966 85.1797C61.8966 84.9109 61.9766 84.6645 62.1366 84.4405C62.2966 84.2165 62.5238 84.0405 62.8182 83.9125C63.1126 83.7781 63.4486 83.7109 63.8262 83.7109C64.4086 83.7109 64.879 83.8581 65.2374 84.1525C65.5958 84.4469 65.7878 84.8501 65.8134 85.3621H64.9398C64.9206 85.0869 64.8086 84.8661 64.6038 84.6997C64.4054 84.5333 64.1366 84.4501 63.7974 84.4501C63.4838 84.4501 63.2342 84.5173 63.0486 84.6517C62.863 84.7861 62.7702 84.9621 62.7702 85.1797C62.7702 85.3525 62.8246 85.4965 62.9334 85.6117C63.0486 85.7205 63.1894 85.8101 63.3558 85.8805C63.5286 85.9445 63.7654 86.0181 64.0662 86.1013C64.4438 86.2037 64.751 86.3061 64.9878 86.4085C65.2246 86.5045 65.4262 86.6517 65.5926 86.8501C65.7654 87.0485 65.855 87.3077 65.8614 87.6277C65.8614 87.9157 65.7814 88.1749 65.6214 88.4053C65.4614 88.6357 65.2342 88.8181 64.9398 88.9525C64.6518 89.0805 64.319 89.1445 63.9414 89.1445ZM68.9571 89.1445C68.5539 89.1445 68.1923 89.0773 67.8723 88.9429C67.5523 88.8021 67.2995 88.6101 67.1139 88.3669C66.9283 88.1173 66.8259 87.8325 66.8067 87.5125H67.7091C67.7347 87.7749 67.8563 87.9893 68.0739 88.1557C68.2979 88.3221 68.5891 88.4053 68.9475 88.4053C69.2803 88.4053 69.5427 88.3317 69.7347 88.1845C69.9267 88.0373 70.0227 87.8517 70.0227 87.6277C70.0227 87.3973 69.9203 87.2277 69.7155 87.1189C69.5107 87.0037 69.1939 86.8917 68.7651 86.7829C68.3747 86.6805 68.0547 86.5781 67.8051 86.4757C67.5619 86.3669 67.3507 86.2101 67.1715 86.0053C66.9987 85.7941 66.9123 85.5189 66.9123 85.1797C66.9123 84.9109 66.9923 84.6645 67.1523 84.4405C67.3123 84.2165 67.5395 84.0405 67.8339 83.9125C68.1283 83.7781 68.4643 83.7109 68.8419 83.7109C69.4243 83.7109 69.8947 83.8581 70.2531 84.1525C70.6115 84.4469 70.8035 84.8501 70.8291 85.3621H69.9555C69.9363 85.0869 69.8243 84.8661 69.6195 84.6997C69.4211 84.5333 69.1523 84.4501 68.8131 84.4501C68.4995 84.4501 68.2499 84.5173 68.0643 84.6517C67.8787 84.7861 67.7859 84.9621 67.7859 85.1797C67.7859 85.3525 67.8403 85.4965 67.9491 85.6117C68.0643 85.7205 68.2051 85.8101 68.3715 85.8805C68.5443 85.9445 68.7811 86.0181 69.0819 86.1013C69.4595 86.2037 69.7667 86.3061 70.0035 86.4085C70.2403 86.5045 70.4419 86.6517 70.6083 86.8501C70.7811 87.0485 70.8707 87.3077 70.8771 87.6277C70.8771 87.9157 70.7971 88.1749 70.6371 88.4053C70.4771 88.6357 70.2499 88.8181 69.9555 88.9525C69.6675 89.0805 69.3347 89.1445 68.9571 89.1445Z" fill="#969696"/>
</g>
</g>
</g>
</g>
</g>
</g>
</g>
</g>
</g>
</g>
</g>
<defs>
<filter id="filter0_d_420_4776" x="0.839844" y="0.162109" width="128" height="128" filterUnits="userSpaceOnUse" color-interpolation-filters="sRGB">
<feFlood flood-opacity="0" result="BackgroundImageFix"/>
<feColorMatrix in="SourceAlpha" type="matrix" values="0 0 0 0 0 0 0 0 0 0 0 0 0 0 0 0 0 0 127 0" result="hardAlpha"/>
<feOffset dy="5"/>
<feGaussianBlur stdDeviation="10"/>
<feColorMatrix type="matrix" values="0 0 0 0 0 0 0 0 0 0.160784 0 0 0 0 0.439216 0 0 0 0.1 0"/>
<feBlend mode="normal" in2="BackgroundImageFix" result="effect1_dropShadow_420_4776"/>
<feBlend mode="normal" in="SourceGraphic" in2="effect1_dropShadow_420_4776" result="shape"/>
</filter>
<clipPath id="clip0_420_4776">
<rect x="-225" y="-12255" width="1440" height="13495" rx="25" fill="white"/>
</clipPath>
<clipPath id="clip1_420_4776">
<rect width="128" height="129" fill="white" transform="translate(0.839844 0.107422)"/>
</clipPath>
</defs>
</svg>
