<svg width="24" height="25" viewBox="0 0 24 25" fill="none" xmlns="http://www.w3.org/2000/svg">
<g id="62efae03043a36444ffb4af6_check-circle.svg">
<path id="Vector" opacity="0.32" d="M12 1.84998C6.06294 1.84998 1.25 6.66292 1.25 12.6C1.25 18.5371 6.06294 23.35 12 23.35C17.9371 23.35 22.75 18.5371 22.75 12.6C22.75 6.66292 17.9371 1.84998 12 1.84998Z" fill="#F96021"/>
<path id="Vector_2" fill-rule="evenodd" clip-rule="evenodd" d="M17.0303 9.56964C17.3232 9.86253 17.3232 10.3374 17.0303 10.6303L11.5303 16.1303C11.3897 16.271 11.1989 16.35 11 16.35C10.8011 16.35 10.6103 16.271 10.4697 16.1303L7.96967 13.6303C7.67678 13.3374 7.67678 12.8626 7.96967 12.5697C8.26256 12.2768 8.73744 12.2768 9.03033 12.5697L11 14.5393L15.9697 9.56964C16.2626 9.27675 16.7374 9.27675 17.0303 9.56964Z" fill="#F96021"/>
</g>
</svg>
