<svg width="210" height="61" viewBox="0 0 210 61" fill="none" xmlns="http://www.w3.org/2000/svg">
<rect y="0.0175781" width="209.8" height="60" rx="10" fill="white"/>
<path d="M37.7329 23.5076C39.0649 23.5076 40.2289 23.7656 41.2249 24.2816C42.2329 24.7856 43.0069 25.5176 43.5469 26.4776C44.0989 27.4256 44.3749 28.5356 44.3749 29.8076C44.3749 31.0796 44.0989 32.1836 43.5469 33.1196C43.0069 34.0556 42.2329 34.7756 41.2249 35.2796C40.2289 35.7716 39.0649 36.0176 37.7329 36.0176H33.6469V23.5076H37.7329ZM37.7329 34.3436C39.1969 34.3436 40.3189 33.9476 41.0989 33.1556C41.8789 32.3636 42.2689 31.2476 42.2689 29.8076C42.2689 28.3556 41.8789 27.2216 41.0989 26.4056C40.3189 25.5896 39.1969 25.1816 37.7329 25.1816H35.6989V34.3436H37.7329ZM50.7106 36.1796C49.7746 36.1796 48.9286 35.9696 48.1726 35.5496C47.4166 35.1176 46.8226 34.5176 46.3906 33.7496C45.9586 32.9696 45.7426 32.0696 45.7426 31.0496C45.7426 30.0416 45.9646 29.1476 46.4086 28.3676C46.8526 27.5876 47.4586 26.9876 48.2266 26.5676C48.9946 26.1476 49.8526 25.9376 50.8006 25.9376C51.7486 25.9376 52.6066 26.1476 53.3746 26.5676C54.1426 26.9876 54.7486 27.5876 55.1926 28.3676C55.6366 29.1476 55.8586 30.0416 55.8586 31.0496C55.8586 32.0576 55.6306 32.9516 55.1746 33.7316C54.7186 34.5116 54.0946 35.1176 53.3026 35.5496C52.5226 35.9696 51.6586 36.1796 50.7106 36.1796ZM50.7106 34.3976C51.2386 34.3976 51.7306 34.2716 52.1866 34.0196C52.6546 33.7676 53.0326 33.3896 53.3206 32.8856C53.6086 32.3816 53.7526 31.7696 53.7526 31.0496C53.7526 30.3296 53.6146 29.7236 53.3386 29.2316C53.0626 28.7276 52.6966 28.3496 52.2406 28.0976C51.7846 27.8456 51.2926 27.7196 50.7646 27.7196C50.2366 27.7196 49.7446 27.8456 49.2886 28.0976C48.8446 28.3496 48.4906 28.7276 48.2266 29.2316C47.9626 29.7236 47.8306 30.3296 47.8306 31.0496C47.8306 32.1176 48.1006 32.9456 48.6406 33.5336C49.1926 34.1096 49.8826 34.3976 50.7106 34.3976ZM71.2071 26.0996L68.1291 36.0176H65.9691L63.9711 28.6916L61.9731 36.0176H59.8131L56.7171 26.0996H58.8051L60.8751 34.0736L62.9811 26.0996H65.1231L67.1391 34.0376L69.1911 26.0996H71.2071ZM77.7446 25.9376C78.5246 25.9376 79.2206 26.0996 79.8326 26.4236C80.4566 26.7476 80.9426 27.2276 81.2906 27.8636C81.6386 28.4996 81.8126 29.2676 81.8126 30.1676V36.0176H79.7786V30.4736C79.7786 29.5856 79.5566 28.9076 79.1126 28.4396C78.6686 27.9596 78.0626 27.7196 77.2946 27.7196C76.5266 27.7196 75.9146 27.9596 75.4586 28.4396C75.0146 28.9076 74.7926 29.5856 74.7926 30.4736V36.0176H72.7406V26.0996H74.7926V27.2336C75.1286 26.8256 75.5546 26.5076 76.0706 26.2796C76.5986 26.0516 77.1566 25.9376 77.7446 25.9376ZM86.4821 22.6976V36.0176H84.4301V22.6976H86.4821ZM93.4782 36.1796C92.5422 36.1796 91.6962 35.9696 90.9402 35.5496C90.1842 35.1176 89.5902 34.5176 89.1582 33.7496C88.7262 32.9696 88.5102 32.0696 88.5102 31.0496C88.5102 30.0416 88.7322 29.1476 89.1762 28.3676C89.6202 27.5876 90.2262 26.9876 90.9942 26.5676C91.7622 26.1476 92.6202 25.9376 93.5682 25.9376C94.5162 25.9376 95.3742 26.1476 96.1422 26.5676C96.9102 26.9876 97.5162 27.5876 97.9602 28.3676C98.4042 29.1476 98.6262 30.0416 98.6262 31.0496C98.6262 32.0576 98.3982 32.9516 97.9422 33.7316C97.4862 34.5116 96.8622 35.1176 96.0702 35.5496C95.2902 35.9696 94.4262 36.1796 93.4782 36.1796ZM93.4782 34.3976C94.0062 34.3976 94.4982 34.2716 94.9542 34.0196C95.4222 33.7676 95.8002 33.3896 96.0882 32.8856C96.3762 32.3816 96.5202 31.7696 96.5202 31.0496C96.5202 30.3296 96.3822 29.7236 96.1062 29.2316C95.8302 28.7276 95.4642 28.3496 95.0082 28.0976C94.5522 27.8456 94.0602 27.7196 93.5322 27.7196C93.0042 27.7196 92.5122 27.8456 92.0562 28.0976C91.6122 28.3496 91.2582 28.7276 90.9942 29.2316C90.7302 29.7236 90.5982 30.3296 90.5982 31.0496C90.5982 32.1176 90.8682 32.9456 91.4082 33.5336C91.9602 34.1096 92.6502 34.3976 93.4782 34.3976ZM99.9707 31.0136C99.9707 30.0176 100.175 29.1356 100.583 28.3676C101.003 27.5996 101.567 27.0056 102.275 26.5856C102.995 26.1536 103.787 25.9376 104.651 25.9376C105.431 25.9376 106.109 26.0936 106.685 26.4056C107.273 26.7056 107.741 27.0836 108.089 27.5396V26.0996H110.159V36.0176H108.089V34.5416C107.741 35.0096 107.267 35.3996 106.667 35.7116C106.067 36.0236 105.383 36.1796 104.615 36.1796C103.763 36.1796 102.983 35.9636 102.275 35.5316C101.567 35.0876 101.003 34.4756 100.583 33.6956C100.175 32.9036 99.9707 32.0096 99.9707 31.0136ZM108.089 31.0496C108.089 30.3656 107.945 29.7716 107.657 29.2676C107.381 28.7636 107.015 28.3796 106.559 28.1156C106.103 27.8516 105.611 27.7196 105.083 27.7196C104.555 27.7196 104.063 27.8516 103.607 28.1156C103.151 28.3676 102.779 28.7456 102.491 29.2496C102.215 29.7416 102.077 30.3296 102.077 31.0136C102.077 31.6976 102.215 32.2976 102.491 32.8136C102.779 33.3296 103.151 33.7256 103.607 34.0016C104.075 34.2656 104.567 34.3976 105.083 34.3976C105.611 34.3976 106.103 34.2656 106.559 34.0016C107.015 33.7376 107.381 33.3536 107.657 32.8496C107.945 32.3336 108.089 31.7336 108.089 31.0496ZM112.17 31.0136C112.17 30.0176 112.374 29.1356 112.782 28.3676C113.202 27.5996 113.766 27.0056 114.474 26.5856C115.194 26.1536 115.992 25.9376 116.868 25.9376C117.516 25.9376 118.152 26.0816 118.776 26.3696C119.412 26.6456 119.916 27.0176 120.288 27.4856V22.6976H122.358V36.0176H120.288V34.5236C119.952 35.0036 119.484 35.3996 118.884 35.7116C118.296 36.0236 117.618 36.1796 116.85 36.1796C115.986 36.1796 115.194 35.9636 114.474 35.5316C113.766 35.0876 113.202 34.4756 112.782 33.6956C112.374 32.9036 112.17 32.0096 112.17 31.0136ZM120.288 31.0496C120.288 30.3656 120.144 29.7716 119.856 29.2676C119.58 28.7636 119.214 28.3796 118.758 28.1156C118.302 27.8516 117.81 27.7196 117.282 27.7196C116.754 27.7196 116.262 27.8516 115.806 28.1156C115.35 28.3676 114.978 28.7456 114.69 29.2496C114.414 29.7416 114.276 30.3296 114.276 31.0136C114.276 31.6976 114.414 32.2976 114.69 32.8136C114.978 33.3296 115.35 33.7256 115.806 34.0016C116.274 34.2656 116.766 34.3976 117.282 34.3976C117.81 34.3976 118.302 34.2656 118.758 34.0016C119.214 33.7376 119.58 33.3536 119.856 32.8496C120.144 32.3336 120.288 31.7336 120.288 31.0496Z" fill="#0B223D"/>
<g clip-path="url(#clip0_484_711)">
<path d="M148.199 29.2081C148.22 27.6642 149.086 26.2033 150.46 25.3947C149.593 24.2096 148.141 23.4582 146.63 23.413C145.019 23.2511 143.457 24.3358 142.636 24.3358C141.799 24.3358 140.535 23.429 139.173 23.4558C137.399 23.5107 135.745 24.4763 134.881 25.9612C133.025 29.0366 134.41 33.5563 136.187 36.0422C137.077 37.2594 138.116 38.6192 139.476 38.5709C140.807 38.5181 141.304 37.7586 142.911 37.7586C144.503 37.7586 144.969 38.5709 146.357 38.5403C147.785 38.5181 148.685 37.3176 149.543 36.0888C150.182 35.2215 150.674 34.2629 151 33.2485C149.322 32.5691 148.201 30.9524 148.199 29.2081Z" fill="#0B223D"/>
<path d="M145.578 21.7782C146.356 20.8835 146.74 19.7334 146.647 18.5723C145.457 18.6919 144.358 19.2361 143.569 20.0965C142.797 20.9372 142.396 22.067 142.472 23.1838C143.662 23.1955 144.832 22.666 145.578 21.7782Z" fill="#0B223D"/>
</g>
<g clip-path="url(#clip1_484_711)">
<path d="M162.781 21.3075L176.429 29.0621C177.406 29.6178 177.406 30.5269 176.429 31.0832L173.004 33.0287L172.958 33.0544L162.781 38.8372C162.182 39.1774 161.649 39.1354 161.327 38.7938C161.124 38.5783 161.003 38.2445 161.003 37.8106V22.3334C161.003 21.9002 161.124 21.5657 161.327 21.3501L161.341 21.3368C161.347 21.3303 161.354 21.3239 161.36 21.3176L161.379 21.2991C161.705 21.0054 162.213 20.9845 162.781 21.3075Z" fill="#0B223D"/>
<path d="M161.327 38.7936L175.96 24.159M161.327 21.3506L175.961 35.9838" stroke="white" stroke-width="0.727846" stroke-linecap="square"/>
</g>
<defs>
<clipPath id="clip0_484_711">
<rect width="17" height="21" fill="white" transform="translate(134 18.5176)"/>
</clipPath>
<clipPath id="clip1_484_711">
<rect width="17" height="20" fill="white" transform="translate(160.8 20.0176)"/>
</clipPath>
</defs>
</svg>
