<svg width="71" height="71" viewBox="0 0 71 71" fill="none" xmlns="http://www.w3.org/2000/svg">
<path d="M60.2779 29.7231L60.2664 29.7288C60.077 29.8235 59.7723 30.0258 59.4076 30.2848C59.0329 30.551 58.5678 30.8969 58.0452 31.2972C56.9996 32.0982 55.716 33.1232 54.452 34.1765L54.4477 34.1801L54.4477 34.1802C52.473 35.8673 51.3532 36.7892 50.7009 37.218C50.5408 37.3233 50.4211 37.3904 50.3328 37.4306C50.331 37.4315 50.3292 37.4323 50.3274 37.4331C50.2076 37.1694 49.9975 36.8845 49.7768 36.6291C49.5157 36.3271 49.1997 36.0211 48.8906 35.7738L48.8887 35.7723C48.6439 35.5785 48.4011 35.4112 48.0996 35.2799C47.7991 35.1489 47.4618 35.0629 47.0331 35.0042C46.1934 34.8892 44.9262 34.8711 42.7624 34.8711C38.9115 34.8711 37.6502 34.7161 36.1326 34.1379L36.1303 34.1371C34.5237 33.5346 32.8891 33.3445 29.2602 33.2681L29.2584 33.2681C27.0394 33.2301 25.7939 33.228 24.9037 33.3588C23.9718 33.4957 23.4243 33.779 22.6091 34.2449L22.6012 34.2494L22.5935 34.2542C21.6337 34.8541 19.6583 36.5238 18.1986 37.9835L18.1962 37.9859C17.5553 38.6364 17.077 39.1193 16.7063 39.4706C16.3291 39.8282 16.0921 40.0211 15.9304 40.1156C15.8585 40.1576 15.8201 40.1687 15.8065 40.1715C15.7752 40.1578 15.7111 40.1106 15.5306 39.9301C14.9948 39.3943 14.3076 39.123 13.6167 39.4096C12.6797 39.7889 10.8196 40.828 9.19134 41.8183C8.37123 42.3171 7.5973 42.8112 7.01363 43.214C6.72268 43.4148 6.47254 43.5974 6.28581 43.7493C6.19301 43.8247 6.10866 43.8984 6.04069 43.9671C5.9883 44.0201 5.89168 44.1218 5.8419 44.2512L5.83813 44.261L5.83482 44.2709C5.80501 44.3604 5.80647 44.44 5.80881 44.4802C5.81153 44.5272 5.81907 44.5708 5.82666 44.6061C5.84185 44.677 5.86573 44.7537 5.89234 44.8294C5.94629 44.9828 6.02795 45.1782 6.12969 45.4041C6.33428 45.8583 6.63596 46.4707 7.00424 47.1875C7.74173 48.623 8.75721 50.4983 9.82504 52.4094C10.893 54.3208 12.0155 56.2717 12.9674 57.8585C13.9085 59.4271 14.7068 60.6809 15.1189 61.1657C15.1193 61.1661 15.1196 61.1665 15.12 61.1669L15.9196 62.1189L16.1666 62.413L16.5007 62.2235L20.4703 59.9715L20.4738 59.9695L20.4738 59.9695C21.5711 59.3342 22.5854 58.6873 23.339 58.1525C23.7147 57.8858 24.0331 57.6418 24.2664 57.4374C24.3824 57.3358 24.4858 57.2367 24.5666 57.1438C24.631 57.0699 24.7402 56.9358 24.7772 56.7693C24.8047 56.6455 24.7827 56.5291 24.7719 56.4765C24.7574 56.4059 24.7349 56.3302 24.7093 56.2546C24.6578 56.1022 24.5804 55.912 24.4839 55.694C24.29 55.2557 24.0036 54.6714 23.6488 53.9856C22.9384 52.6129 21.9424 50.8125 20.8329 48.9187C20.8325 48.918 20.8321 48.9173 20.8317 48.9166L17.0421 42.2849L19.4184 39.9775L60.2779 29.7231ZM60.2779 29.7231L60.2897 29.718M60.2779 29.7231L60.2897 29.718M49.9382 37.6991L50.3674 37.543C50.3745 37.551 50.3784 37.5569 50.3798 37.5592C50.3786 37.5569 50.3754 37.5505 50.3709 37.5386L54.7475 34.5311C50.8161 37.89 50.1672 38.3098 49.9382 37.6991ZM49.9382 37.6991C49.7855 37.2793 49.1748 36.5922 48.6022 36.1342M49.9382 37.6991L48.6022 36.1342M48.6022 36.1342C47.6862 35.409 47.1137 35.3326 42.7624 35.3326C38.9073 35.3326 37.5714 35.18 35.9683 34.5692L48.6022 36.1342ZM60.2897 29.718C60.3442 29.6944 60.3972 29.6714 60.4487 29.649C61.0247 29.3987 61.4235 29.2253 61.8423 29.2081C62.0808 29.1983 62.3083 29.2374 62.5599 29.3034C62.7824 29.3618 63.0477 29.4481 63.3733 29.5541C63.4076 29.5652 63.4426 29.5766 63.4782 29.5882L63.4783 29.588L63.4908 29.5925C65.3642 30.2616 66.2358 32.3292 65.6895 34.3464L65.6884 34.3502C65.6385 34.5285 65.5316 34.7415 65.4047 34.9622C65.2725 35.192 65.0986 35.4635 64.8915 35.7678C64.477 36.3769 63.9165 37.1362 63.2585 37.9893C61.9417 39.6967 60.2214 41.7973 58.4673 43.8573C56.7132 45.9173 54.9212 47.9415 53.4604 49.4958C52.7305 50.2724 52.0794 50.9358 51.5549 51.429C51.293 51.6753 51.058 51.8835 50.8576 52.0435C50.669 52.1941 50.477 52.3301 50.3065 52.4004C49.7216 52.6471 48.7317 52.7797 46.958 52.8601C45.157 52.9417 42.4753 52.9703 38.4493 52.9703C33.6142 52.9703 31.008 52.9896 29.4807 53.0886C28.7181 53.138 28.2492 53.2061 27.9174 53.2933C27.6002 53.3766 27.3981 53.4799 27.1704 53.6231C26.8322 53.8417 26.4919 54.0289 26.1993 54.148C26.0541 54.2072 25.9041 54.2565 25.7626 54.2798C25.6426 54.2995 25.4285 54.3188 25.2343 54.2023L25.2276 54.1982L25.221 54.194C24.9912 54.0453 24.8003 53.8341 24.7289 53.5497C24.6581 53.2676 24.7251 52.9937 24.8478 52.7583C25.0823 52.3083 25.5888 51.8631 26.2516 51.4342L26.2515 51.4341L26.2598 51.429C26.5895 51.2254 26.8908 51.0463 27.3229 50.9117C27.7464 50.7798 28.2743 50.6967 29.0653 50.6409C30.6414 50.5297 33.3825 50.5204 38.6783 50.5204C44.0532 50.5204 46.7486 50.5201 48.225 50.4119C48.9633 50.3579 49.3503 50.2791 49.5997 50.1817C49.8303 50.0916 49.9655 49.9785 50.1982 49.7644L50.1982 49.7644L50.2053 49.758C50.6638 49.3535 51.7103 48.2044 53.0511 46.6598C54.3815 45.127 55.9773 43.2335 57.5216 41.3651C59.0659 39.4967 60.5567 37.6558 61.6771 36.2285C62.2377 35.5144 62.7034 34.9066 63.0361 34.4518C63.2028 34.2239 63.3332 34.0385 63.4246 33.8992C63.4705 33.8293 63.5037 33.7753 63.526 33.7359C63.5354 33.7193 63.5411 33.7082 63.5444 33.7017C63.8534 32.4517 62.7607 31.3685 61.5088 31.6943C61.5059 31.6953 61.458 31.713 61.3466 31.7768C61.2422 31.8366 61.1083 31.9213 60.946 32.0307C60.6221 32.2492 60.2042 32.5535 59.7173 32.9234C58.7445 33.6623 57.5131 34.6501 56.2398 35.7069C53.6874 37.8251 51.001 40.1915 49.8959 41.3708C49.512 41.7946 49.0517 42.2044 48.6161 42.5299C48.1931 42.8459 47.7456 43.1187 47.3931 43.2194L47.3817 43.2227L47.3701 43.2253C47.2012 43.2643 46.9136 43.2893 46.5782 43.308C46.2286 43.3275 45.7871 43.342 45.2856 43.3516C44.282 43.3708 43.0265 43.3708 41.763 43.3516L41.7607 43.3516C39.8772 43.3135 38.7005 43.2564 37.9916 43.1458C37.6444 43.0916 37.352 43.017 37.1378 42.8895C37.0235 42.8214 36.915 42.7288 36.8372 42.6009C36.7574 42.4696 36.7281 42.3314 36.7281 42.2031C36.7281 42.0625 36.7654 41.9158 36.8584 41.7818C36.9468 41.6546 37.0659 41.5668 37.1856 41.5038C37.4131 41.3838 37.73 41.3087 38.124 41.2503C38.9272 41.1313 40.271 41.0546 42.4408 40.9784L42.4419 40.9784C44.7803 40.9017 46.0838 40.8352 46.8651 40.7119C47.2522 40.6507 47.4765 40.5804 47.6221 40.5069C47.753 40.4409 47.8373 40.3641 47.9273 40.2472C48.2366 39.8222 48.3655 39.3988 48.351 39.0093C48.3364 38.6204 48.1775 38.2256 47.8415 37.8576L47.8415 37.8577L47.835 37.8504C47.7381 37.7396 47.6451 37.6648 47.5065 37.6032C47.3564 37.5365 47.134 37.4771 46.7664 37.432C46.0229 37.3408 44.8146 37.3209 42.686 37.3209C40.5912 37.3209 39.284 37.2929 38.2966 37.1695C37.287 37.0433 36.6122 36.8176 35.778 36.4402L35.778 36.4402M60.2897 29.718L35.778 36.4402M35.778 36.4402L35.7742 36.4384M35.778 36.4402L35.7742 36.4384M35.7742 36.4384C34.31 35.7599 33.487 35.6415 29.3247 35.6033M35.7742 36.4384L29.3247 35.6033M29.3247 35.6033H29.3197C26.4976 35.6033 25.2318 35.6033 24.0682 36.1132C22.8895 36.6297 21.7953 37.6779 19.419 39.9769L29.3247 35.6033ZM18.4697 49.4203L18.4697 49.4204L18.4671 49.4158C17.3422 47.433 16.2753 45.5945 15.4569 44.2241C15.0474 43.5386 14.7017 42.9726 14.4426 42.5652C14.3128 42.3611 14.207 42.2002 14.127 42.0853C14.0869 42.0276 14.0558 41.9851 14.033 41.9561C14.0236 41.944 14.0173 41.9365 14.0139 41.9324L14.0116 41.9305C14.0068 41.9304 14.001 41.9305 13.994 41.9307C13.9123 41.9338 13.7608 41.9656 13.5067 42.0681C13.003 42.2713 12.2408 42.6911 11.0952 43.3975L11.0953 43.3975L11.0878 43.402C10.2561 43.8934 9.5143 44.3726 8.98916 44.7491C8.73436 44.9317 8.53945 45.0838 8.41172 45.1974C8.47081 45.3116 8.55142 45.4627 8.65164 45.6472C8.87719 46.0625 9.19662 46.6372 9.58005 47.3194C10.3466 48.6834 11.3657 50.4712 12.3934 52.2597C13.4212 54.0481 14.457 55.8361 15.2571 57.2003C15.6572 57.8826 15.9977 58.4577 16.2484 58.8735C16.3582 59.0556 16.45 59.2057 16.5216 59.3203C16.6681 59.2658 16.8639 59.1841 17.1001 59.0787C17.6419 58.8371 18.3614 58.4869 19.1064 58.1049C19.8508 57.7232 20.6148 57.3128 21.2453 56.9516C21.6868 56.6986 22.0435 56.4806 22.2823 56.3181C22.2484 56.2466 22.2073 56.1625 22.1591 56.066C21.9728 55.6928 21.6917 55.1576 21.3349 54.4986C20.6218 53.1818 19.6127 51.3825 18.4697 49.4203ZM8.31341 44.9978C8.31354 44.9982 8.31372 44.9986 8.31397 44.9992L8.31252 44.9955C8.31251 44.9955 8.31279 44.9963 8.31341 44.9978ZM16.3146 59.387C16.3132 59.3872 16.3124 59.3873 16.3124 59.3874L16.3146 59.387ZM22.391 56.5655C22.3915 56.5675 22.3917 56.5678 22.3912 56.5661L22.391 56.5655Z" fill="#F96021" stroke="#F96021" stroke-width="0.923077"/>
<path d="M52.8115 18.6962L52.0696 19.422L52.8115 20.1478L54.9113 22.202L54.9199 22.2103L54.9286 22.2184C54.938 22.2272 54.9443 22.2341 54.9483 22.2388C54.9481 22.2469 54.947 22.2606 54.9434 22.2805C54.936 22.3015 54.9296 22.3139 54.9262 22.3199C54.9199 22.3226 54.9079 22.3273 54.8882 22.3322L54.8833 22.3335L52.0227 23.0638L51.0113 23.322L51.2974 24.3259L52.1038 27.1561L52.1038 27.1561L52.1058 27.163C52.1086 27.1725 52.1106 27.1805 52.1121 27.1871C52.1081 27.1912 52.1033 27.196 52.0976 27.2014L52.0728 27.2245L52.0497 27.2493C52.0443 27.255 52.0396 27.2598 52.0354 27.2637C52.0288 27.2623 52.0208 27.2603 52.0113 27.2575L52.0113 27.2575L52.0044 27.2555L49.1742 26.4491L48.1703 26.163L47.9121 27.1744L47.1817 30.035L47.1805 30.0399C47.1756 30.0596 47.1709 30.0716 47.1682 30.0779C47.1646 30.08 47.1587 30.0831 47.15 30.0868C47.1384 30.0883 47.1283 30.0895 47.1197 30.0904C47.1069 30.0918 47.0995 30.0923 47.0967 30.0924C47.0881 30.0923 47.0816 30.0919 47.077 30.0914C47.0766 30.091 47.0762 30.0905 47.0758 30.0901L47.0633 30.0763L47.0503 30.063L44.9961 27.9632L44.2703 27.2213L43.5445 27.9632L41.4903 30.063L41.482 30.0716L41.4738 30.0803C41.4651 30.0897 41.4582 30.096 41.4535 30.1C41.444 30.0997 41.4267 30.0983 41.4008 30.0929C41.3883 30.0891 41.3792 30.0856 41.3728 30.0829C41.3698 30.0751 41.3657 30.0629 41.3615 30.0456L41.3615 30.0456L41.3588 30.035L40.6285 27.1744L40.3702 26.163L39.3664 26.4491L36.5362 27.2555L36.5362 27.2555L36.5293 27.2575C36.5198 27.2603 36.5118 27.2623 36.5052 27.2638C36.501 27.2598 36.4963 27.255 36.4909 27.2493L36.4677 27.2245L36.443 27.2014C36.4373 27.196 36.4325 27.1912 36.4285 27.1871C36.43 27.1805 36.432 27.1725 36.4348 27.163L36.4348 27.163L36.4368 27.1561L37.2432 24.3259L37.5293 23.322L36.5179 23.0638L33.6573 22.3335L33.6573 22.3334L33.6524 22.3322C33.6327 22.3273 33.6206 22.3226 33.6144 22.3199C33.611 22.3139 33.6046 22.3015 33.5972 22.2805C33.5936 22.2606 33.5925 22.2469 33.5923 22.2388C33.5963 22.2341 33.6026 22.2272 33.612 22.2184L33.6207 22.2103L33.6292 22.202L35.729 20.1478L36.471 19.422L35.729 18.6962L33.6292 16.642L33.6207 16.6337L33.612 16.6255C33.6026 16.6168 33.5963 16.6099 33.5923 16.6052C33.5925 16.5971 33.5936 16.5834 33.5972 16.5635C33.6046 16.5425 33.611 16.5301 33.6144 16.5241C33.6206 16.5213 33.6327 16.5167 33.6524 16.5118L33.6524 16.5118L33.6573 16.5105L36.5179 15.7802L37.5293 15.5219L37.2432 14.5181L36.4368 11.6879L36.4368 11.6879L36.4348 11.681C36.432 11.6715 36.43 11.6635 36.4285 11.6569C36.4325 11.6527 36.4373 11.648 36.443 11.6426L36.4677 11.6194L36.4909 11.5947C36.4963 11.589 36.501 11.5842 36.5052 11.5802C36.5118 11.5817 36.5198 11.5837 36.5293 11.5865L36.5292 11.5865L36.5362 11.5885L39.3664 12.3949L40.3702 12.681L40.6285 11.6696L41.3588 8.80899L41.3589 8.80901L41.3615 8.79841C41.3638 8.78891 41.366 8.78111 41.368 8.77483C41.3743 8.77282 41.3821 8.77057 41.3916 8.76826L41.4141 8.76278L41.4362 8.75629C41.4457 8.75353 41.4537 8.75152 41.4603 8.75006C41.4645 8.75401 41.4692 8.7588 41.4746 8.76456L41.4811 8.7715L41.4878 8.77832L43.5419 10.8933L44.2703 11.6433L44.9987 10.8933L47.0528 8.77832L47.0545 8.77661C47.0653 8.76543 47.0738 8.75791 47.0798 8.75307C47.0894 8.75415 47.1047 8.75666 47.1264 8.76249L47.1377 8.7655L47.149 8.76826C47.1585 8.77057 47.1663 8.77282 47.1725 8.77483C47.1745 8.78111 47.1768 8.78891 47.1791 8.79841L47.1791 8.79842L47.1818 8.80899L47.9121 11.6696L48.1703 12.681L49.1742 12.3949L52.0044 11.5885L52.0044 11.5885L52.0113 11.5865C52.0208 11.5837 52.0288 11.5817 52.0354 11.5802C52.0395 11.5842 52.0443 11.589 52.0497 11.5947L52.0728 11.6194L52.0976 11.6426C52.1033 11.648 52.1081 11.6527 52.1121 11.6569C52.1106 11.6635 52.1086 11.6715 52.1058 11.681L52.1058 11.681L52.1038 11.6879L51.2974 14.5181L51.0113 15.5219L52.0227 15.7802L54.8833 16.5105L54.8882 16.5118C54.9079 16.5167 54.9199 16.5213 54.9262 16.5241C54.9296 16.5301 54.936 16.5425 54.9434 16.5635C54.947 16.5834 54.9481 16.5971 54.9483 16.6052C54.9443 16.6099 54.938 16.6168 54.9286 16.6255L54.9199 16.6337L54.9113 16.642L52.8115 18.6962Z" stroke="#F96021" stroke-width="2.03077"/>
</svg>
