<svg width="92" height="93" viewBox="0 0 92 93" fill="none" xmlns="http://www.w3.org/2000/svg">
<g id="Icon/Feather Icon">
<path id="Vector" d="M72.8333 12H19.1667C14.9325 12 11.5 15.4325 11.5 19.6667V73.3333C11.5 77.5675 14.9325 81 19.1667 81H72.8333C77.0675 81 80.5 77.5675 80.5 73.3333V19.6667C80.5 15.4325 77.0675 12 72.8333 12Z" stroke="black" stroke-width="3" stroke-linecap="round" stroke-linejoin="round"/>
<path id="Vector_2" d="M32.5833 38.8335C35.759 38.8335 38.3333 36.2591 38.3333 33.0835C38.3333 29.9079 35.759 27.3335 32.5833 27.3335C29.4077 27.3335 26.8333 29.9079 26.8333 33.0835C26.8333 36.2591 29.4077 38.8335 32.5833 38.8335Z" stroke="black" stroke-width="3" stroke-linecap="round" stroke-linejoin="round"/>
<path id="Vector_3" d="M80.5 58.0002L61.3333 38.8335L19.1667 81.0002" stroke="black" stroke-width="3" stroke-linecap="round" stroke-linejoin="round"/>
</g>
</svg>
