<svg width="19" height="23" viewBox="0 0 19 23" fill="none" xmlns="http://www.w3.org/2000/svg">
<path id="Vector" d="M0.25 13.6C0.25 18.6 4.27944 22.6 9.25 22.6C14.2206 22.6 18.25 18.6 18.25 13.6C18.25 6.55232 12.7312 2.57068 10.3368 1.17486C10.0355 0.999202 9.8848 0.911372 9.7183 0.931392C9.5848 0.947432 9.4364 1.03868 9.3619 1.1505C9.2688 1.29009 9.2795 1.46946 9.3009 1.82821C9.4971 5.12072 10.0352 11.6 6.67857 11.6C4.52186 11.6 4.17403 9.88036 4.11793 7.16241C4.10825 6.69361 4.10342 6.45921 3.97461 6.31986C3.87106 6.20784 3.6874 6.14265 3.53639 6.16432C3.34856 6.19129 3.21098 6.35371 2.93582 6.67857C1.80088 8.01847 0.25 10.4295 0.25 13.6Z" fill="white"/>
</svg>
