<svg width="171" height="80" viewBox="0 0 171 80" fill="none" xmlns="http://www.w3.org/2000/svg">
<g clip-path="url(#clip0_420_7660)">
<path d="M158.14 0H12.1401C5.51272 0 0.140137 5.37258 0.140137 12V68C0.140137 74.6274 5.51272 80 12.1401 80H158.14C164.768 80 170.14 74.6274 170.14 68V12C170.14 5.37258 164.768 0 158.14 0Z" fill="white"/>
<path d="M142.115 30.2065C142.102 30.164 142.089 30.1215 142.072 30.0791C132.007 30.0833 121.947 30.0791 111.886 30.0833C111.861 30.113 111.844 30.1428 111.84 30.181C111.84 37.9856 111.84 45.7858 111.835 53.5904C111.899 54.0067 112.128 54.3848 112.434 54.6695C112.447 54.6738 112.477 54.6779 112.49 54.6822C112.647 54.8478 112.872 54.9287 113.084 55.0051C113.242 54.9966 113.395 55.0646 113.552 55.0476H126.042C126.161 55.0433 126.285 55.0646 126.399 55.0179C126.404 55.001 126.408 54.9712 126.412 54.9542C126.416 54.9329 126.42 54.8862 126.425 54.8607C126.692 53.3653 126.952 51.8655 127.236 50.3701L127.262 50.1789C126.106 50.1746 124.946 50.1789 123.791 50.1746C123.51 50.1661 123.222 50.1746 122.941 50.1405C122.461 50.1193 121.977 50.1363 121.497 50.0896C120.902 50.0896 120.311 50.0343 119.716 50.0343C119.249 49.9876 118.778 50.0046 118.306 49.9834C118 49.9452 117.686 49.9621 117.376 49.9494C116.87 49.8942 116.356 49.9324 115.85 49.8772C115.315 49.8815 114.78 49.8347 114.244 49.8219C114.249 49.8177 114.253 49.8007 114.253 49.7964C114.431 49.8007 114.606 49.788 114.784 49.7837C115.179 49.7327 115.579 49.7667 115.974 49.7114C116.386 49.7114 116.794 49.6562 117.206 49.6562C117.571 49.6052 117.941 49.635 118.306 49.584C118.735 49.584 119.156 49.5288 119.585 49.5245C119.937 49.4778 120.294 49.5033 120.647 49.4565C121.059 49.4608 121.467 49.397 121.879 49.4013C122.283 49.3545 122.695 49.3672 123.098 49.3247C123.06 49.1677 123.03 49.0104 122.996 48.8532C122.967 48.7555 122.848 48.7767 122.771 48.7639C121.849 48.6321 120.932 48.5006 120.014 48.3731C120.073 48.3263 120.154 48.3475 120.222 48.3391C120.936 48.2838 121.645 48.2201 122.359 48.1691C122.521 48.1607 122.678 48.1309 122.839 48.1267C122.767 47.9058 122.725 47.6636 122.627 47.4597C121.102 47.226 119.576 47.0178 118.055 46.7671C118.451 46.7034 118.85 46.6737 119.245 46.6312L119.279 46.6184C120.541 46.4866 121.807 46.3379 123.069 46.2148C124.67 46.2064 126.268 46.2105 127.869 46.2148C127.92 46.2064 128.01 46.2317 128.018 46.1595C128.15 45.4713 128.277 44.7831 128.409 44.0948C128.592 43.1389 128.881 42.1957 129.327 41.3248C130.028 39.9228 131.137 38.7332 132.487 37.943C133.749 37.2037 135.211 36.8469 136.664 36.7789C137.135 36.7364 137.611 36.7492 138.079 36.8086C138.384 36.8809 138.699 36.9658 138.941 37.174C139.141 37.3354 139.26 37.5734 139.349 37.8113C139.544 38.3763 139.655 38.9626 139.748 39.5532C139.753 39.7911 139.795 40.0588 139.668 40.2754C139.549 40.4879 139.311 40.5898 139.086 40.6535C138.266 40.866 137.407 40.6662 136.587 40.866C135.912 41.0104 135.283 41.3842 134.854 41.9239C134.348 42.5526 134.081 43.3342 133.932 44.1161C133.817 44.8128 133.673 45.5096 133.558 46.2106C134.365 46.2149 135.177 46.2063 135.988 46.2149C136.311 46.2149 136.643 46.3933 136.774 46.6991C136.944 47.0901 136.906 47.5319 136.851 47.944C136.783 48.4071 136.672 48.8659 136.464 49.2907C136.29 49.6519 136.001 49.9833 135.606 50.1108C135.402 50.1915 135.181 50.1745 134.964 50.1745C134.251 50.1745 133.537 50.1829 132.823 50.1745C132.708 50.6971 132.632 51.2324 132.53 51.7634C132.343 52.7958 132.16 53.8324 131.973 54.8691C131.969 54.9031 131.965 54.9753 131.965 55.0135C132.301 55.0305 132.636 55.0136 132.972 55.022C135.462 55.022 137.955 55.0177 140.449 55.022C140.717 55.0305 140.989 54.9668 141.223 54.8351C141.363 54.7841 141.448 54.6609 141.571 54.593C141.69 54.525 141.724 54.3849 141.826 54.2956C141.936 54.1001 142.051 53.8963 142.059 53.6667C142.072 53.6667 142.106 53.6625 142.123 53.6583C142.11 45.8411 142.123 38.0238 142.115 30.2065Z" fill="url(#paint0_linear_420_7660)" stroke="#FCD109" stroke-width="0.00399361"/>
<path d="M115.797 25.0655C116.158 24.9508 116.536 25.0272 116.906 25.0018C123.843 25.006 130.781 25.0018 137.719 25.0018C138.131 24.9848 138.492 25.2184 138.875 25.3374C139.18 25.4606 139.499 25.5583 139.805 25.69C139.869 25.7155 139.915 25.7707 139.962 25.8175C139.958 26.3783 139.962 26.9433 139.962 27.5084C139.966 27.6571 139.941 27.81 139.992 27.9545C140.081 27.9672 140.128 28.0352 140.187 28.0904C140.468 28.2179 140.706 28.4261 140.961 28.596C141.343 28.8679 141.751 29.1058 142.125 29.3862C142.142 29.4967 142.129 29.6114 142.095 29.7134C142.057 29.8323 142.082 29.9598 142.069 30.0787C132.005 30.083 121.944 30.0787 111.884 30.083C111.862 29.9428 111.901 29.8026 111.841 29.6709C111.833 29.5604 111.794 29.416 111.901 29.3395C112.325 29.0421 112.776 28.7744 113.192 28.4601C113.451 28.2944 113.702 28.1244 113.953 27.9545C114.004 27.8695 113.987 27.7633 113.987 27.6698C113.987 27.0538 113.987 26.4378 113.991 25.8217C114.135 25.6348 114.386 25.6135 114.586 25.5201C114.989 25.3671 115.397 25.2184 115.797 25.0655ZM115.822 25.1377C115.278 25.3459 114.73 25.5456 114.186 25.7537C114.114 25.7665 114.076 25.8302 114.038 25.8854C114.042 25.9194 114.046 25.9789 114.046 26.0129C114.042 26.5227 114.046 27.0325 114.042 27.5424C114.046 27.6698 114.029 27.7973 114.076 27.912C114.021 27.9672 113.961 28.0225 113.893 28.0649C113.277 28.4643 112.682 28.8976 112.066 29.2928C111.96 29.3565 111.841 29.4415 111.875 29.5817C111.854 29.6581 111.892 29.7219 111.973 29.7006C113.307 29.6921 114.637 29.7091 115.971 29.6879C117.955 29.6879 119.935 29.6921 121.919 29.6879L121.948 29.6751C122.038 29.6964 122.127 29.6879 122.22 29.6879C125.815 29.6879 129.409 29.6921 133.007 29.6879C134.137 29.6921 135.272 29.6879 136.406 29.6879C138.275 29.6879 140.149 29.7049 142.018 29.6964C142.074 29.6836 142.091 29.6454 142.069 29.5774C142.065 29.5094 142.091 29.416 142.018 29.3735C141.721 29.2333 141.466 29.0166 141.181 28.8467C141.08 28.7617 140.948 28.715 140.871 28.6003C140.578 28.4346 140.306 28.2306 140.017 28.0479C139.962 28.014 139.92 27.9587 139.873 27.912C139.898 27.8228 139.907 27.7251 139.907 27.6316C139.903 27.092 139.907 26.5525 139.903 26.0129C139.915 25.9279 139.911 25.8302 139.835 25.775C139.325 25.5923 138.819 25.3969 138.314 25.2099C138.156 25.1335 137.982 25.091 137.812 25.0655H116.098C116.005 25.0697 115.916 25.1165 115.822 25.1377Z" fill="#F8F3B5" stroke="#F8F3B5" stroke-width="0.00399361"/>
<path d="M114.047 26.0127C114.421 26.1699 114.82 26.2592 115.198 26.4121C115.402 26.4928 115.466 26.7137 115.555 26.8922C115.466 26.9814 115.359 27.0536 115.253 27.1216C114.862 27.385 114.463 27.6399 114.076 27.9118C114.03 27.7971 114.047 27.6697 114.042 27.5422C114.047 27.0324 114.042 26.5226 114.047 26.0127ZM138.752 26.4121C139.13 26.2634 139.525 26.1614 139.903 26.0127C139.907 26.5523 139.903 27.0919 139.907 27.6314C139.907 27.7249 139.899 27.8226 139.873 27.9118C139.542 27.6824 139.206 27.4657 138.875 27.2406C138.714 27.1216 138.535 27.0324 138.391 26.8879C138.48 26.7095 138.548 26.4928 138.752 26.4121Z" fill="#F7B402" stroke="#F7B402" stroke-width="0.00399361"/>
<path d="M120.53 26.5864C120.997 26.476 121.52 26.8923 121.482 27.3809C121.486 27.861 120.98 28.2519 120.517 28.1414C120.33 28.0777 120.152 27.98 120.037 27.8143C119.889 27.5891 119.855 27.2874 119.974 27.041C120.059 26.8031 120.288 26.6417 120.53 26.5864ZM132.651 26.8541C132.847 26.6374 133.157 26.5142 133.446 26.5907C133.662 26.6544 133.875 26.7946 133.968 27.007C134.155 27.3724 134.011 27.8652 133.645 28.0564C133.322 28.2349 132.915 28.1499 132.668 27.8907C132.418 27.6061 132.4 27.1387 132.651 26.8541Z" fill="#BDA727" stroke="#BDA727" stroke-width="0.00399361"/>
<path d="M115.254 27.1219C115.36 27.0539 115.466 26.9817 115.556 26.8924L115.585 26.9222C115.615 27.1431 115.594 27.3683 115.602 27.5892C115.59 28.252 115.615 28.919 115.585 29.5817C114.349 29.5817 113.113 29.5732 111.876 29.5817C111.842 29.4415 111.961 29.3566 112.068 29.2928C112.684 28.8977 113.278 28.4644 113.894 28.065C113.962 28.0225 114.022 27.9673 114.077 27.9121C114.464 27.6402 114.863 27.3853 115.254 27.1219ZM138.349 27.0369C138.349 26.9817 138.362 26.9349 138.391 26.8882C138.536 27.0326 138.714 27.1219 138.876 27.2408C139.207 27.466 139.543 27.6827 139.874 27.9121C139.921 27.9588 139.963 28.014 140.018 28.048C140.307 28.2307 140.579 28.4346 140.872 28.6003C140.949 28.715 141.081 28.7618 141.183 28.8468C141.467 29.0167 141.722 29.2334 142.02 29.3736C142.092 29.4161 142.066 29.5095 142.071 29.5775C140.834 29.5817 139.602 29.5732 138.366 29.5817C138.345 29.4118 138.357 29.2419 138.353 29.0762C138.353 28.3964 138.345 27.7166 138.349 27.0369Z" fill="#F7E62D" stroke="#F7E62D" stroke-width="0.00399361"/>
<path d="M142.071 29.5778C140.834 29.5821 139.602 29.5736 138.366 29.5821C138.345 29.4121 138.357 29.2422 138.353 29.0765C138.353 28.3967 138.345 27.717 138.349 27.0372C138.349 26.982 138.362 26.9352 138.391 26.8885C138.481 26.7101 138.549 26.4934 138.752 26.4127C139.131 26.264 139.526 26.162 139.904 26.0133C139.917 25.9283 139.912 25.8306 139.836 25.7754C139.326 25.5927 138.821 25.3973 138.315 25.2103C138.158 25.1339 137.984 25.0914 137.814 25.0659H116.099C116.006 25.0701 115.917 25.1169 115.823 25.1381C115.279 25.3463 114.731 25.546 114.188 25.7541C114.115 25.7669 114.077 25.8306 114.039 25.8858C114.043 25.9198 114.047 25.9793 114.047 26.0133C114.421 26.1705 114.82 26.2597 115.199 26.4127C115.403 26.4934 115.466 26.7143 115.556 26.8927L115.585 26.9225C115.615 27.1434 115.594 27.3686 115.602 27.5895C115.589 28.2523 115.615 28.9193 115.585 29.5821C114.349 29.5821 113.113 29.5736 111.876 29.5821C111.855 29.6585 111.893 29.7223 111.974 29.701C113.308 29.6925 114.638 29.7095 115.972 29.6883C117.956 29.6883 119.936 29.6925 121.92 29.6883L121.95 29.6755C122.039 29.6968 122.128 29.6883 122.221 29.6883C125.816 29.6883 129.41 29.6925 133.008 29.6883C134.139 29.6925 135.273 29.6883 136.407 29.6883C138.277 29.6883 140.15 29.7053 142.02 29.6968C142.075 29.684 142.092 29.6458 142.071 29.5778ZM119.974 27.0414C120.059 26.8035 120.288 26.6421 120.531 26.5868C120.998 26.4764 121.521 26.8927 121.482 27.3813C121.487 27.8614 120.981 28.2523 120.518 28.1418C120.331 28.0781 120.152 27.9804 120.038 27.8147C119.889 27.5895 119.855 27.2879 119.974 27.0414ZM132.652 26.8545C132.847 26.6378 133.157 26.5146 133.446 26.5911C133.663 26.6548 133.875 26.795 133.969 27.0074C134.156 27.3728 134.011 27.8657 133.646 28.0568C133.323 28.2353 132.915 28.1503 132.669 27.8911C132.418 27.6065 132.401 27.1392 132.652 26.8545Z" fill="url(#paint1_radial_420_7660)" stroke="#FCD109" stroke-width="0.00399361"/>
<path d="M133.734 31.4447C133.794 31.4574 133.425 31.0901 133.497 31.0731C133.565 31.0816 133.823 30.8815 134.134 31.0448C134.446 31.208 134.369 31.59 134.333 31.7316C134.291 31.9002 134.184 32.0078 134.099 32.0928C134.052 32.131 133.947 32.1905 133.884 32.1862C133.922 31.978 133.799 31.9441 133.79 31.7316L133.734 31.4447Z" fill="url(#paint2_linear_420_7660)" stroke="#FCD109" stroke-width="0.00399361"/>
<path d="M120.152 31.675C120.143 31.8874 120.02 31.9214 120.058 32.1296C119.994 32.1339 119.89 32.0744 119.843 32.0361C119.758 31.9512 119.651 31.8436 119.609 31.675C119.573 31.5334 119.496 31.1514 119.807 30.9882C120.119 30.8249 120.377 31.0249 120.445 31.0165C120.517 31.0335 120.148 31.4008 120.207 31.3881L120.152 31.675Z" fill="url(#paint3_linear_420_7660)" stroke="#FCD109" stroke-width="0.00399361"/>
<path d="M133.18 34.1663C133.244 34.1108 133.287 34.1108 133.372 34.1108C132.862 35.2154 132.267 36.32 131.373 37.1801C131.277 37.2654 131.176 37.3446 131.07 37.417C130.968 37.4919 130.868 37.5622 130.768 37.6338C130.67 37.7016 130.573 37.7699 130.479 37.841C130.236 37.9727 130.024 38.1555 129.756 38.2362C129.268 38.4698 128.741 38.627 128.21 38.7375C128.002 38.7715 127.789 38.8224 127.577 38.8267C127.313 38.9032 127.033 38.8479 126.765 38.8649C126.617 38.8904 126.485 38.8055 126.341 38.8224C126.215 38.8047 126.09 38.7835 125.966 38.7587C125.84 38.7329 125.715 38.7032 125.59 38.6695C123.643 38.0619 121.731 36.5749 121.174 34.5639C121.149 34.4285 121.136 34.291 121.136 34.1533C121.196 34.2722 121.257 34.3903 121.321 34.5074C122.113 36.2351 123.685 37.5946 125.542 38.0045C125.693 38.0733 125.856 38.0492 126.001 38.1087C126.132 38.1087 126.26 38.1044 126.387 38.1469C126.825 38.1553 127.263 38.1511 127.7 38.1511C127.759 38.1554 127.815 38.1256 127.874 38.1129C128.604 38.0882 129.318 37.8893 129.984 37.5876C130.117 37.5273 130.248 37.4628 130.377 37.3949C130.489 37.3355 130.6 37.2712 130.707 37.2021C130.812 37.1342 130.914 37.062 131.013 36.9856C131.8 36.3625 132.48 35.5553 132.941 34.627C133.029 34.46 133.109 34.3053 133.18 34.1663Z" fill="#BDA727" stroke="#BDA727" stroke-width="0.00399361"/>
<path d="M132.488 37.9426C133.75 37.2033 135.211 36.8465 136.664 36.7785C137.136 36.736 137.612 36.7487 138.079 36.8082C138.385 36.8804 138.699 36.9654 138.942 37.1736C138.818 37.1821 138.699 37.1269 138.576 37.1099C138.228 37.0419 137.867 37.0674 137.514 37.0589C136.49 37.0589 135.458 37.1396 134.468 37.42C133.95 37.5772 133.431 37.7599 132.96 38.0318C132.144 38.4821 131.409 39.0769 130.814 39.7907C129.752 41.0101 129.128 42.5565 128.826 44.1327C128.681 44.9781 128.516 45.8193 128.384 46.669C128.172 46.6902 127.955 46.6775 127.743 46.6775C126.808 46.6732 125.873 46.669 124.938 46.6606C124.739 46.669 124.543 46.6223 124.344 46.635C122.644 46.6435 120.945 46.6308 119.245 46.6308L119.279 46.618C120.541 46.4862 121.807 46.3375 123.069 46.2144C124.671 46.2059 126.268 46.21 127.87 46.2144C127.921 46.2059 128.01 46.2313 128.019 46.1591C128.15 45.4709 128.278 44.7827 128.409 44.0943C128.592 43.1385 128.881 42.1953 129.327 41.3244C130.028 39.9223 131.137 38.7328 132.488 37.9426Z" fill="#7C7C7C" stroke="#7C7C7C" stroke-width="0.00399361"/>
<path d="M134.464 37.4202C135.454 37.1398 136.487 37.0591 137.51 37.0591C137.863 37.0676 138.224 37.0421 138.573 37.1101C138.696 37.1271 138.815 37.1823 138.938 37.1738C139.138 37.3352 139.257 37.5732 139.346 37.8111C139.541 38.3761 139.652 38.9624 139.745 39.553C139.749 39.7909 139.792 40.0585 139.664 40.2752C139.546 40.4876 139.308 40.5896 139.082 40.6533C138.262 40.8658 137.404 40.666 136.584 40.8658C135.909 41.0102 135.28 41.384 134.851 41.9236C134.345 42.5524 134.078 43.334 133.929 44.1159C133.814 44.8126 133.67 45.5094 133.555 46.2104C133.504 46.3676 133.474 46.5375 133.445 46.7033C134.248 46.7161 135.051 46.7033 135.854 46.7117C136.159 46.7033 136.465 46.7202 136.771 46.6989C136.941 47.0898 136.903 47.5317 136.848 47.9438C136.78 48.4069 136.669 48.8657 136.461 49.2905C136.287 49.6517 135.998 49.9831 135.603 50.1105C135.399 50.1913 135.178 50.1743 134.961 50.1743C134.248 50.1743 133.534 50.1827 132.82 50.1743C132.705 50.6969 132.629 51.2322 132.527 51.7632C132.34 52.7956 132.157 53.8322 131.97 54.8689C131.966 54.9029 131.962 54.9751 131.962 55.0133V55.0176C130.105 55.0176 128.253 55.0219 126.396 55.0176C126.401 55.0007 126.405 54.9708 126.409 54.9539C126.413 54.9326 126.418 54.8859 126.422 54.8604C126.426 54.8945 126.43 54.9582 126.435 54.9879C126.549 55.0007 126.758 55.0601 126.787 54.8945C127.076 53.331 127.344 51.759 127.641 50.1955C127.527 50.17 127.408 50.17 127.289 50.1913C127.272 50.2507 127.255 50.3102 127.233 50.3697L127.259 50.1785C126.103 50.1741 124.943 50.1785 123.788 50.1741C123.507 50.1658 123.219 50.1741 122.938 50.1402C122.458 50.119 121.974 50.1359 121.494 50.0892C120.899 50.0892 120.308 50.034 119.714 50.034C119.246 49.9872 118.775 50.0042 118.303 49.983C117.997 49.9448 117.683 49.9617 117.373 49.949C116.867 49.8937 116.353 49.9321 115.848 49.8767C115.312 49.8811 114.777 49.8343 114.242 49.8216C114.246 49.8173 114.25 49.8003 114.25 49.7961C114.428 49.8003 114.603 49.7875 114.781 49.7833C115.176 49.7323 115.576 49.7663 115.971 49.7111C116.383 49.7111 116.791 49.6558 117.203 49.6558C117.568 49.6049 117.938 49.6346 118.303 49.5836C118.732 49.5836 119.153 49.5284 119.582 49.5242C119.935 49.4774 120.291 49.5029 120.644 49.4562C121.056 49.4604 121.464 49.3967 121.876 49.4009C122.28 49.3541 122.692 49.3669 123.095 49.3244C123.057 49.1672 123.027 49.0101 122.994 48.8528C122.964 48.7551 122.845 48.7763 122.768 48.7636C121.846 48.6318 120.929 48.5001 120.011 48.3727C120.071 48.3259 120.151 48.3471 120.219 48.3387C120.933 48.2834 121.642 48.2197 122.356 48.1688C122.518 48.1603 122.675 48.1306 122.836 48.1263C122.764 47.9053 122.722 47.6632 122.624 47.4593C121.099 47.2256 119.573 47.0174 118.052 46.7668C118.448 46.7031 118.847 46.6733 119.242 46.6308C120.941 46.6308 122.641 46.6436 124.34 46.635C124.54 46.6223 124.735 46.6691 124.935 46.6606C125.87 46.6691 126.804 46.6734 127.739 46.6775C127.952 46.6775 128.168 46.6903 128.381 46.6691C128.512 45.8194 128.678 44.9781 128.822 44.1327C129.124 42.5565 129.749 41.0101 130.811 39.7908C131.406 39.077 132.141 38.4822 132.956 38.0319C133.428 37.7601 133.946 37.5774 134.464 37.4202Z" fill="#A6A6A6" stroke="#A6A6A6" stroke-width="0.00399361"/>
<path d="M133.558 46.21C134.366 46.2143 135.177 46.2058 135.989 46.2143C136.311 46.2143 136.643 46.3927 136.775 46.6986C136.469 46.7198 136.163 46.7029 135.857 46.7114C135.054 46.7029 134.251 46.7157 133.448 46.7029C133.478 46.5372 133.507 46.3672 133.558 46.21ZM127.292 50.1909C127.411 50.1697 127.53 50.1697 127.644 50.1952C127.347 51.7587 127.079 53.3306 126.791 54.8941C126.761 55.0597 126.553 55.0003 126.438 54.9875C126.434 54.9578 126.429 54.8941 126.425 54.8601C126.693 53.3646 126.952 51.8649 127.237 50.3694C127.258 50.3098 127.275 50.2504 127.292 50.1909Z" fill="#7C7C7C" stroke="#7C7C7C" stroke-width="0.00399361"/>
<path d="M133.933 31.5633C133.899 31.4995 133.895 31.4231 133.895 31.3508L133.86 31.3551C133.81 31.1681 133.652 30.9897 133.448 30.9812C133.295 30.9685 133.104 30.9727 133.015 31.1172C132.845 31.3466 132.926 31.6397 132.917 31.8989C132.917 31.9159 132.922 31.9456 132.922 31.9626C132.922 32.1368 132.9 32.3067 132.871 32.4767C132.845 32.5277 132.832 32.5829 132.832 32.6424C132.76 33.0417 132.616 33.4368 132.42 33.798C132.382 33.849 132.352 33.9042 132.34 33.9637C132.212 34.1846 132.059 34.3885 131.902 34.5924C131.877 34.6137 131.855 34.6392 131.834 34.6647C131.724 34.8006 131.605 34.9153 131.481 35.0343C131.452 35.0513 131.43 35.0725 131.405 35.0895C131.261 35.2297 131.099 35.3614 130.925 35.4676C130.904 35.4804 130.882 35.4974 130.857 35.5144C129.769 36.2324 128.448 36.5298 127.161 36.5425C126.069 36.5765 124.968 36.3428 123.983 35.8713C123.966 35.8628 123.923 35.8458 123.906 35.8373C123.741 35.748 123.571 35.6716 123.418 35.5611C123.384 35.5441 123.35 35.5229 123.311 35.5059C123.154 35.4124 123.006 35.3104 122.865 35.1915C122.819 35.149 122.768 35.115 122.717 35.0768C122.564 34.9536 122.406 34.8219 122.275 34.6732C122.241 34.6349 122.207 34.6009 122.173 34.567C121.71 34.0869 121.349 33.5006 121.158 32.8633C120.975 32.3577 121 31.8054 120.979 31.2744C120.826 31.0407 120.503 30.909 120.248 31.0534C120.142 31.1299 120.129 31.2701 120.049 31.3678C119.917 32.7698 120.516 34.1676 121.472 35.1787C121.472 35.2127 121.489 35.234 121.519 35.2467C121.689 35.4039 121.854 35.5654 122.024 35.7183C122.054 35.748 122.088 35.7778 122.126 35.8033C122.296 35.9435 122.479 36.0709 122.657 36.2026C122.691 36.2281 122.725 36.2494 122.764 36.2706C122.997 36.4066 123.218 36.568 123.469 36.6615C123.486 36.6742 123.516 36.6955 123.532 36.704C124.34 37.0906 125.211 37.354 126.103 37.439C126.201 37.439 126.298 37.4475 126.396 37.4687C126.821 37.4942 127.246 37.4814 127.671 37.4729C128.983 37.3582 130.339 37.0396 131.435 36.2664L131.447 36.2834C131.481 36.2536 131.511 36.2281 131.545 36.2026C131.719 36.0752 131.889 35.9392 132.059 35.799C132.098 35.7693 132.14 35.7353 132.178 35.6971C132.365 35.4931 132.582 35.3062 132.739 35.0725L132.765 35.0853C132.777 35.064 132.799 35.0215 132.811 35.0003C132.956 34.8049 133.088 34.6009 133.215 34.397C133.223 34.3843 133.245 34.363 133.253 34.3503L133.236 34.3333C133.249 34.3163 133.279 34.2823 133.292 34.2653C133.525 33.7895 133.733 33.2924 133.806 32.7656C133.835 32.7528 133.852 32.7273 133.852 32.6976C133.857 32.5277 133.916 32.3662 133.899 32.1963C133.937 31.9881 133.941 31.7757 133.933 31.5633Z" fill="white" stroke="white" stroke-width="0.00399361"/>
<path d="M134.021 31.335C133.355 31.3749 132.73 31.1469 132.124 30.9385M119.718 31.42C120.063 31.528 120.854 31.2562 121.078 31.5049L119.718 31.42ZM119.916 32.4679C120.246 32.3531 120.954 32.0812 121.248 32.2413L119.916 32.4679ZM120.256 33.5159C120.416 33.5675 120.73 33.2873 120.887 33.2051C121.119 33.0829 121.357 32.9892 121.616 32.9494L120.256 33.5159ZM120.766 34.6205C120.931 34.3867 121.128 34.1925 121.365 34.0263C121.601 33.8618 122.246 33.422 122.522 33.5725L120.766 34.6205ZM121.248 35.4136C121.434 35.2651 121.51 35.0024 121.707 34.8464C121.944 34.6577 122.307 34.6239 122.55 34.5072L121.248 35.4136ZM122.048 36.0012C122.104 35.5905 122.521 35.0948 122.919 35.1303L122.048 36.0012ZM122.664 36.5748C122.874 36.5537 123.052 36.083 123.194 35.9235C123.407 35.6845 123.628 35.611 123.91 35.5268L122.664 36.5748ZM123.882 37.0846C123.868 36.7874 124.175 35.9352 124.533 35.98L123.882 37.0846ZM124.788 37.3679C124.773 37.0166 124.955 35.9601 125.383 35.9234L124.788 37.3679ZM125.723 37.9343C125.641 37.4431 125.647 36.7325 126.034 36.3765L125.723 37.9343ZM126.884 38.0477C126.841 37.6382 126.434 36.8104 126.884 36.4899V38.0477ZM128.13 37.7644C127.936 37.5392 127.823 36.6508 127.904 36.4049L128.13 37.7644ZM129.32 37.5661C129.17 37.2941 128.984 37.0386 128.928 36.7228C128.894 36.5341 128.953 36.2653 128.923 36.1216L129.32 37.5661ZM130.311 37.1413C129.986 36.9287 129.896 36.1475 130 35.8101L130.311 37.1413ZM131.274 36.7164C131.043 36.2206 130.796 35.8361 130.793 35.2719L131.274 36.7164ZM132.209 35.8101C131.85 35.5685 131.391 35.1293 131.444 34.6488L132.209 35.8101ZM133.2 35.0454C132.654 34.9244 131.999 34.4362 131.671 33.9974L133.2 35.0454ZM133.653 34.1107C133.26 34.0263 131.959 33.5188 132.039 33.0061L133.653 34.1107ZM134.078 33.1194C133.53 32.9183 132.732 32.7375 132.294 32.3546L134.078 33.1194ZM134.361 32.213C134.016 32.2426 133.521 32.0753 133.17 32.0147C132.78 31.9475 132.418 31.8161 132.039 31.7315L134.361 32.213Z" stroke="#D1D1D1" stroke-width="0.0849704"/>
<path d="M48.7578 33.3778C49.3736 33.2849 50.0821 33.2268 50.6048 33.6101C50.93 33.854 51.0462 34.2953 51.0229 34.6904C51.0462 35.3408 50.7442 36.0378 50.1635 36.3747C49.6523 36.6535 49.0367 36.6766 48.4675 36.6186C48.0842 36.5722 47.7009 36.3631 47.5034 36.0146C47.0619 35.004 47.6079 33.5753 48.7578 33.3778ZM30.335 34.1096C30.3698 33.7611 30.6835 33.4475 31.0435 33.4592C33.7269 33.4592 36.3985 33.4707 39.0702 33.4592C39.3606 33.4359 39.6743 33.5636 39.8136 33.8192C40.011 34.1677 39.8368 34.551 39.8136 34.9111C39.7323 35.3989 39.7555 36.0495 39.1864 36.2353C37.2349 36.2933 35.2834 36.2353 33.3319 36.2585C33.146 37.4897 32.9718 38.7094 32.7859 39.9291C32.7859 39.9755 32.7976 40.0802 32.7976 40.1265C34.2263 40.1149 35.655 40.1265 37.0838 40.1149C37.4788 40.0917 37.8969 40.4287 37.862 40.8467C37.8272 41.2766 37.7343 41.6947 37.6762 42.1245C37.6297 42.4149 37.3974 42.6821 37.0954 42.7401C35.504 42.775 33.8893 42.7053 32.2981 42.775C32.0424 44.529 31.7404 46.2829 31.4732 48.037C31.4385 48.3855 31.1596 48.6875 30.8111 48.699C30.1491 48.7107 29.4869 48.7107 28.8249 48.699C28.3951 48.7107 28.0466 48.2343 28.1627 47.8278C28.8715 43.2513 29.6032 38.6863 30.335 34.1096ZM42.1367 33.4823C42.7408 33.4359 43.3564 33.4707 43.9605 33.4592C44.3322 33.4359 44.7039 33.7263 44.7387 34.1096C44.7387 34.4115 44.6574 34.7136 44.6226 35.0156C44.1347 38.1287 43.6352 41.2418 43.1473 44.3549C43.0776 44.8543 42.9498 45.3886 43.1009 45.8998C43.2751 46.4108 44.0533 46.1901 44.2392 46.7244C44.3553 47.1542 44.2275 47.6072 44.1926 48.0487C44.1579 48.6294 43.4957 48.7571 43.0428 48.8851C42.0555 49.0709 40.8589 48.9315 40.1504 48.1183C39.6393 47.526 39.6044 46.6896 39.709 45.9462C40.3246 41.9969 40.9402 38.0475 41.5676 34.0864C41.6025 33.7959 41.8347 33.5288 42.1367 33.4823ZM65.1943 34.1096C65.2291 33.7611 65.5428 33.4592 65.8913 33.4592H67.6569C68.0983 33.4475 68.4585 33.9238 68.3539 34.3419C67.9473 36.9206 67.5292 39.4994 67.1226 42.078C67.7383 41.9851 68.4353 41.869 68.8651 41.3695C69.5851 40.5563 70.1777 39.6156 70.619 38.6282C70.77 38.2449 70.8513 37.6873 71.3508 37.6176C72.013 37.5944 72.6866 37.606 73.3487 37.6176C73.8018 37.606 74.1386 38.1171 73.9876 38.5352C73.8134 39.151 73.523 39.7201 73.221 40.2661C72.5473 41.358 71.8039 42.4382 70.8281 43.2978C71.2579 44.5871 71.8039 45.8416 72.2801 47.1078C72.4195 47.526 72.7564 48.0138 72.4427 48.4205C72.0825 48.9083 71.4089 48.6642 70.9094 48.7223C70.3867 48.6642 69.6317 48.9314 69.3412 48.339C68.7952 47.0729 68.3423 45.772 67.7847 44.5058C67.4594 44.5173 67.1226 44.5291 66.7973 44.4942C66.7742 44.5407 66.7277 44.6335 66.7044 44.6801C66.5301 45.8416 66.3443 47.0033 66.1584 48.1648C66.0887 48.4436 65.868 48.6876 65.566 48.7108C64.9504 48.734 64.3231 48.7223 63.6959 48.7223C63.4286 48.7223 63.1848 48.5481 63.0686 48.3158C62.9524 48.0834 63.0221 47.8164 63.0571 47.5608C63.7772 43.077 64.4857 38.5933 65.1943 34.1096ZM97.4749 35.3757C97.5563 35.0504 97.8698 34.8298 98.1952 34.8413C98.6599 34.853 99.1361 34.8298 99.6122 34.853C99.9956 34.8646 100.298 35.2479 100.251 35.6196C100.181 36.2817 100.019 36.9439 99.9724 37.6059C100.425 37.6059 100.89 37.5943 101.343 37.6059C101.749 37.6059 102.086 38.0241 102.017 38.419C101.959 38.7792 101.877 39.1277 101.819 39.4876C101.761 39.7897 101.506 40.0337 101.215 40.0801C100.658 40.1149 100.112 40.0569 99.5658 40.1149C99.3335 41.6714 99.078 43.2279 98.834 44.7846C98.7991 45.1446 98.7759 45.5511 98.985 45.8648C99.2987 46.2481 99.8445 46.1087 100.286 46.1552C100.634 46.2597 100.855 46.6431 100.797 46.9917C100.739 47.3865 100.727 47.7815 100.634 48.1647C100.495 48.5945 99.9956 48.6759 99.6122 48.7803C98.5552 49.0592 97.3355 49.0592 96.3947 48.4435C95.5236 47.8511 95.3841 46.7011 95.477 45.7254C95.7209 43.8436 96.1043 41.9734 96.3134 40.0801C95.9881 40.0916 95.5931 40.1381 95.3493 39.8477C95.0705 39.5574 95.2099 39.1275 95.2563 38.7673C95.3261 38.384 95.3144 37.8846 95.7326 37.6755C96.0694 37.5476 96.4528 37.6407 96.8129 37.5942C97.0336 36.8509 97.2426 36.1075 97.4749 35.3757ZM90.912 39.1392C91.6438 38.4074 92.5265 37.8034 93.5371 37.5015C93.9785 37.3039 94.5477 37.6757 94.5361 38.1635C94.4548 38.8024 94.3038 39.4296 94.1993 40.0569C94.1527 40.3705 93.8856 40.6377 93.5719 40.6725C92.4336 40.8699 91.4462 41.5552 90.6564 42.3684C90.4589 42.6124 90.1685 42.8447 90.1337 43.1815C89.8898 44.8077 89.6342 46.434 89.3787 48.0602C89.3439 48.4086 89.0417 48.7456 88.6817 48.7224H86.916C86.5095 48.7456 86.1494 48.3391 86.1959 47.9325C86.707 44.7148 87.2182 41.5089 87.7176 38.2912C87.7408 37.966 87.9732 37.6524 88.3099 37.6175C88.7398 37.5943 89.1695 37.6059 89.611 37.6059C89.9594 37.6059 90.2846 37.9195 90.2846 38.2797C90.2846 38.7791 90.2382 39.2902 90.2266 39.8013C90.5054 39.6272 90.6796 39.3483 90.912 39.1392ZM47.4917 37.664C48.1189 37.5363 48.7694 37.6408 49.3967 37.6059C49.7568 37.5595 50.1401 37.7918 50.1981 38.1519C50.2447 38.4771 50.1516 38.7908 50.1168 39.1045C49.6406 42.0898 49.1643 45.075 48.6997 48.0603C48.6648 48.3973 48.3862 48.7341 48.026 48.7224C47.3988 48.7224 46.7715 48.7341 46.1327 48.7109C45.7377 48.6643 45.4472 48.2114 45.5518 47.828C46.0513 44.7267 46.5276 41.6368 47.0271 38.5352C47.0503 38.1984 47.1432 37.8034 47.4917 37.664ZM85.0807 37.8151C83.3499 37.4898 81.5844 37.2575 79.8303 37.4317C78.2622 37.6292 76.6824 38.3378 75.7184 39.6272C74.3825 41.323 73.9295 43.5998 74.2314 45.714C74.3941 46.7245 74.8355 47.7467 75.6603 48.3739C76.4269 48.9664 77.4607 49.0476 78.39 48.8966C79.6909 48.641 80.7944 47.8049 81.7005 46.8755C81.7469 47.2704 81.654 47.6654 81.6773 48.0487C81.7005 48.4087 82.0257 48.7456 82.3858 48.7224H83.5707C83.9192 48.7224 84.2096 48.3973 84.2328 48.0603C84.7323 44.9124 85.2318 41.776 85.7197 38.6398C85.7893 38.2448 85.4758 37.8615 85.0807 37.8151ZM81.8168 43.2862C81.3521 44.1574 80.7015 44.9472 79.9697 45.6208C79.5516 45.9694 79.0172 46.3295 78.4481 46.2134C77.8905 46.0972 77.6233 45.5165 77.4956 45.0169C77.2052 43.716 77.4724 42.2988 78.2041 41.1721C78.5294 40.6493 79.0521 40.2544 79.6561 40.0917C80.504 39.8826 81.3986 39.9872 82.2233 40.2195L82.2697 40.2661C82.1652 41.2766 81.9677 42.2756 81.8168 43.2862ZM62.2788 41.5438C62.2671 40.3822 61.9535 39.1625 61.1404 38.2913C60.5829 37.6757 59.7465 37.3621 58.9334 37.3736C57.5859 37.3272 56.3198 37.9894 55.3325 38.8721C55.1117 39.0464 54.9607 39.3019 54.7169 39.4413C54.7169 39.0579 54.7517 38.6746 54.74 38.2797C54.7517 37.9195 54.4148 37.6059 54.0663 37.6059H52.8814C52.5098 37.6059 52.2077 37.9312 52.1845 38.2913C51.4527 42.9376 50.7094 47.584 49.9775 52.2304C49.8731 52.6601 50.2448 53.1016 50.6862 53.09C51.3366 53.0784 51.9988 53.1364 52.6376 53.0434C53.1487 52.904 53.1371 52.3116 53.2184 51.8819C53.4042 50.8596 53.5321 49.8374 53.6482 48.8036C55.9365 49.245 58.5966 48.9431 60.3041 47.2122C61.698 45.6906 62.3484 43.5881 62.2788 41.5438ZM59.0263 42.7169C58.9567 43.7856 58.5733 44.8659 57.8299 45.6441C56.8659 46.5619 55.4021 46.434 54.2173 46.1205C54.1942 46.0855 54.1593 46.0158 54.1477 45.9811C54.3335 44.9705 54.4264 43.9482 54.6588 42.9493C55.3093 41.8807 56.0991 40.8003 57.2258 40.208C57.644 40.0105 58.2132 40.057 58.5152 40.4403C59.0263 41.0792 59.0728 41.9387 59.0263 42.7169Z" fill="#A6A6A6" stroke="#A6A6A6" stroke-width="0.00429101"/>
</g>
<defs>
<linearGradient id="paint0_linear_420_7660" x1="126.979" y1="30.079" x2="126.979" y2="55.0503" gradientUnits="userSpaceOnUse">
<stop stop-color="#F7E830"/>
<stop offset="1" stop-color="#FDCB06"/>
</linearGradient>
<radialGradient id="paint1_radial_420_7660" cx="0" cy="0" r="1" gradientUnits="userSpaceOnUse" gradientTransform="translate(126.848 41.4685) scale(20.3113 20.3113)">
<stop offset="0.596" stop-color="#F29405"/>
<stop offset="0.736" stop-color="#F7D01E"/>
<stop offset="1" stop-color="#FDCB06"/>
</radialGradient>
<linearGradient id="paint2_linear_420_7660" x1="133.926" y1="30.9801" x2="133.933" y2="32.1626" gradientUnits="userSpaceOnUse">
<stop stop-color="#FADA1C"/>
<stop offset="1" stop-color="#FDCB06"/>
</linearGradient>
<linearGradient id="paint3_linear_420_7660" x1="120.016" y1="30.9235" x2="120.009" y2="32.106" gradientUnits="userSpaceOnUse">
<stop stop-color="#FADA1C"/>
<stop offset="1" stop-color="#FDCB06"/>
</linearGradient>
<clipPath id="clip0_420_7660">
<rect width="170" height="80" fill="white" transform="translate(0.140137)"/>
</clipPath>
</defs>
</svg>
