<svg width="52" height="52" viewBox="0 0 52 52" fill="none" xmlns="http://www.w3.org/2000/svg">
<g id="Gym &#38; Sports">
<g id="Group">
<path id="Vector" d="M43.927 21.3834L36.4693 10.7342L40.0205 8.24902L47.476 18.8982L43.927 21.3834Z" fill="#F96021"/>
<path id="Vector_2" d="M39.845 26.8859L36.1183 21.5581L18.369 33.9861L22.0957 39.3096L18.5467 41.7969L8.60602 27.5966L12.155 25.1114L15.8817 30.4371L33.631 18.0091L29.9044 12.6834L33.4533 10.1982L43.394 24.3964L39.845 26.8837V26.8859Z" fill="#F96021"/>
<path id="Vector_3" d="M44.9908 15.3472L48.5398 12.862L46.0547 9.31299L42.5057 11.7982L44.9908 15.3472Z" fill="#F96021"/>
<path id="Vector_4" d="M15.5308 41.2673L8.07311 30.6182L4.52411 33.1033L11.9796 43.7525L15.5308 41.2673Z" fill="#F96021"/>
<path id="Vector_5" d="M9.49434 40.2028L5.94534 42.688L3.46017 39.139L7.00917 36.6538L9.49434 40.2028Z" fill="#F96021"/>
</g>
</g>
</svg>
