<svg width="52" height="53" viewBox="0 0 52 53" fill="none" xmlns="http://www.w3.org/2000/svg">
<g id="Homecare Services">
<g id="Group 20">
<path id="Vector (Stroke)" fill-rule="evenodd" clip-rule="evenodd" d="M9.44072 20.5469C10.2955 20.5469 10.9884 21.2398 10.9884 22.0946V44.9228H18.7268V33.3152C18.7268 32.2891 19.1344 31.3049 19.8601 30.5793C20.5857 29.8537 21.5698 29.446 22.596 29.446H30.3344C31.3606 29.446 32.3447 29.8537 33.0703 30.5793C33.7959 31.3049 34.2036 32.2891 34.2036 33.3152V44.9228H41.942V22.0946C41.942 21.2398 42.6349 20.5469 43.4897 20.5469C44.3444 20.5469 45.0373 21.2398 45.0373 22.0946V44.9228C45.0373 45.7438 44.7112 46.5311 44.1307 47.1116C43.5502 47.6921 42.7629 48.0182 41.942 48.0182H32.6559C31.8012 48.0182 31.1082 47.3253 31.1082 46.4705V33.3152C31.1082 33.11 31.0267 32.9132 30.8816 32.768C30.7365 32.6229 30.5396 32.5414 30.3344 32.5414H22.596C22.3908 32.5414 22.1939 32.6229 22.0488 32.768C21.9037 32.9132 21.8222 33.11 21.8222 33.3152V46.4705C21.8222 47.3253 21.1292 48.0182 20.2745 48.0182H10.9884C10.1675 48.0182 9.38014 47.6921 8.79965 47.1116C8.21915 46.5311 7.89304 45.7438 7.89304 44.9228V22.0946C7.89304 21.2398 8.58596 20.5469 9.44072 20.5469Z" fill="#F96021"/>
<path id="Vector (Stroke)_2" fill-rule="evenodd" clip-rule="evenodd" d="M28.6099 5.52012L49.2029 25.2329C49.8204 25.8239 49.8418 26.8036 49.2507 27.4211C48.6597 28.0386 47.68 28.06 47.0625 27.4689L26.4962 7.78177C26.4868 7.78094 26.4765 7.78044 26.4657 7.78042C26.4545 7.7804 26.4439 7.78089 26.4342 7.78174L5.8679 27.4689C5.25044 28.06 4.27074 28.0386 3.67967 27.4211C3.08861 26.8036 3.11 25.8239 3.72746 25.2329L24.3219 5.51885C24.9532 4.87879 25.8135 4.68388 26.4712 4.68506C27.1262 4.68624 27.9835 4.88275 28.6099 5.52012Z" fill="#F96021"/>
<path id="Vector (Stroke)_3" fill-rule="evenodd" clip-rule="evenodd" d="M34.2036 7.77864C34.2036 6.92388 34.8965 6.23096 35.7513 6.23096H40.3943C41.2491 6.23096 41.942 6.92388 41.942 7.77864V18.9026C41.942 19.7573 41.2491 20.4503 40.3943 20.4503C39.5395 20.4503 38.8466 19.7573 38.8466 18.9026V9.32632H37.2989V14.453C37.2989 15.3078 36.606 16.0007 35.7513 16.0007C34.8965 16.0007 34.2036 15.3078 34.2036 14.453V7.77864Z" fill="#F96021"/>
</g>
</g>
</svg>
