<svg width="52" height="53" viewBox="0 0 52 53" fill="none" xmlns="http://www.w3.org/2000/svg">
<g id="Hospital &#38; Clinic">
<path id="Vector" d="M39 3.31445V6.56445H42.25V16.3145C42.25 18.0384 41.5652 19.6917 40.3462 20.9106C39.1272 22.1296 37.4739 22.8145 35.75 22.8145C34.0261 22.8145 32.3728 22.1296 31.1538 20.9106C29.9348 19.6917 29.25 18.0384 29.25 16.3145V6.56445H32.5V3.31445H26V16.3145C26.0039 18.6164 26.8216 20.8429 28.3084 22.6003C29.7952 24.3577 31.8555 25.5329 34.125 25.9182V35.8145C34.125 38.4003 33.0978 40.8803 31.2693 42.7087C29.4408 44.5372 26.9608 45.5645 24.375 45.5645C21.7891 45.5645 19.3092 44.5372 17.4807 42.7087C15.6522 40.8803 14.625 38.4003 14.625 35.8145V25.8337C16.1568 25.4382 17.4918 24.4976 18.3797 23.1882C19.2676 21.8788 19.6475 20.2905 19.4482 18.7211C19.2488 17.1516 18.4839 15.7088 17.2969 14.6629C16.1098 13.6171 14.582 13.0401 13 13.0401C11.4179 13.0401 9.89018 13.6171 8.70311 14.6629C7.51603 15.7088 6.75114 17.1516 6.55179 18.7211C6.35245 20.2905 6.73234 21.8788 7.62026 23.1882C8.50818 24.4976 9.84316 25.4382 11.375 25.8337V35.8145C11.375 39.2623 12.7446 42.5689 15.1826 45.0068C17.6206 47.4448 20.9272 48.8145 24.375 48.8145C27.8228 48.8145 31.1294 47.4448 33.5674 45.0068C36.0053 42.5689 37.375 39.2623 37.375 35.8145V25.9182C39.6445 25.5329 41.7048 24.3577 43.1916 22.6003C44.6784 20.8429 45.496 18.6164 45.5 16.3145V3.31445H39ZM9.74998 19.5645C9.74998 18.9217 9.94059 18.2933 10.2977 17.7589C10.6548 17.2244 11.1624 16.8078 11.7563 16.5618C12.3501 16.3159 13.0036 16.2515 13.634 16.3769C14.2645 16.5023 14.8436 16.8118 15.2981 17.2664C15.7526 17.7209 16.0621 18.3 16.1875 18.9304C16.3129 19.5608 16.2486 20.2143 16.0026 20.8082C15.7566 21.402 15.34 21.9096 14.8056 22.2667C14.2711 22.6238 13.6428 22.8145 13 22.8145C12.1383 22.8136 11.3121 22.4709 10.7028 21.8616C10.0935 21.2523 9.75085 20.4261 9.74998 19.5645Z" fill="#F96021"/>
</g>
</svg>
