<svg width="171" height="80" viewBox="0 0 171 80" fill="none" xmlns="http://www.w3.org/2000/svg">
<g clip-path="url(#clip0_420_7615)">
<path d="M158.14 0H12.14C5.5126 0 0.140015 5.37258 0.140015 12V68C0.140015 74.6274 5.5126 80 12.14 80H158.14C164.767 80 170.14 74.6274 170.14 68V12C170.14 5.37258 164.767 0 158.14 0Z" fill="white"/>
<path d="M82.0419 11.0962C81.8431 11.1492 81.5117 11.1889 81.3129 11.1956C81.1141 11.1956 80.7828 11.242 80.584 11.295C80.3852 11.348 80.1334 11.3944 80.0274 11.3944C79.5503 11.3944 76.2767 12.2558 75.5676 12.5607C75.455 12.6137 75.3026 12.6534 75.2297 12.6534C75.1502 12.6534 75.0773 12.6799 75.0508 12.7131C75.0309 12.7462 74.9182 12.7992 74.8056 12.8257C74.6863 12.8456 74.5471 12.892 74.4875 12.9185C74.4345 12.945 74.2688 13.0179 74.123 13.0775C73.9773 13.1438 73.7718 13.2366 73.6724 13.2896C73.5664 13.3426 73.4272 13.3824 73.361 13.3824C73.3013 13.3824 73.2086 13.4288 73.1622 13.4818C73.1158 13.5348 73.0296 13.5812 72.9634 13.5812C72.8971 13.5812 72.811 13.6276 72.7646 13.6806C72.7182 13.7336 72.6254 13.78 72.5591 13.78C72.4995 13.78 72.4001 13.8264 72.3405 13.8794C72.2875 13.9324 72.2013 13.9788 72.1417 13.9788C72.0887 13.9788 72.029 14.0053 72.0025 14.0384C71.9826 14.0782 71.8103 14.1776 71.6182 14.277C71.4326 14.3697 71.2272 14.4691 71.1742 14.5089C71.1212 14.542 70.8097 14.7209 70.4784 14.9131C70.1537 15.1053 69.8754 15.2842 69.8621 15.3173C69.8489 15.3439 69.8091 15.3704 69.7693 15.3704C69.6832 15.3704 68.4241 16.2053 68.1922 16.4107C68.0994 16.4969 68.0067 16.5632 67.9801 16.5632C67.9073 16.5632 67.3042 17.027 67.2777 17.0999C67.2645 17.133 67.2115 17.1595 67.1584 17.1595C67.1054 17.1595 67.0657 17.1861 67.0657 17.2126C67.0657 17.2457 66.9331 17.365 66.7741 17.4776C66.2904 17.8288 66.0253 18.074 64.7132 19.3795C63.2554 20.844 62.8909 21.2349 62.8909 21.3211C62.8909 21.3608 62.871 21.4006 62.8379 21.4138C62.8114 21.4205 62.6722 21.5795 62.5264 21.7651C62.3806 21.944 62.2216 22.1229 62.1818 22.1494C62.1355 22.1759 62.0957 22.2289 62.0957 22.2687C62.0957 22.3018 62.0626 22.3681 62.0294 22.4145C61.8505 22.6199 61.3005 23.3886 61.3005 23.4217C61.3005 23.4416 61.2475 23.5211 61.1812 23.594C61.1083 23.6603 61.0155 23.8061 60.9625 23.9055C60.9161 24.0049 60.7969 24.1904 60.7041 24.3163C60.5053 24.5946 60.3993 24.7669 60.3065 24.9458C60.2667 25.0187 60.1806 25.1645 60.1077 25.2772C60.0348 25.3832 59.9487 25.5422 59.9155 25.6218C59.8824 25.6947 59.8161 25.7808 59.783 25.8073C59.7432 25.8272 59.7101 25.9067 59.7101 25.9796C59.7101 26.0459 59.6836 26.1055 59.6438 26.1055C59.6107 26.1055 59.5643 26.1784 59.5378 26.2712C59.5179 26.3573 59.4583 26.4633 59.4053 26.5097C59.3523 26.5495 59.3125 26.6356 59.3125 26.7019C59.3125 26.7682 59.2661 26.8543 59.2131 26.9007C59.1601 26.9471 59.1137 27.0266 59.1137 27.0796C59.1137 27.1326 59.0673 27.2188 59.0143 27.2718C58.9613 27.3314 58.9149 27.4308 58.9149 27.4905C58.9149 27.5567 58.8685 27.6495 58.8155 27.6959C58.7625 27.7423 58.7161 27.8483 58.7161 27.9345C58.7161 28.0206 58.6896 28.0935 58.6498 28.0935C58.6167 28.0935 58.5637 28.173 58.5438 28.2724C58.5173 28.3784 58.4577 28.5176 58.4113 28.5905C58.3583 28.6634 58.3185 28.7827 58.3185 28.8622C58.3185 28.9417 58.2854 29.0212 58.2456 29.0345C58.2059 29.0477 58.1595 29.1339 58.1528 29.22C58.1396 29.3128 58.0866 29.4718 58.0269 29.5845C57.9673 29.6905 57.9209 29.8231 57.9209 29.8694C57.9209 29.9158 57.8944 30.002 57.8613 30.0682C57.6625 30.446 57.0462 32.6129 56.8275 33.693C56.7679 33.9846 56.6751 34.3954 56.6221 34.6009C56.5691 34.8129 56.5293 35.0979 56.5293 35.2304C56.5293 35.3696 56.4962 35.5882 56.4564 35.7141C56.4167 35.84 56.357 36.2708 56.3305 36.675C56.2974 37.0726 56.2377 37.6094 56.2046 37.8678C56.1185 38.4377 56.1185 41.5655 56.2046 42.1088C56.2377 42.3275 56.2908 42.8311 56.3239 43.2354C56.357 43.633 56.4167 44.0504 56.4564 44.1498C56.4962 44.2559 56.5293 44.4679 56.5293 44.6336C56.5293 44.7993 56.5691 45.1173 56.6221 45.3426C56.6751 45.5679 56.7679 45.9921 56.8275 46.2836C57.0329 47.2379 57.5233 49.0005 57.7022 49.4114C57.7486 49.5241 57.7884 49.6632 57.7884 49.7162C57.7884 49.7692 57.8348 49.9018 57.8878 50.0012C57.9408 50.1072 57.9872 50.2464 57.9872 50.306C57.9872 50.3723 58.0203 50.4253 58.0534 50.4253C58.0932 50.4253 58.1197 50.5114 58.1197 50.6174C58.1197 50.7235 58.1661 50.8428 58.2191 50.8891C58.2721 50.9355 58.3318 51.0681 58.3583 51.194C58.3781 51.3199 58.4245 51.4193 58.4577 51.4193C58.4908 51.4193 58.5173 51.4922 58.5173 51.5783C58.5173 51.6645 58.5637 51.7705 58.6167 51.8169C58.6697 51.8633 58.7161 51.956 58.7161 52.0223C58.7161 52.0819 58.7625 52.1813 58.8155 52.241C58.8685 52.294 58.9149 52.3934 58.9149 52.4663C58.9149 52.5392 58.9613 52.6319 59.0143 52.6783C59.0673 52.7247 59.1137 52.8109 59.1137 52.8771C59.1137 52.9434 59.1601 53.0295 59.2131 53.0759C59.2661 53.1223 59.3125 53.2151 59.3125 53.288C59.3125 53.3542 59.3589 53.4271 59.4119 53.447C59.4649 53.4735 59.5113 53.5398 59.5113 53.6061C59.5113 53.679 59.5444 53.7518 59.5842 53.7717C59.6173 53.7982 59.6836 53.8844 59.7167 53.9573C59.7499 54.0368 59.836 54.1892 59.9089 54.3019C59.9818 54.4079 60.0679 54.5603 60.1011 54.6332C60.1342 54.7061 60.2336 54.8717 60.3198 54.9977C60.4059 55.1236 60.4987 55.276 60.5252 55.329C60.6312 55.541 61.3535 56.6477 61.433 56.7206C61.4529 56.7405 61.5788 56.926 61.7246 57.1314C61.8638 57.3435 62.0029 57.5158 62.0361 57.5158C62.0692 57.5158 62.0957 57.5555 62.0957 57.5953C62.0957 57.6417 62.1951 57.7941 62.3144 57.9266C62.427 58.0592 62.5728 58.2315 62.6258 58.311C62.924 58.7417 66.2572 62.1544 66.3831 62.1544C66.4229 62.1544 66.4693 62.2008 66.4958 62.2538C66.5157 62.3068 66.5753 62.3532 66.6283 62.3532C66.6813 62.3532 66.7343 62.3797 66.7476 62.4129C66.794 62.5388 69.5573 64.54 69.6898 64.54C69.7031 64.54 69.8422 64.6262 69.9946 64.7388C70.1404 64.8448 70.3061 64.9376 70.3591 64.9376C70.4055 64.9376 70.4453 64.9641 70.4453 64.9906C70.4453 65.0171 70.6109 65.1232 70.8097 65.2292C71.0085 65.3286 71.1874 65.4412 71.2073 65.4744C71.2338 65.5075 71.3067 65.534 71.3796 65.534C71.4459 65.534 71.5055 65.5605 71.5055 65.587C71.5055 65.6202 71.6712 65.7129 71.87 65.8057C72.0688 65.8918 72.2344 65.9846 72.2344 66.0111C72.2344 66.0443 72.2676 66.0641 72.3073 66.0641C72.3802 66.0641 73.2284 66.4485 73.5797 66.634C73.6791 66.687 73.7851 66.7202 73.8182 66.7003C73.8513 66.6804 73.911 66.7069 73.9574 66.7599C74.0038 66.813 74.07 66.8593 74.1164 66.8593C74.1827 66.8593 74.62 67.0184 75.117 67.2238C75.7399 67.4822 78.2382 68.2045 78.8942 68.3172C79.0798 68.3437 79.3117 68.4033 79.4111 68.4431C79.5171 68.4829 79.7424 68.516 79.9147 68.516C80.087 68.516 80.2593 68.5491 80.2991 68.5889C80.3388 68.6286 80.6171 68.675 80.922 68.6949C81.2268 68.7148 81.5382 68.7612 81.6045 68.8009C81.7702 68.8871 83.904 69.0064 85.1895 68.9997C86.6408 68.9931 88.5492 68.8871 88.7149 68.7943C88.7944 68.7479 89.0462 68.7148 89.2782 68.7148C89.5101 68.7082 89.8149 68.6684 89.9607 68.6154C90.1065 68.5624 90.3517 68.516 90.5107 68.516C90.6631 68.516 90.9017 68.4696 91.0342 68.4166C91.1601 68.3636 91.3457 68.3172 91.4384 68.3172C91.5312 68.3172 91.7565 68.2774 91.9421 68.2244C92.1276 68.1714 92.671 68.019 93.1415 67.8798C94.2283 67.575 95.1427 67.2768 95.3747 67.1509C95.4674 67.0979 95.6 67.0581 95.6729 67.0581C95.7391 67.0581 95.8518 67.0117 95.918 66.9587C95.9909 66.9057 96.1102 66.8593 96.1831 66.8593C96.2626 66.8593 96.3819 66.813 96.4482 66.7599C96.5211 66.7069 96.6337 66.6605 96.7 66.6605C96.7663 66.6605 96.8193 66.6274 96.8193 66.5943C96.8193 66.5545 96.8524 66.528 96.8922 66.528C97.0048 66.528 98.8006 65.693 98.8735 65.6069C98.8934 65.587 99.0392 65.5009 99.2049 65.4147C99.3705 65.3286 99.5958 65.2027 99.7019 65.1364C99.8145 65.0635 99.9603 64.9774 100.033 64.9376C100.106 64.8979 100.258 64.8117 100.365 64.7388C100.477 64.6659 100.63 64.5731 100.716 64.5334C100.795 64.487 100.862 64.4274 100.862 64.3942C100.862 64.3677 100.888 64.3412 100.928 64.3412C100.987 64.3412 101.332 64.1159 102.187 63.5129C102.929 62.996 103.28 62.7309 103.347 62.6514C103.386 62.6117 103.545 62.4725 103.711 62.3466C104.201 61.9689 104.341 61.843 105.659 60.5176C107.236 58.9405 107.488 58.6688 107.488 58.5893C107.488 58.5495 107.508 58.5098 107.541 58.4965C107.581 58.4833 107.747 58.2778 108.171 57.7477C108.197 57.7146 108.416 57.4097 108.648 57.085C108.88 56.7537 109.165 56.3627 109.271 56.2103C109.383 56.0579 109.476 55.8989 109.476 55.8591C109.476 55.826 109.503 55.7929 109.542 55.7929C109.576 55.7929 109.622 55.72 109.648 55.6272C109.668 55.5344 109.715 55.4615 109.748 55.4615C109.781 55.4615 109.841 55.3953 109.874 55.3091C109.914 55.2296 110 55.0705 110.073 54.9645C110.145 54.8519 110.232 54.6995 110.265 54.6199C110.298 54.547 110.364 54.4609 110.397 54.4344C110.437 54.4145 110.47 54.3416 110.47 54.2687C110.47 54.2025 110.517 54.1362 110.57 54.1097C110.623 54.0898 110.669 54.0169 110.669 53.944C110.669 53.8778 110.715 53.8049 110.768 53.7784C110.821 53.7585 110.868 53.6856 110.868 53.6193C110.868 53.5464 110.914 53.4536 110.967 53.4073C111.02 53.3609 111.067 53.2747 111.067 53.2085C111.067 53.1422 111.113 53.056 111.166 53.0097C111.219 52.9633 111.265 52.897 111.265 52.8573C111.265 52.8175 111.358 52.5922 111.471 52.3536C111.683 51.8964 111.703 51.8566 111.928 51.3199C112.008 51.1343 112.094 50.9289 112.127 50.856C112.319 50.3921 112.889 48.6758 113.161 47.7415C113.22 47.5228 113.313 47.2114 113.359 47.0523C113.412 46.8866 113.452 46.6746 113.452 46.5752C113.452 46.4824 113.499 46.2903 113.552 46.1643C113.605 46.0318 113.651 45.7933 113.651 45.6276C113.651 45.4685 113.697 45.2499 113.75 45.1505C113.803 45.0378 113.85 44.786 113.85 44.5541C113.85 44.3354 113.883 44.1233 113.923 44.0836C113.962 44.0438 114.022 43.6263 114.055 43.1558C114.088 42.692 114.141 42.142 114.174 41.9432C114.261 41.4661 114.254 38.4311 114.174 37.9672C114.135 37.7684 114.088 37.2449 114.055 36.8075C114.029 36.3702 113.969 35.9461 113.929 35.8665C113.883 35.787 113.85 35.5551 113.85 35.3497C113.85 35.1509 113.803 34.8726 113.75 34.74C113.697 34.6141 113.651 34.3888 113.651 34.243C113.651 34.1039 113.605 33.8786 113.552 33.746C113.499 33.6201 113.452 33.4346 113.452 33.3484C113.452 33.2557 113.406 33.0436 113.359 32.8713C113.306 32.7056 113.214 32.4008 113.161 32.202C112.736 30.7044 112.014 28.67 111.696 28.0802C111.643 27.9875 111.597 27.8616 111.597 27.8019C111.597 27.7423 111.57 27.6959 111.53 27.6959C111.497 27.6959 111.464 27.6363 111.464 27.57C111.464 27.4971 111.424 27.3977 111.378 27.3513C111.325 27.3049 111.265 27.179 111.239 27.0796C111.219 26.9802 111.166 26.9007 111.133 26.9007C111.093 26.9007 111.067 26.8411 111.067 26.7748C111.067 26.7019 111.02 26.6025 110.967 26.5429C110.914 26.4899 110.868 26.4037 110.868 26.3573C110.868 26.3043 110.835 26.2314 110.795 26.1917C110.702 26.0989 110.563 25.8603 110.464 25.6218C110.424 25.5224 110.364 25.4428 110.331 25.4428C110.298 25.4428 110.271 25.3832 110.271 25.3103C110.271 25.2374 110.232 25.1579 110.179 25.138C110.126 25.1181 110.066 25.0519 110.046 24.9922C110.026 24.9326 109.947 24.7868 109.874 24.6808C109.801 24.5681 109.708 24.4157 109.668 24.3296C109.622 24.2501 109.562 24.1838 109.529 24.1838C109.503 24.1838 109.476 24.144 109.476 24.0976C109.476 24.0579 109.284 23.7464 109.045 23.4217C108.813 23.0904 108.582 22.7723 108.535 22.706C108.449 22.5868 108.297 22.3813 108.151 22.2157C108.118 22.1693 108.085 22.103 108.085 22.0699C108.085 22.0301 108.045 21.9771 108.005 21.9506C107.959 21.9241 107.8 21.7452 107.654 21.5663C107.508 21.3807 107.369 21.2217 107.342 21.2151C107.309 21.2018 107.289 21.162 107.289 21.1223C107.289 21.0891 107.163 20.9235 107.011 20.7578C106.408 20.1283 104.592 18.3325 104.314 18.1005C104.162 17.968 103.877 17.7228 103.684 17.5704C103.499 17.4114 103.267 17.2059 103.168 17.1198C103.075 17.0336 102.975 16.9608 102.956 16.9608C102.936 16.9608 102.677 16.7885 102.392 16.5764C101.657 16.0463 101.113 15.6818 100.53 15.3173C100.252 15.1451 99.9735 14.9661 99.9007 14.9197C99.8278 14.88 99.7085 14.8071 99.6356 14.774C99.5627 14.7342 99.4169 14.6481 99.3043 14.5752C99.1982 14.5089 98.8669 14.3233 98.5753 14.1776C98.2838 14.0251 97.9988 13.8794 97.9458 13.8529C97.5416 13.6342 97.4157 13.5812 97.3229 13.5812C97.2633 13.5812 97.2169 13.5547 97.2169 13.5149C97.2169 13.4818 97.1373 13.4288 97.0379 13.4089C96.9319 13.3824 96.8259 13.3426 96.7861 13.3161C96.753 13.2896 96.6337 13.2498 96.5211 13.2233C96.415 13.1968 96.3024 13.1438 96.2825 13.1107C96.2626 13.0709 96.1632 13.0378 96.0638 13.0245C95.9644 13.0179 95.8518 12.9715 95.812 12.9318C95.7656 12.8854 95.6927 12.8522 95.6397 12.8522C95.5867 12.8522 95.4542 12.8125 95.3415 12.7595C95.2223 12.7064 95.0698 12.6534 94.9969 12.6336C94.924 12.6137 94.659 12.5209 94.4005 12.4348C92.8565 11.8914 90.3649 11.3215 88.9998 11.1889C88.6884 11.1624 88.304 11.1094 88.1384 11.0697C87.6613 10.9636 82.4925 10.9835 82.0419 11.0962ZM85.0172 24.7205C85.5142 24.8796 85.7992 25.0121 86.1239 25.2507C86.6739 25.6549 86.9787 26.0856 87.1841 26.7615C87.31 27.179 87.3034 28.5574 87.1775 28.9748C86.8992 29.8893 86.2034 30.6183 85.2558 30.9761C84.9708 31.0821 84.7455 31.102 83.6654 31.102H82.4063L81.9093 30.8634C81.5648 30.7044 81.2997 30.5189 81.0611 30.267C80.7165 29.9158 80.6503 29.8231 80.425 29.3857C79.9942 28.564 80.0274 27.073 80.4979 26.1718C80.69 25.8007 81.525 24.979 81.7039 24.979C81.7635 24.979 81.8497 24.9458 81.8828 24.9127C81.9226 24.873 82.1015 24.8001 82.2804 24.7537C82.6979 24.641 84.6859 24.6145 85.0172 24.7205ZM75.4948 27.3314C76.3363 27.464 77.052 27.8351 77.549 28.3917C77.94 28.8291 78.0062 28.9218 78.1785 29.2797L78.3641 29.6508L78.384 36.1449C78.3906 40.6178 78.3773 42.7848 78.3243 43.1028C78.1587 44.183 77.9731 44.9715 77.8605 45.0842C77.8273 45.124 77.8008 45.2101 77.8008 45.2764C77.8008 45.3426 77.7611 45.4818 77.708 45.5746C77.6617 45.674 77.5092 45.9788 77.3767 46.2505C77.0719 46.8668 77.0586 46.8999 76.5948 47.5096C75.7996 48.5831 74.4875 49.5638 73.2947 49.9945C71.9628 50.465 71.373 50.5777 69.7826 50.6638C67.2777 50.803 64.521 49.9879 63.1361 48.709C61.7511 47.4234 61.3734 46.0318 62.0294 44.6203C62.1487 44.3685 62.268 44.1498 62.3011 44.1432C62.3342 44.13 62.3608 44.0902 62.3608 44.0504C62.3608 43.951 63.0367 43.1293 63.4409 42.7251C64.0903 42.0956 64.1963 42.0823 64.5873 42.6191C65.0445 43.242 65.959 43.8782 66.8006 44.1565C66.9663 44.2095 67.344 44.289 67.6488 44.3354C68.1259 44.4083 68.285 44.4083 68.7753 44.3155C69.6434 44.1498 69.8356 44.0637 70.2465 43.6661C70.7567 43.1691 70.8959 42.8378 70.9754 41.8835C71.0085 41.4594 71.0483 38.5371 71.0748 35.3828C71.1145 28.9351 71.0748 29.3592 71.6248 28.6568C72.135 28.0007 73.0098 27.517 74.0236 27.3314C74.6134 27.2188 74.8321 27.2188 75.4948 27.3314ZM99.7019 32.3213C99.9603 32.3544 100.272 32.4141 100.398 32.4472C100.524 32.487 100.809 32.5731 101.027 32.6327C103.386 33.302 105.586 35.131 106.62 37.2714C106.746 37.5232 106.885 37.8148 106.932 37.9142C106.985 38.007 107.024 38.1461 107.024 38.2124C107.024 38.2786 107.051 38.3648 107.091 38.4046C107.124 38.4377 107.183 38.6033 107.216 38.7624C107.256 38.9281 107.316 39.1931 107.356 39.3588C107.541 40.0943 107.568 40.2998 107.601 41.0817C107.621 41.5986 107.607 42.089 107.554 42.3739C107.515 42.6257 107.455 42.9902 107.422 43.1824C107.395 43.3679 107.336 43.6197 107.296 43.7456C106.951 44.8125 106.819 45.1571 106.547 45.6872C105.951 46.8469 104.751 48.1457 103.453 49.0403C103.002 49.3518 101.829 49.9614 101.677 49.9614C101.63 49.9614 101.498 50.0012 101.378 50.0542C101.12 50.1668 100.563 50.3126 99.8476 50.4518C99.1452 50.5976 97.2102 50.5976 96.5078 50.4518C95.2819 50.2066 94.5662 49.968 93.7048 49.5042C92.0812 48.6427 90.4776 47.0126 89.7221 45.4553C89.2914 44.5673 89.1986 44.342 89.1986 44.1896C89.1986 44.1167 89.1655 43.9908 89.1191 43.9113C89.0794 43.8318 89.0197 43.6131 88.9866 43.4342C88.9601 43.2486 88.9071 42.9703 88.8739 42.8046C88.7613 42.3076 88.7878 40.3263 88.9071 39.7564C89.033 39.1335 89.1854 38.5967 89.3047 38.3118C89.3577 38.1925 89.3974 38.0666 89.3974 38.0335C89.3974 37.9274 89.8414 37.0196 90.0203 36.7545C90.1131 36.6154 90.1926 36.4828 90.1926 36.4629C90.1926 36.4431 90.4179 36.1449 90.6963 35.8069C91.9818 34.2165 93.5656 33.1297 95.2951 32.646C95.4939 32.5864 95.8186 32.4936 96.0174 32.4406C96.2096 32.3809 96.5078 32.3279 96.6801 32.3279C96.8458 32.3213 97.0777 32.2948 97.1837 32.2683C97.4223 32.202 99.0458 32.2352 99.7019 32.3213ZM84.9576 32.6858C86.0046 32.9243 86.8594 33.7261 87.1841 34.7798C87.257 35.0316 87.2769 36.1647 87.2769 41.3799C87.2769 48.1059 87.2835 47.98 86.9456 48.6361C86.7799 48.9608 86.1504 49.65 85.8919 49.7957C85.1763 50.1801 84.7257 50.253 83.3672 50.2066C82.1943 50.1668 81.9623 50.1006 81.366 49.65C80.7894 49.2126 80.3653 48.5566 80.193 47.821C80.14 47.6023 80.1201 45.6939 80.1201 41.413C80.1201 34.8129 80.1135 34.9653 80.4846 34.2231C80.6702 33.8454 81.0214 33.4412 81.4123 33.1563C81.9822 32.7321 82.466 32.6129 83.6654 32.6129C84.1756 32.6062 84.7588 32.646 84.9576 32.6858Z" fill="#FF0000"/>
<path d="M97.5154 37.8012C97.0449 37.9072 96.6473 38.0464 96.5413 38.1524C96.4949 38.1988 96.422 38.2319 96.3757 38.2319C96.2564 38.2319 95.3817 39.0934 95.2955 39.2988C95.2624 39.385 95.2027 39.5043 95.1696 39.5573C94.7587 40.2266 94.6196 41.5188 94.8581 42.4067C95.216 43.7387 95.9847 44.5273 97.3166 44.9381C98.3239 45.2429 99.6492 44.9381 100.438 44.2092C101.1 43.5995 101.458 42.8838 101.604 41.8898C101.67 41.426 101.67 41.2404 101.578 40.7236C101.432 39.8621 101.153 39.3121 100.564 38.7289C100.027 38.1922 99.5167 37.9139 98.8408 37.7946C98.2709 37.6885 98.0257 37.6885 97.5154 37.8012Z" fill="#FF0000"/>
</g>
<defs>
<clipPath id="clip0_420_7615">
<rect width="170" height="80" fill="white" transform="translate(0.140015)"/>
</clipPath>
</defs>
</svg>
