<svg width="171" height="80" viewBox="0 0 171 80" fill="none" xmlns="http://www.w3.org/2000/svg">
<g id="logo10.svg" clip-path="url(#clip0_420_7643)">
<path id="Vector" d="M158.14 0H12.14C5.5126 0 0.140015 5.37258 0.140015 12V68C0.140015 74.6274 5.5126 80 12.14 80H158.14C164.767 80 170.14 74.6274 170.14 68V12C170.14 5.37258 164.767 0 158.14 0Z" fill="white"/>
<path id="Vector_2" d="M130.698 37.2677C132.25 36.7413 133.981 36.395 135.574 36.9214C136.488 37.24 136.987 38.2096 136.973 39.1377C136.987 41.0493 137.015 42.9608 136.945 44.8585C136.391 44.8585 135.851 44.8585 135.297 44.8585C135.228 44.5538 135.172 44.2491 135.103 43.9582C134.078 44.7754 132.707 45.3572 131.391 44.8585C129.895 44.2629 129.715 42.0328 130.837 40.9939C131.959 39.9411 133.593 39.9411 135.02 39.6087C134.923 39.1238 134.854 38.5005 134.286 38.362C133.15 38.0295 131.986 38.5421 130.906 38.8468C130.823 38.3343 130.754 37.8079 130.698 37.2677ZM132.527 41.6865C131.986 42.1159 131.973 43.1409 132.665 43.4179C133.51 43.7365 134.314 43.1686 134.978 42.7115C134.978 42.0882 134.978 41.4787 134.965 40.8553C134.12 41.0077 133.192 41.0908 132.527 41.6865Z" fill="#231F20"/>
<path id="Vector_3" d="M87.7272 33.445C88.6552 33.3896 89.5833 33.3758 90.4975 33.4035C91.5918 36.1877 92.2983 39.1243 93.4757 41.867C94.4592 39.055 95.3596 36.2292 96.3153 33.4173C97.2296 33.3896 98.1577 33.3896 99.0719 33.4173C99.3351 37.2404 99.7368 41.0497 99.903 44.859C99.1966 44.859 98.4762 44.859 97.7698 44.859C97.5205 42.1302 97.4097 39.4013 97.1326 36.6725C96.0383 39.3459 95.2626 42.1579 94.2653 44.859C93.6004 44.8867 92.9355 44.8867 92.2567 44.8452C91.301 42.1302 90.5252 39.3459 89.3894 36.7002C89.1539 39.4152 89.0431 42.144 88.7938 44.859C88.1566 44.859 87.5194 44.859 86.8822 44.859C87.0761 41.0497 87.464 37.2543 87.7272 33.445Z" fill="#231F20"/>
<path id="Vector_4" d="M119.38 34.3034C120.017 34.1649 120.668 34.0818 121.333 34.0264C121.36 34.9545 121.36 35.8687 121.347 36.7968C121.887 36.8106 122.427 36.8384 122.967 36.8522C123.064 37.3786 123.161 37.905 123.23 38.4313C122.607 38.459 121.984 38.4867 121.36 38.5006C121.374 39.8996 121.263 41.2987 121.416 42.6839C121.61 43.3626 122.496 43.1687 123.036 43.2934C123.147 43.8197 123.217 44.36 123.272 44.914C122.247 45.011 121.111 45.1634 120.197 44.5677C119.601 44.1799 119.407 43.4319 119.38 42.7531C119.296 41.3402 119.393 39.9273 119.338 38.5144C118.964 38.4729 118.59 38.4452 118.23 38.4036C118.244 37.8911 118.258 37.3786 118.271 36.8799C118.632 36.8522 118.992 36.8106 119.352 36.7829C119.338 35.9518 119.352 35.1346 119.38 34.3034Z" fill="#231F20"/>
<path id="Vector_5" d="M101.12 37.0047C101.813 36.8662 102.506 36.7969 103.198 36.7554C103.822 38.5977 104.39 40.4677 105.027 42.2961C105.692 40.5092 106.19 38.6808 106.786 36.8662C107.451 36.8246 108.116 36.8108 108.781 36.8246C108.033 39.2626 107.063 41.6312 106.246 44.0415C105.816 45.1496 105.539 46.424 104.625 47.2551C103.877 47.9339 102.797 47.9616 101.868 47.7954C101.785 47.269 101.688 46.7288 101.605 46.2024C102.062 46.2024 102.533 46.2301 102.99 46.147C103.614 45.9392 104.154 45.1912 103.877 44.5263C102.977 42.0191 101.979 39.5396 101.12 37.0047Z" fill="#231F20"/>
<path id="Vector_6" d="M110.086 36.8245C110.64 36.8245 111.208 36.8383 111.762 36.8522C111.831 37.1985 111.914 37.5448 111.983 37.8911C112.842 37.1846 113.881 36.492 115.045 36.6859C116.07 36.7275 116.887 37.6556 116.901 38.6529C116.956 40.7168 116.929 42.7808 116.915 44.8586C116.277 44.8724 115.64 44.8724 115.003 44.8863C114.823 43.0163 115.045 41.1186 114.906 39.2485C114.823 38.4728 113.853 38.2789 113.258 38.5837C112.745 38.833 112.053 39.1931 112.094 39.858C112.053 41.5203 112.108 43.1963 112.08 44.8586C111.402 44.8724 110.737 44.8724 110.058 44.8447C110.086 42.1713 110.072 39.4979 110.086 36.8245Z" fill="#231F20"/>
<path id="Vector_7" d="M124.767 36.8244C125.335 36.8244 125.903 36.8244 126.485 36.8383C126.554 37.3093 126.637 37.7664 126.706 38.2373C127.413 37.5032 128.189 36.7275 129.269 36.6582C129.435 37.2954 129.532 37.9603 129.56 38.6252C128.493 38.8607 127.288 39.3039 126.803 40.3705C126.706 41.8666 126.817 43.3764 126.762 44.8863C126.097 44.9001 125.418 44.8863 124.753 44.8724C124.767 42.1713 124.767 39.4979 124.767 36.8244Z" fill="#231F20"/>
<path id="Vector_8" d="M43.4424 26.0202C44.4121 24.8566 45.4648 23.6099 46.9608 23.139C48.6369 22.6957 50.0636 24.0116 51.1164 25.1336C53.8729 28.2919 55.8815 32.0181 57.7515 35.7581C58.7627 33.4864 60.0232 31.3255 61.3253 29.22C62.5719 27.3084 63.8602 25.3691 65.6609 23.9147C66.492 23.2775 67.6418 22.668 68.6806 23.2082C70.1489 23.9839 71.2571 25.2722 72.296 26.5327C74.4985 29.3723 76.23 32.5444 77.7952 35.7719C79.7483 39.9275 81.4383 44.2632 82.1447 48.8204C82.3525 50.9259 82.5464 53.2946 81.2721 55.1369C80.2886 56.5775 78.4186 57.0762 76.7563 56.7853C75.3157 56.2728 74.0552 55.3309 73.1133 54.1396C70.8693 51.3692 69.5395 48.017 68.3066 44.7064C68.1266 44.1246 67.9049 43.5567 67.711 42.9888C67.5863 43.5706 67.4201 44.1523 67.2262 44.7203C65.9657 48.0724 64.622 51.4939 62.3088 54.2781C61.3807 55.414 60.1617 56.2866 58.7765 56.7853C56.7818 57.2009 54.8564 56.162 53.5682 54.6937C51.0471 51.951 49.6481 48.4049 48.3599 44.9558C48.1105 44.2493 47.8612 43.5429 47.6811 42.8087C47.4733 43.5429 47.224 44.277 46.9608 44.9835C45.7973 48.1556 44.4675 51.3553 42.362 54.0288C41.2123 55.4001 39.7163 56.7438 37.8462 56.8407C36.1148 56.9931 34.4387 55.8711 33.7738 54.292C32.8318 52.1034 33.1089 49.6377 33.5244 47.3521C34.4248 42.9888 36.0871 38.8194 38.054 34.8438C39.5639 31.7549 41.2815 28.7351 43.4424 26.0202ZM44.4259 26.9898C42.2927 29.7048 40.5889 32.7522 39.0652 35.8412C37.1675 39.8444 35.4499 44.0138 34.7157 48.4049C34.4525 49.6239 34.4525 50.8844 34.5772 52.1172C34.7296 53.2808 35.1867 54.5274 36.2533 55.1231C37.2783 55.7187 38.5943 55.4832 39.5223 54.8183C41.1846 53.6548 42.2927 51.8817 43.2485 50.1225C45.2986 46.2024 46.6422 41.9499 47.6534 37.6696C48.7339 42.0607 50.0914 46.4379 52.2523 50.4411C53.1111 51.9233 54.0115 53.4608 55.4105 54.4859C56.1169 55.1231 57.045 55.5663 58.0147 55.4555C59.0951 55.3447 59.9955 54.6521 60.7573 53.918C62.0456 52.5882 62.9875 50.9536 63.8186 49.3191C65.5917 45.6899 66.8106 41.8114 67.7664 37.9051C68.9577 42.6425 70.4398 47.3937 72.9886 51.6047C73.9444 53.073 75.0664 54.5967 76.7425 55.2893C77.9199 55.7741 79.4159 55.3447 80.0946 54.2504C80.9119 52.9345 80.9812 51.2999 80.8565 49.8039C80.6903 47.3798 79.9838 45.025 79.2081 42.7256C77.6567 38.293 75.6205 34.0266 73.141 30.0511C71.9913 28.278 70.8 26.4911 69.1932 25.0782C68.6252 24.5796 67.7803 24.0948 67.06 24.5934C65.6748 25.4384 64.719 26.782 63.7494 28.0564C61.3945 31.4086 59.4553 35.0655 57.8623 38.8332C57.8207 38.8886 57.7099 38.9994 57.6684 39.0548C57.5298 38.6254 57.3913 38.2099 57.2112 37.7943C55.5767 34.2621 53.7621 30.7852 51.4488 27.6547C50.6593 26.6158 49.842 25.5631 48.7754 24.8012C48.3183 24.4826 47.7088 24.1917 47.1686 24.4688C46.0189 24.9951 45.2155 26.034 44.4259 26.9898Z" fill="#FEFEFE"/>
<path id="Vector_9" d="M44.4262 26.9897C45.2158 26.034 46.033 25.0089 47.1827 24.4825C47.723 24.2055 48.3324 24.4825 48.7896 24.815C49.8562 25.5768 50.6734 26.6434 51.463 27.6685C53.7624 30.8129 55.5909 34.2759 57.2254 37.8081C57.4193 38.2098 57.5578 38.6392 57.6825 39.0686C55.5493 35.4533 53.61 31.6994 50.9505 28.4303C50.1747 27.5161 49.3575 26.5465 48.2355 26.0617C47.5983 25.7846 46.9472 26.1448 46.4209 26.4911C44.5093 28.0979 43.0964 30.1895 41.7666 32.2673C38.6361 37.254 36.2813 42.7255 34.7298 48.4048C35.464 44.0138 37.1678 39.8443 39.0793 35.8411C40.5892 32.7521 42.293 29.7047 44.4262 26.9897Z" fill="#9E242E"/>
<path id="Vector_10" d="M67.0603 24.5796C67.7806 24.0809 68.6256 24.5657 69.1935 25.0644C70.8004 26.4634 71.9916 28.2503 73.1413 30.0372C75.6208 34.0266 77.6709 38.2791 79.2085 42.7117C79.9842 45.0112 80.6906 47.3521 80.8569 49.7901C80.5937 48.1001 80.1504 46.4379 79.5825 44.8311C78.1142 40.4123 76.0779 36.1736 73.6123 32.2258C72.5318 30.5359 71.3821 28.8598 69.9969 27.4192C69.4429 26.8651 68.8472 26.2833 68.0854 26.034C67.4897 25.8539 66.9495 26.2695 66.4647 26.5604C65.1765 27.5716 64.1791 28.8737 63.2234 30.1896C61.5334 32.586 60.0236 35.107 58.6661 37.6973C58.4444 38.1129 58.1674 38.5007 57.8627 38.847C59.4556 35.0655 61.3949 31.4224 63.7497 28.0702C64.7194 26.782 65.689 25.4245 67.0603 24.5796Z" fill="#9E242E"/>
<path id="Vector_11" d="M46.4207 26.4912C46.9471 26.1449 47.5981 25.7848 48.2353 26.0618C49.3573 26.5467 50.1746 27.5163 50.9503 28.4305C53.6099 31.6996 55.5491 35.4534 57.6685 39.0688C56.3387 42.8504 54.7596 46.6458 54.6626 50.7044C54.5933 52.0065 54.9396 53.2809 55.4245 54.486C54.0254 53.461 53.1112 51.9234 52.2662 50.4412C50.1192 46.438 48.7478 42.0747 47.6674 37.6698C46.8917 34.0128 46.1714 30.2728 46.4207 26.4912Z" fill="#FF912E"/>
<path id="Vector_12" d="M66.4778 26.5467C66.9627 26.2558 67.5029 25.8402 68.0985 26.0203C68.8604 26.2696 69.456 26.8514 70.0101 27.4055C71.3953 28.8599 72.545 30.5222 73.6254 32.2121C76.0911 36.1599 78.1273 40.3986 79.5956 44.8174C80.1774 46.4242 80.6068 48.0864 80.87 49.7763C80.9947 51.2724 80.9254 52.9069 80.1081 54.2228C79.4294 55.331 77.9472 55.7465 76.756 55.2617C75.0799 54.583 73.9579 53.0454 73.0021 51.5771C70.4533 47.38 68.9712 42.6287 67.7799 37.8775C66.9765 34.1791 66.2285 30.3836 66.4778 26.5467Z" fill="#F41CB2"/>
<path id="Vector_13" d="M41.7672 32.2674C43.097 30.1897 44.5099 28.098 46.4215 26.4912C46.1722 30.2589 46.8925 34.0128 47.682 37.6697C46.6708 41.9638 45.3133 46.2025 43.2771 50.1226C42.3213 51.8818 41.2132 53.6548 39.5509 54.8184C38.6229 55.4833 37.3069 55.7188 36.2819 55.1231C35.2153 54.5275 34.7582 53.267 34.6058 52.1173C34.4673 50.8844 34.4811 49.6239 34.7443 48.4049C36.268 42.7256 38.6367 37.2541 41.7672 32.2674Z" fill="#F41CB2"/>
<path id="Vector_14" d="M63.2367 30.1756C64.1924 28.8597 65.1898 27.5576 66.478 26.5464C66.2287 30.3695 66.9767 34.1788 67.7939 37.8911C66.8382 41.8112 65.6053 45.6759 63.8461 49.3051C63.015 50.9535 62.0731 52.5742 60.7849 53.904C60.0369 54.6381 59.1226 55.3307 58.0422 55.4415C57.0726 55.5524 56.1445 55.1091 55.438 54.4719C54.9532 53.2668 54.6069 51.9924 54.6762 50.6903C54.7731 46.6317 56.3523 42.8224 57.682 39.0547C57.7236 38.9993 57.8344 38.8885 57.876 38.8331C58.1807 38.4729 58.4577 38.0989 58.6794 37.6834C60.0507 35.0931 61.5467 32.572 63.2367 30.1756Z" fill="#F25511"/>
</g>
<defs>
<clipPath id="clip0_420_7643">
<rect width="170" height="80" fill="white" transform="translate(0.140015)"/>
</clipPath>
</defs>
</svg>
