<svg xmlns="http://www.w3.org/2000/svg" width="15" height="16" viewBox="0 0 15 16" fill="none">
<path d="M14.1667 11.2802V13.2802C14.1674 13.4659 14.1294 13.6497 14.055 13.8198C13.9806 13.9899 13.8715 14.1426 13.7347 14.2681C13.5979 14.3937 13.4364 14.4892 13.2605 14.5487C13.0846 14.6082 12.8983 14.6303 12.7133 14.6136C10.6619 14.3907 8.69134 13.6897 6.96001 12.5669C5.34923 11.5433 3.98356 10.1777 2.96001 8.56689C1.83333 6.8277 1.13217 4.84756 0.91334 2.78689C0.89668 2.60254 0.91859 2.41673 0.977673 2.24131C1.03676 2.06589 1.13172 1.90469 1.25652 1.76797C1.38131 1.63126 1.53321 1.52203 1.70253 1.44724C1.87186 1.37245 2.0549 1.33374 2.24001 1.33356H4.24001C4.56354 1.33038 4.8772 1.44495 5.12251 1.65592C5.36783 1.86689 5.52806 2.15986 5.57334 2.48023C5.65775 3.12027 5.81431 3.74871 6.04001 4.35356C6.1297 4.59218 6.14911 4.8515 6.09594 5.10081C6.04277 5.35012 5.91925 5.57897 5.74001 5.76023L4.89334 6.60689C5.84238 8.27592 7.22431 9.65786 8.89334 10.6069L9.74001 9.76023C9.92127 9.58099 10.1501 9.45746 10.3994 9.40429C10.6487 9.35112 10.9081 9.37053 11.1467 9.46023C11.7515 9.68593 12.38 9.84248 13.02 9.92689C13.3439 9.97258 13.6396 10.1357 13.851 10.3852C14.0624 10.6348 14.1748 10.9533 14.1667 11.2802Z" stroke="#F96021" stroke-linecap="round" stroke-linejoin="round" />
</svg>
