<svg width="18" height="20" viewBox="0 0 18 20" fill="none" xmlns="http://www.w3.org/2000/svg">
<g id="SVG" clip-path="url(#clip0_484_429)">
<path id="Vector" d="M2.9213 1.28988L16.5684 9.04457C17.5461 9.60023 17.5461 10.5093 16.5684 11.0656L13.1442 13.0111L13.0978 13.0368L2.9213 18.8196C2.32156 19.1598 1.789 19.1178 1.46708 18.7762C1.26344 18.5607 1.14307 18.2269 1.14307 17.793V2.31581C1.14307 1.88262 1.26344 1.54811 1.46708 1.33256L1.48061 1.31921C1.48702 1.3127 1.49351 1.3063 1.50008 1.30001L1.51887 1.28148C1.84446 0.987785 2.353 0.966935 2.9213 1.28988Z" fill="#F96021"/>
<path id="Vector_2" d="M1.46729 18.776L16.0998 4.14138M1.46729 1.33301L16.1005 15.9662" stroke="white" stroke-width="0.727846" stroke-linecap="square"/>
</g>
<defs>
<clipPath id="clip0_484_429">
<rect width="17" height="20" fill="white" transform="translate(0.939941)"/>
</clipPath>
</defs>
</svg>
