<svg width="53" height="53" viewBox="0 0 53 53" fill="none" xmlns="http://www.w3.org/2000/svg">
<g id="Restaurant &#38; Pubs">
<path id="Vector" d="M14.8491 3.60156H18.0991V19.8516H14.8491V3.60156Z" fill="#F96021"/>
<path id="Vector_2" d="M22.9741 18.2266C22.9741 19.9505 22.2893 21.6038 21.0703 22.8228C19.8513 24.0417 18.198 24.7266 16.4741 24.7266C14.7502 24.7266 13.0969 24.0417 11.8779 22.8228C10.6589 21.6038 9.97412 19.9505 9.97412 18.2266V3.60156H6.72412V18.2266C6.72645 20.529 7.54352 22.7563 9.03062 24.5141C10.5177 26.2718 12.5789 27.4466 14.8491 27.8303V49.1016H18.0991V27.8303C20.3693 27.4466 22.4305 26.2718 23.9176 24.5141C25.4047 22.7563 26.2218 20.529 26.2241 18.2266V3.60156H22.9741V18.2266Z" fill="#F96021"/>
<path id="Vector_3" d="M35.9741 3.60181H34.3491V49.1018H37.5991V32.8518H42.4741C43.3361 32.8518 44.1627 32.5094 44.7722 31.8999C45.3817 31.2904 45.7241 30.4638 45.7241 29.6018V13.3518C45.7744 12.0579 45.5566 10.7677 45.0844 9.562C44.6122 8.35633 43.8958 7.26132 42.9802 6.34573C42.0646 5.43014 40.9696 4.71375 39.7639 4.24155C38.5583 3.76935 37.268 3.55155 35.9741 3.60181ZM42.4741 29.6018H37.5991V6.99806C42.2791 7.90806 42.4741 12.7506 42.4741 13.3518V29.6018Z" fill="#F96021"/>
</g>
</svg>
