<svg width="31" height="20" viewBox="0 0 31 20" fill="none" xmlns="http://www.w3.org/2000/svg">
<path id="Vector" d="M22.75 19.8199C24.4805 20.231 26.3035 19.9378 27.8178 19.0048C29.3322 18.0718 30.4139 16.5755 30.825 14.8449C31.2361 13.1144 30.9429 11.2914 30.0099 9.77708C29.0769 8.26273 27.5805 7.18103 25.85 6.76994C24.9604 6.4743 24.0175 6.37397 23.0856 6.47579C22.1537 6.5776 21.2548 6.87918 20.45 7.35994V6.43994C20.4495 5.73659 20.6705 5.05093 21.0815 4.48017C21.4925 3.90941 22.0728 3.48249 22.74 3.25994C23.1327 3.09935 23.4495 2.79532 23.6262 2.40958C23.8029 2.02384 23.8261 1.58533 23.6912 1.18309C23.5562 0.780847 23.2733 0.445041 22.8997 0.243867C22.5262 0.0426931 22.0901 -0.00876621 21.68 0.0999398C20.3464 0.543186 19.1862 1.39516 18.3641 2.53498C17.542 3.6748 17.0997 5.04458 17.1 6.44994V12.8899C17.0552 14.5315 17.6008 16.1346 18.6375 17.4081C19.6743 18.6816 21.1335 19.5409 22.75 19.8299V19.8199ZM5.64999 19.8199C7.30411 20.0653 8.99016 19.6823 10.3759 18.7464C11.7617 17.8105 12.7467 16.3895 13.1369 14.7634C13.5271 13.1374 13.2942 11.4241 12.4841 9.96125C11.674 8.49838 10.3453 7.39194 8.75999 6.85994C7.87531 6.54939 6.93405 6.4333 6.00043 6.51959C5.0668 6.60587 4.16277 6.89251 3.34999 7.35994V6.43994C3.34954 5.73659 3.57049 5.05093 3.98151 4.48017C4.39253 3.90941 4.97277 3.48249 5.63999 3.25994C6.03269 3.09935 6.34955 2.79532 6.52621 2.40958C6.70288 2.02384 6.7261 1.58533 6.59118 1.18309C6.45625 0.780847 6.17328 0.445041 5.79974 0.243867C5.4262 0.0426931 4.9901 -0.00876621 4.57999 0.0999398C3.24798 0.542647 2.08895 1.39311 1.26699 2.53093C0.445033 3.66875 0.00178329 5.03628 -9.56398e-06 6.43994V12.8799C-0.0447973 14.5215 0.500752 16.1246 1.53752 17.3981C2.57429 18.6716 4.03348 19.5309 5.64999 19.8199Z" fill="#0B223D"/>
</svg>
