<svg width="171" height="80" viewBox="0 0 171 80" fill="none" xmlns="http://www.w3.org/2000/svg">
<g clip-path="url(#clip0_420_7621)">
<path d="M158.14 0H12.14C5.5126 0 0.140015 5.37258 0.140015 12V68C0.140015 74.6274 5.5126 80 12.14 80H158.14C164.767 80 170.14 74.6274 170.14 68V12C170.14 5.37258 164.767 0 158.14 0Z" fill="white"/>
<path d="M99.8658 40.1C97.2843 41.8658 96.1365 44.3519 95.8619 47.2753C95.8422 47.4841 95.803 47.6901 95.7736 47.8962C95.7778 46.6012 95.7876 45.3091 95.7848 44.0156C95.7778 41.1006 94.1521 39.5703 91.0732 39.4427C89.334 39.3699 87.7981 39.6432 86.6951 41.0474C86.0939 41.8126 85.8052 42.6702 85.8066 43.633C85.8094 45.4801 85.7814 47.3286 85.766 49.1715C85.7225 47.4603 85.6763 45.7618 85.0316 44.1249C84.3814 42.474 83.4228 41.0796 81.7845 40.1729C81.8042 37.2355 81.8266 34.2981 81.8406 31.3607C81.8532 28.8424 83.797 26.921 86.4541 26.8944C89.3845 26.8663 92.3163 26.8761 95.2466 26.9168C97.9696 26.9546 99.9372 28.9643 99.9008 31.5261C99.8587 34.3836 99.8756 37.2425 99.8658 40.1Z" fill="#FFCA20"/>
<path d="M42.3149 54.8948C42.193 56.9073 41.7446 57.7635 39.8919 57.7635C38.5255 57.7285 39.0244 57.7285 37.658 57.7341C37.3133 57.7355 37.1577 57.6612 37.1619 57.2983C37.1997 53.7302 36.9811 50.1482 37.4184 46.6012C37.9173 42.558 40.751 40.0243 45.0365 39.4581C45.9502 39.3376 46.8626 39.2759 47.7847 39.2857C48.1491 39.2899 48.3313 39.3474 48.3201 39.7608C48.2836 41.0823 48.2738 42.4053 48.292 43.7268C48.2976 44.1543 48.1421 44.2664 47.716 44.2594C46.9383 44.2454 46.1619 44.1921 45.3827 44.3365C43.5524 44.6742 42.5728 45.693 42.4355 47.4728C42.4088 47.8148 42.371 48.1581 42.3682 48.5001C42.3598 49.7964 42.3654 51.0927 42.3654 52.3891" fill="black"/>
<path d="M93.6817 55.1935C93.6691 56.9257 92.398 58.2248 90.7373 58.229C89.0948 58.2346 87.7873 57.0084 87.7803 55.3014C87.7648 51.5204 87.8013 47.7393 87.8587 43.9583C87.8812 42.4615 89.242 41.2437 90.7765 41.2325C92.3433 41.2213 93.6859 42.4405 93.7237 44.0059C93.77 45.9091 93.7349 47.8136 93.7349 49.7181" fill="black"/>
<path d="M83.1129 22.3636C81.7185 21.1583 80.5091 20.1143 79.3024 19.066C79.0137 18.8151 78.732 18.9847 78.4405 19.0492C77.1064 19.3449 75.7246 18.8165 75.1079 17.7795C74.4787 16.72 74.6987 15.5106 75.6727 14.6879C76.6958 13.8233 78.4546 13.7658 79.5519 14.5604C80.6674 15.369 80.9827 16.6527 80.247 17.8005C79.9695 18.2335 80.076 18.4143 80.4124 18.6988C81.7451 19.8242 83.0554 20.9733 84.3728 22.1141C84.5816 22.2949 84.8311 22.393 85.0903 22.4981C85.7518 22.7658 86.0839 23.2703 85.976 23.9556C85.8695 24.6339 85.4112 25.116 84.7007 25.1286C82.4136 25.1692 80.1237 25.1636 77.8365 25.1118C76.9887 25.0921 76.4351 24.4293 76.4603 23.6837C76.487 22.9143 77.0966 22.3467 78.0131 22.3341C79.3234 22.3159 80.6352 22.3509 81.9469 22.3621C82.251 22.3664 82.5551 22.3636 83.1129 22.3636Z" fill="#FFCA20"/>
<path d="M98.3178 22.4841C100.064 22.4841 101.709 22.4799 103.353 22.4855C104.425 22.4883 105.112 23.0461 105.101 23.8869C105.091 24.6984 104.425 25.2617 103.399 25.2519C101.279 25.2309 99.1587 25.3234 97.0383 25.1959C96.2549 25.1482 95.7616 24.8119 95.599 24.1098C95.4337 23.3964 95.777 22.8765 96.4623 22.571C96.7216 22.4561 96.9332 22.2977 97.1322 22.1085C98.3739 20.9271 99.6099 19.7401 100.868 18.5755C101.185 18.2826 101.283 18.0528 101.105 17.6239C100.606 16.4159 101.035 15.2639 102.151 14.5843C103.293 13.8891 104.975 14.0363 105.956 14.9164C106.834 15.704 107.026 16.8868 106.439 17.8972C105.831 18.9441 104.337 19.6434 103.143 19.1599C102.132 18.7507 101.649 19.1333 101.055 19.7401C100.22 20.5936 99.3268 21.3952 98.4607 22.222C98.4271 22.2557 98.4131 22.3089 98.3178 22.4841Z" fill="#FFCA20"/>
<path d="M94.5719 22.1728C94.5579 24.0647 92.7823 25.6119 90.6269 25.6119C88.4953 25.6119 86.6889 24.0311 86.6791 22.1574C86.6693 20.2598 88.543 18.6286 90.6816 18.6748C92.8608 18.7211 94.586 20.2725 94.5719 22.1728Z" fill="#FFCA20"/>
<path d="M72.3799 55.7791C73.8402 57.3276 74.4246 57.7214 75.7265 58.0452C79.5454 58.9939 82.9789 57.4075 84.6564 53.9334C85.388 52.417 85.6584 50.811 85.7663 49.1671C85.7271 48.4888 85.7341 47.8091 85.7565 47.1323C85.828 45.0441 85.1217 43.2026 83.8226 41.5504C83.3054 40.8931 82.7168 40.2947 81.7849 40.1714C79.3464 39.0236 76.793 38.6999 74.1457 39.3109C71.0079 40.034 68.3214 41.3542 67.58 44.6952C67.395 45.5262 67.3796 46.3643 67.3768 47.2149C67.367 49.9926 67.339 52.7716 67.3165 55.5492C67.2927 58.4586 67.2717 61.368 67.2339 64.2773C67.2297 64.6277 67.3418 64.7356 67.7061 64.723C68.4307 64.6991 69.158 64.7398 69.8826 64.7104C71.2644 64.6529 72.2538 63.6537 72.265 62.3279L72.3799 55.7791ZM79.977 51.9994C79.345 53.4036 78.172 54.1716 76.5057 54.152C74.7819 54.131 73.6384 53.2957 72.9293 51.8579C72.4472 50.8769 72.4065 49.8188 72.3561 48.8098C72.4233 47.6606 72.4514 46.5535 72.904 45.5038C73.5361 44.0365 74.6726 43.2026 76.3347 43.155C77.9758 43.1088 79.2819 43.7688 79.949 45.2375C80.9665 47.4728 80.9847 49.7613 79.977 51.9994Z" fill="black"/>
<path d="M114.161 36.3877C114.162 35.2637 113.208 34.329 112.019 34.1986C111.302 34.1202 110.57 34.1762 109.847 34.13C109.313 34.0963 109.12 34.2449 109.138 34.7872C109.183 36.1088 109.152 37.4331 109.152 38.7575C109.152 39.7595 109.152 40.6214 109.152 41.6248C107.827 40.0874 106.646 39.4035 104.286 39.1947C102.709 39.0546 101.246 39.3951 99.8646 40.1029C99.1666 40.4644 99.2269 40.5793 98.9396 40.819C97.9642 41.629 97.328 42.631 96.7618 43.734C96.0485 45.1256 95.7906 46.3939 95.7738 47.8976C95.6855 49.3032 95.75 50.7075 96.0681 52.0809C96.7141 54.8641 98.0637 57.112 101.197 57.9781C103.225 58.5386 105.282 58.6535 107.312 58.1715C111.788 57.105 113.873 55.4162 114.037 50.9149C114.215 46.0757 114.156 41.2296 114.161 36.3877ZM108.53 52.0388C107.935 53.4781 106.844 54.3175 105.194 54.3834C103.546 54.4479 102.23 53.834 101.545 52.3709C100.504 50.1483 100.436 47.8569 101.44 45.6133C102.105 44.1249 103.34 43.3191 105.126 43.4032C106.785 43.4817 108.005 44.338 108.623 45.9006C108.979 46.8017 109.079 47.7448 109.108 48.7272C109.061 49.8344 108.972 50.9653 108.53 52.0388Z" fill="black"/>
<path d="M65.7326 44.2903C65.7312 42.0045 64.5904 40.3943 62.3243 39.6333C59.7947 38.7841 57.1797 38.6649 54.58 39.2213C52.2158 39.7286 50.5565 41.0768 49.8642 43.3625C49.7059 43.8881 49.7857 44.1221 50.45 44.0801C51.3399 44.024 52.2354 44.0703 53.1281 44.0646C53.9396 44.0604 54.8071 44.2454 55.3214 43.3513C55.4209 43.1775 55.7334 43.0836 55.9674 43.0164C57.3254 42.6254 58.6666 42.7375 59.9853 43.193C60.5025 43.3723 60.794 43.7451 60.8626 44.2594C60.9327 44.7934 60.6594 45.1816 60.2138 45.4605C59.5733 45.8613 58.8404 46.014 58.0948 46.1402C56.5897 46.3938 55.0411 46.4345 53.5808 46.9151C52.1191 47.3972 50.6925 47.955 49.8782 49.3172C47.6514 53.0422 49.9161 57.4287 54.36 58.0663C55.9282 58.2919 57.4852 58.1728 59.0296 57.9906C62.5528 57.5758 65.1188 55.7273 65.4915 52.6834C65.734 50.6962 65.6793 49.2037 65.734 47.7756C65.7326 46.4064 65.7326 45.3484 65.7326 44.2903ZM60.9019 49.9927C60.8921 52.9175 59.1207 54.5782 56.2141 54.3876C54.9836 54.3063 54.1932 53.6939 54.0209 52.6876C53.8191 51.5104 54.332 50.5771 55.4307 50.1062C56.2239 49.7657 57.0858 49.6704 57.9182 49.4714C58.4844 49.3368 59.0534 49.2093 59.6083 49.0439C60.9089 48.6543 60.9061 48.6459 60.9019 49.9927Z" fill="black"/>
<path d="M133.269 46.7259C132.664 42.1502 129.502 39.3992 124.658 39.2773C120.511 39.1722 117.444 40.994 116.21 44.3575C115.676 45.8107 115.397 47.3215 115.467 48.7397C115.467 49.0845 115.456 49.2975 115.468 49.5077C115.599 51.6379 115.882 53.7596 117.3 55.5016C119.441 58.1307 122.469 58.7837 125.754 58.4642C129.557 58.0942 131.918 56.0117 132.933 52.5404C133.492 50.6288 133.53 48.6893 133.269 46.7259ZM128.398 48.6416C128.404 49.9029 128.272 51.0072 127.874 52.0611C127.002 54.3679 124.631 55.2367 122.488 54.0707C121.743 53.6657 121.287 53.0449 121.034 52.2979C120.387 50.399 120.257 48.458 120.704 46.51C121.175 44.4598 122.614 43.3568 124.624 43.4031C126.366 43.4437 127.811 44.7765 128.207 46.7329C128.345 47.4084 128.453 48.0909 128.398 48.6416Z" fill="black"/>
<path d="M87.7767 59.9556H89.4192C90.1676 59.9556 90.7113 60.0621 91.049 60.2765C91.3868 60.4895 91.5564 60.8301 91.5564 61.2953C91.5564 61.6121 91.4821 61.8713 91.3349 62.0731C91.1878 62.2749 90.9902 62.3983 90.7449 62.4389V62.4753C91.0799 62.5496 91.3209 62.6897 91.4681 62.8958C91.6166 63.1004 91.6895 63.3736 91.6895 63.7142C91.6895 64.1963 91.5157 64.5733 91.1682 64.8437C90.8206 65.1142 90.3483 65.2488 89.7513 65.2488H87.7767V59.9556ZM88.8951 62.0507H89.5453C89.848 62.0507 90.068 62.0045 90.204 61.9092C90.3399 61.8153 90.4086 61.6597 90.4086 61.4425C90.4086 61.2393 90.3343 61.0949 90.1872 61.0066C90.0386 60.9183 89.8046 60.8749 89.4851 60.8749H88.8965V62.0507H88.8951ZM88.8951 62.9406V64.3196H89.6238C89.9321 64.3196 90.1591 64.2608 90.3063 64.1416C90.4534 64.0239 90.5263 63.8431 90.5263 63.5993C90.5263 63.1606 90.2138 62.9406 89.5874 62.9406H88.8951Z" fill="black"/>
<path d="M94.222 65.2459V59.9541H95.3418V65.2459H94.222Z" fill="black"/>
<path d="M102.394 65.2459H101.123L99.7398 63.0162L99.2676 63.3568V65.2459H98.1478V59.9541H99.2676V62.3758L99.7076 61.7535L101.137 59.9555H102.379L100.537 62.2973L102.394 65.2459Z" fill="black"/>
<path d="M107.578 65.2459H104.538V59.9541H107.578V60.8734H105.658V62.0352H107.445V62.9546H105.658V64.3195H107.578V65.2459Z" fill="black"/>
<path d="M115.592 65.246H114.472V60.8889H113.038V59.9556H117.024V60.8889H115.59V65.246H115.592Z" fill="black"/>
<path d="M122.546 65.2459L122.164 63.986H120.24L119.857 65.2459H118.652L120.514 59.9331H121.882L123.752 65.2459H122.546ZM121.897 63.0457C121.544 61.9049 121.344 61.2589 121.3 61.1089C121.257 60.9589 121.223 60.8412 121.205 60.7543C121.125 61.0627 120.898 61.8264 120.523 63.0457H121.897Z" fill="black"/>
<path d="M130.161 65.246H128.883L127.656 63.2448L126.428 65.246H125.23L126.98 62.5175L125.342 59.9556H126.577L127.713 61.8588L128.829 59.9556H130.034L128.377 62.5791L130.161 65.246Z" fill="black"/>
<path d="M132.304 65.2459V59.9541H133.424V65.2459H132.304Z" fill="black"/>
</g>
<defs>
<clipPath id="clip0_420_7621">
<rect width="170" height="80" fill="white" transform="translate(0.140015)"/>
</clipPath>
</defs>
</svg>
