<svg width="52" height="53" viewBox="0 0 52 53" fill="none" xmlns="http://www.w3.org/2000/svg">
<g id="spa">
<path id="Vector" d="M38.3094 24.2495C37.9887 20.7299 36.9194 17.3194 35.1733 14.2467C33.4273 11.1739 31.0447 8.50971 28.1852 6.43265L25.3753 4.39795L22.7423 6.44545C19.9991 8.57823 17.7366 11.2658 16.1027 14.3325C14.4688 17.3992 13.5002 20.7761 13.2603 24.2426C12.2004 24.0429 11.1241 23.9423 10.0455 23.9424H2.16669V30.3979C2.16669 39.9556 9.94236 47.7313 19.5 47.7313H32.1061C41.6637 47.7313 49.4394 39.9556 49.4394 30.3979V23.9424H41.5606C40.4697 23.9423 39.3811 24.0452 38.3094 24.2495ZM24.6772 8.93318L25.4429 8.33734L26.3371 8.98488C28.9159 10.8582 31.0491 13.2781 32.5841 16.0715C34.1191 18.8649 35.0181 21.963 35.2168 25.1442C31.0496 26.7951 27.6784 29.9876 25.8031 34.0587C23.9239 29.98 20.5434 26.7838 16.3658 25.136C16.4759 21.9905 17.2777 18.908 18.7142 16.1075C20.1507 13.3071 22.1866 10.8576 24.6772 8.93318ZM24.2273 44.5798H19.5C11.6803 44.5798 5.3182 38.2176 5.3182 30.3979V27.0939H10.0455C17.8652 27.0939 24.2273 33.456 24.2273 41.2757V44.5798ZM46.2879 30.3979C46.2879 38.2176 39.9258 44.5798 32.1061 44.5798H27.3788V41.2757C27.3788 33.456 33.7409 27.0939 41.5606 27.0939H46.2879V30.3979Z" fill="white"/>
</g>
</svg>
